<svg xmlns="http://www.w3.org/2000/svg" xmlns:xlink="http://www.w3.org/1999/xlink" viewBox="0 0 546.15 610.64"><defs><style>.cls-1,.cls-41{fill:none;}.cls-2,.cls-32{fill:#dcddde;}.cls-2,.cls-41{stroke:#fff;stroke-miterlimit:10;stroke-width:2px;}.cls-3{isolation:isolate;}.cls-4{fill:#e4ecee;}.cls-5{clip-path:url(#clip-path);}.cls-34,.cls-6{fill:#9eb1db;}.cls-35,.cls-7{fill:#154a8f;}.cls-36,.cls-8{fill:#6876ab;}.cls-37,.cls-9{fill:#3e5c9a;}.cls-10,.cls-38{fill:#6486bc;}.cls-11,.cls-39{fill:#5e82bc;}.cls-12,.cls-40{fill:#1c3d70;}.cls-13{fill:#f8d7ba;}.cls-14{fill:#e5b693;}.cls-15{fill:#ab3b45;}.cls-16{fill:#787f87;}.cls-17{fill:#95989f;}.cls-18{fill:#fffcdd;}.cls-19{fill:#67111b;}.cls-20{fill:#f6caa6;}.cls-21{fill:#e2b28f;}.cls-22{fill:#e8f5f4;}.cls-23{fill:#c4d8d6;}.cls-24{fill:#1e252c;}.cls-25{fill:#0c0f11;}.cls-26{fill:#d7b6c3;}.cls-27{fill:#aa5a7e;}.cls-28{fill:#813c24;}.cls-29{fill:#ce6492;}.cls-30{fill:#985d45;}.cls-31{fill:#939598;mix-blend-mode:multiply;}.cls-33{clip-path:url(#clip-path-2);}.cls-34,.cls-35,.cls-36,.cls-37,.cls-38,.cls-39,.cls-40,.cls-47{opacity:0.8;}.cls-42{fill:#47494f;}.cls-43{fill:#34383e;}.cls-44{fill:#898e95;}.cls-45{fill:#6c767d;}.cls-46{clip-path:url(#clip-path-3);}.cls-48{fill:#93979e;}.cls-49{fill:#21272e;}</style><clipPath id="clip-path"><path class="cls-1" d="M69.51,0V610.64H449.87V0ZM266.1,315.21a14.86,14.86,0,0,1-7.35-1.92v25.89H231.1a15,15,0,1,0-23.94,0H180.85V311.65a15,15,0,1,1,0-22.81V261.29h26.32a15,15,0,1,0,23.92,0h27.66v25.9a15,15,0,1,1,7.35,28Zm141.67-12h-2.06v4.17H378.06a14.85,14.85,0,0,0,3-9c0-.36,0-.71,0-1.06a15,15,0,0,0-29.87,0c0,.35,0,.7,0,1.06a14.87,14.87,0,0,0,.8,4.83,14.51,14.51,0,0,0,2.21,4.17H327.81V279.8a15,15,0,1,1,0-22.81V229.45h26.31a15,15,0,1,0,23.94,0h27.65v67.84h2.06Z"/></clipPath><clipPath id="clip-path-2"><path class="cls-2" d="M412.6,307.88l.7,5.85-2.05.24.5,4.14-27.45,3.3a14.73,14.73,0,0,0,1.9-9.29c0-.36-.09-.71-.16-1.05a15,15,0,0,0-29.66,3.56,9.68,9.68,0,0,0,.09,1.06,15,15,0,0,0,4.06,8.58l-26.12,3.13-3.29-27.35a15,15,0,1,1-2.72-22.65l-3.29-27.34,26.13-3.14A15,15,0,1,0,375,244.07l27.46-3.3,8.09,67.35Z"/></clipPath><clipPath id="clip-path-3"><path class="cls-2" d="M249.68,317.14a15,15,0,0,1-16.77,12.95,14.78,14.78,0,0,1-7-2.85l-3.3,25.69-27.43-3.52a15,15,0,1,0-23.74-3.05L145.3,343l3.51-27.32a15,15,0,1,1,2.91-22.62l3.51-27.33,26.1,3.35a15,15,0,1,0,23.73,3.05l27.43,3.52-3.3,25.7a15,15,0,0,1,20.49,15.78Z"/></clipPath></defs><g class="cls-3"><g id="Layer_10" data-name="Layer 10"><path class="cls-4" d="M483.74,466.76c38-22.89,63-82.35,58-113s-15-13.31-41.93-63.59S486.43,99.38,415.52,157.41s-88.38,79.94-132.84,46.14-28.57-92.62-78.13-96.37S129,115,122.91,143.32s18.09,59.39-11.84,62.94-39.85-53.62-63.36-6.57S83,237,54.85,271s-70.09,23-48.19,60.72S13.85,350,.56,413.2s214.5,104.61,317.13,93.4S483.74,466.76,483.74,466.76Z"/><g class="cls-5"><rect class="cls-6" x="126.71" y="153.73" width="37.64" height="65.84"/><rect class="cls-7" x="123.47" y="221.57" width="284.3" height="5.89"/><rect class="cls-8" x="116.45" y="129.49" width="207.41" height="22.25"/><rect class="cls-9" x="320.94" y="129.49" width="88.65" height="22.25"/><rect class="cls-6" x="166.07" y="153.73" width="37.64" height="65.84"/><rect class="cls-6" x="205.43" y="153.73" width="37.64" height="65.84"/><rect class="cls-6" x="244.8" y="153.73" width="37.64" height="65.84"/><rect class="cls-6" x="284.16" y="153.73" width="37.64" height="65.84"/><rect class="cls-10" x="323.86" y="153.73" width="26.47" height="65.84"/><rect class="cls-10" x="351.55" y="153.73" width="26.47" height="65.84"/><rect class="cls-10" x="379.24" y="153.73" width="26.47" height="65.84"/><rect class="cls-6" x="126.71" y="229.45" width="37.64" height="65.84"/><rect class="cls-7" x="123.47" y="297.29" width="284.3" height="5.89"/><rect class="cls-6" x="166.07" y="229.45" width="37.64" height="65.84"/><rect class="cls-6" x="205.43" y="229.45" width="37.64" height="65.84"/><rect class="cls-6" x="244.8" y="229.45" width="37.64" height="65.84"/><rect class="cls-6" x="284.16" y="229.45" width="37.64" height="65.84"/><rect class="cls-10" x="323.86" y="229.45" width="26.47" height="65.84"/><rect class="cls-10" x="351.55" y="229.45" width="26.47" height="65.84"/><rect class="cls-10" x="379.24" y="229.45" width="26.47" height="65.84"/><rect class="cls-6" x="126.71" y="305.17" width="37.64" height="65.84"/><rect class="cls-7" x="123.47" y="373.01" width="284.3" height="5.89"/><rect class="cls-6" x="166.07" y="305.17" width="37.64" height="65.84"/><rect class="cls-6" x="205.43" y="305.17" width="37.64" height="65.84"/><rect class="cls-6" x="244.8" y="305.17" width="37.64" height="65.84"/><rect class="cls-6" x="284.16" y="305.17" width="37.64" height="65.84"/><rect class="cls-10" x="323.86" y="305.17" width="26.47" height="65.84"/><rect class="cls-10" x="351.55" y="305.17" width="26.47" height="65.84"/><rect class="cls-10" x="379.24" y="305.17" width="26.47" height="65.84"/><rect class="cls-6" x="126.71" y="380.9" width="37.64" height="65.84"/><rect class="cls-7" x="123.47" y="448.74" width="284.3" height="5.89"/><rect class="cls-6" x="166.07" y="380.9" width="37.64" height="65.84"/><rect class="cls-6" x="205.43" y="380.9" width="37.64" height="65.84"/><rect class="cls-6" x="244.8" y="380.9" width="37.64" height="65.84"/><rect class="cls-6" x="284.16" y="380.9" width="37.64" height="65.84"/><rect class="cls-10" x="323.86" y="380.9" width="26.47" height="65.84"/><rect class="cls-10" x="351.55" y="380.9" width="26.47" height="65.84"/><rect class="cls-10" x="379.24" y="380.9" width="26.47" height="65.84"/><rect class="cls-6" x="126.71" y="456.62" width="37.64" height="65.84"/><rect class="cls-7" x="123.47" y="524.46" width="284.3" height="5.89"/><rect class="cls-6" x="166.07" y="456.62" width="37.64" height="65.84"/><rect class="cls-6" x="205.43" y="456.62" width="37.64" height="65.84"/><rect class="cls-6" x="244.8" y="456.62" width="37.64" height="65.84"/><rect class="cls-6" x="284.16" y="456.62" width="37.64" height="65.84"/><rect class="cls-11" x="323.86" y="456.62" width="26.47" height="65.84"/><rect class="cls-11" x="351.55" y="456.62" width="26.47" height="65.84"/><rect class="cls-11" x="379.24" y="456.62" width="26.47" height="65.84"/><rect class="cls-7" x="243.76" y="89.22" width="137.01" height="38.13"/><rect class="cls-12" x="345.5" y="89.22" width="35.27" height="38.13"/><rect class="cls-8" x="257.68" y="64.85" width="37.42" height="22.23"/><rect class="cls-7" x="296.28" y="64.85" width="19.99" height="22.23"/><ellipse class="cls-8" cx="365.15" cy="67.28" rx="8.52" ry="5.57" transform="translate(151.75 371.12) rotate(-65.36)"/><rect class="cls-8" x="365.72" y="67.17" width="1.36" height="19.91"/><rect class="cls-8" x="376.34" y="67.17" width="1.36" height="19.91"/><rect class="cls-8" x="317.13" y="85.62" width="60.57" height="1.46"/><rect class="cls-8" x="350.62" y="84.07" width="27.07" height="1.55"/><ellipse class="cls-7" cx="377.7" cy="74.64" rx="5.57" ry="8.52" transform="translate(-0.58 146.27) rotate(-21.9)"/></g><path class="cls-13" d="M248.68,433.73l-35.07-4L140.68,469a28.7,28.7,0,0,1-18.34,3L9,451.68,17.35,547l109.36,15.11L230.37,588l22.7,5.65,17.34-7,23.6,2.54a3.25,3.25,0,0,0,2-.43l16.24-9.43h0a3.31,3.31,0,0,1,4-4.17l2.58.63,27.49-8.1v-5.1l6.76,3.11,21.72.57a7.84,7.84,0,0,0,6.08-2.66l3.73-4.25a7.83,7.83,0,0,0,.19-10.09l-3.68-4.52-6,2.33-64.52-43.9L256.07,459l-14.64-.66S231.91,439.72,248.68,433.73Z"/><path class="cls-13" d="M384.59,559.41l-3.73,4.24a7.8,7.8,0,0,1-6.08,2.66l-21.72-.57-6.76-3.1v5.1l-27.49,8.09-2.58-.63a3.32,3.32,0,0,0-4,4.18L296,588.81a3.39,3.39,0,0,1-2,.43l-23.61-2.54-17.33,7L230.38,588,126.71,562.09,17.35,547l-1.27-15.22,81.62,14.5s-2.25-4.35-3.8-21.44,16.21-52.47,16.21-52.47h15.17c-9.67,1-15.64,54-15.14,64.46s10.59,15,10.59,15l76.12,11s60.88,21,62.88,19.44-11.49-12.47-12-12.85c.56.22,18.46,7.54,22.64,8.2s17.25-1.56,21.46-6.88c4.08-5.14-14.17-18.45-15.41-19.35,1.51.83,25.79,14,38.25,14.48,12.86.44,19.51-6.88,19.51-6.88l-30.13-22.16c.75.34,24.77,11.39,36.11,16.84,11.53,5.54,18.18,1.78,25.72,0s2-11.3,2-11.3l.07-.09,7.13,4.85,6-2.33,3.67,4.52A7.82,7.82,0,0,1,384.59,559.41Z"/><path class="cls-13" d="M248.68,433.73l-35.07-4L140.68,469a28.7,28.7,0,0,1-18.34,3L9,451.68l8,95.49,109.74,14.92L230.37,588l22.7,5.65,17.34-7,23.6,2.54a3.25,3.25,0,0,0,2-.43l16.24-9.43h0a3.31,3.31,0,0,1,4-4.17l2.58.63,27.49-8.1v-5.1l6.76,3.11,21.72.57a7.84,7.84,0,0,0,6.08-2.66l3.73-4.25a7.83,7.83,0,0,0,.19-10.09l-3.68-4.52-6,2.33-64.52-43.9L256.07,459l-14.64-.66S231.91,439.72,248.68,433.73Z"/><path class="cls-14" d="M384.59,559.41l-3.73,4.24a7.8,7.8,0,0,1-6.08,2.66l-21.72-.57-6.76-3.1v5.1l-27.49,8.09-2.58-.63a3.32,3.32,0,0,0-4,4.18L296,588.81a3.39,3.39,0,0,1-2,.43l-23.61-2.54-17.33,7L230.38,588,126.71,562.09,16.8,547.2,15.53,532,97.7,546.26s-2.25-4.35-3.8-21.44,16.21-52.47,16.21-52.47h15.17c-9.67,1-15.64,54-15.14,64.46s10.59,15,10.59,15l76.12,11s60.88,21,62.88,19.44-11.49-12.47-12-12.85c.56.22,18.46,7.54,22.64,8.2s17.25-1.56,21.46-6.88c4.08-5.14-14.17-18.45-15.41-19.35,1.51.83,25.79,14,38.25,14.48,12.86.44,19.51-6.88,19.51-6.88l-30.13-22.16c.75.34,24.77,11.39,36.11,16.84,11.53,5.54,18.18,1.78,25.72,0s2-11.3,2-11.3l.07-.09,7.13,4.85,6-2.33,3.67,4.52A7.82,7.82,0,0,1,384.59,559.41Z"/><path class="cls-15" d="M125.27,472.36s-1.12-.1-2.93-.34c-2,3.28-13.48,17.13-12.92,48.28s4.53,40.42,6,40.65l1.54.16s.73,1.59-1.27,1.7-13.51-1-16.29-1.22S89.13,542.8,90,518.86s13.69-51.54,17.63-50.88c2.32.5,17.34,2.44,17.34,2.44A1.6,1.6,0,0,1,125.27,472.36Z"/><circle class="cls-16" cx="100.19" cy="528.67" r="22.11"/><circle class="cls-17" cx="97.69" cy="529.67" r="22.11"/><circle class="cls-18" cx="97.69" cy="529.67" r="16.6"/><path class="cls-19" d="M97.14,532h0a.93.93,0,0,1-.94-1l.29-15.57a.65.65,0,0,1,.65-.63h0a.65.65,0,0,1,.65.63L98.08,531A.94.94,0,0,1,97.14,532Z"/><path class="cls-19" d="M96.5,531.43h0a.67.67,0,0,1,.24-.93l9.71-5.61a.46.46,0,0,1,.63.16h0a.45.45,0,0,1-.15.63l-9.49,6A.67.67,0,0,1,96.5,531.43Z"/><path class="cls-20" d="M454.38,535.26l-29.73,3.87-43.54,5.66-6,2.33-71.94-47.33L256.07,459l-14.63-.67s-11.86,33.92-20.73,45.89-30.15,8-27.05,5.33c.55-.47,1.17-3.22,1.82-7.42,3-19.4,6.61-69.73,6.61-69.73l4.88-5.77,73.15-35h9.76s80.77,55.14,82.3,55.14,51.16-8.58,51.16-8.58Z"/><path class="cls-21" d="M424.65,539.13l-43.54,5.66-6,2.33-71.94-47.33L256.07,459l-14.63-.67s-11.86,33.92-20.73,45.89-30.15,8-27.05,5.33c.55-.47,1.17-3.22,1.82-7.42,4.81-.47,7.28-1.13,11.79-5,.66-.56,3.51-17,4.15-17.79.8-.93,2.18,12.92,2.94,11.76,9.74-14.87,16.55-47.21,16.55-47.21l8,3.55,14.63-1.33,4.16-8.42S303,478.51,318.81,482.5s58.89,29.21,58.89,29.21,10.6-15.47,8.83-20.34,0-36.75,0-36.75Z"/><polygon class="cls-22" points="382.54 435.95 409.59 547.13 451.71 545.02 434.42 424.42 382.54 435.95"/><polygon class="cls-23" points="419.34 533.05 409.59 547.13 451.71 545.02 410.48 429.74 419.34 533.05"/><path class="cls-24" d="M407.76,424.42c2.27-.89,138.39-35,138.39-35l-7.53,157.74L434,557Z"/><path class="cls-25" d="M516.89,524.46c2.27-.89,29.26-135.07,29.26-135.07l-7.53,157.74L434,557Z"/><polygon class="cls-26" points="478.67 402.88 465.95 404.85 465.95 397.11 475.35 394.88 478.67 402.88"/><path class="cls-27" d="M527.5,380l-1.85,10.18-4.18,3.2,1.3,3.22,19.15-4.81c.52-.13,0-11.24,0-11.24l-6.63-9.31s-4.22-3.44-5.21,0S527.5,380,527.5,380Z"/><path class="cls-27" d="M466.16,398.23,451.3,411.49s-.3,3.22.66,3l30.74-7.76-1.35-2.36s-1.33.5-1.33.13-1.84-6.25-1.84-6.25-3.57,2.8-6.27,2.68S466.16,398.23,466.16,398.23Z"/><path class="cls-13" d="M417.33,275.64,406.8,275l-3.93.78,1.85,1.61-1.2,3.06s-7.9,2.83-7,3.92,7.53-1.13,7.53-1.13-7.61,3.64-7.25,4.72,6.61-1.69,8.27-2.31c0,0-1.64,1.85-6.55,4.56-.45.25.16,2.19,2.16,1a47.45,47.45,0,0,0,5.93-3.86c2-1.61-2.48,3.84-4.16,4.25,0,0-.71,1.57.8,1,1.94-.7,5.24-3.63,5.24-3.63l5.75-5.45.66-.52a7.07,7.07,0,0,0,2.56-7Z"/><path class="cls-28" d="M445.74,185.23s-.74.72-5.17.72-2.34,6-2.83,9.59a14.74,14.74,0,0,1-2.83,7.62c-1.6,2.22-.73,5.66,1.42,6.4s3.66,4.3,2.6,5.53-.29,5.07,3.32,5.3,7.3-1,8.16.85,7.26,5.07,10.85,2.52,8.83.31,8.34-6.33,2.16-16.6-3.53-19.55-7.61-9.11-11.08-10S448.2,181.42,445.74,185.23Z"/><path class="cls-19" d="M477.11,300.45s14.16,51.34,50.61,79.75a2.8,2.8,0,0,0,3.81-.31h0a9.16,9.16,0,0,0,.71-11.41c-8.35-11.91-27.09-38.55-31.8-69-4.06-26.19-14.6-28.94-14.6-28.94l-26.76,8.56c-.36,3.92-12.73,38.18,5.75,118.65l13,.46a2.71,2.71,0,0,0,2.63-3.38C477.39,383.05,468.4,342.15,477.11,300.45Z"/><path class="cls-13" d="M461.19,202.11c1.59,6.47-1.16,12.13-8.05,14.37-5.59,1.82-9.07-4.85-10.66-11.32s1-11.1,6.28-12.4S459.6,195.65,461.19,202.11Z"/><path class="cls-13" d="M444.79,229.34s-3.05,26.28-31.83,46c0,0-3.32,4.06,2.4,5.54,0,0,23.24-13.47,28.22-22C454.83,242.15,453.94,221.52,444.79,229.34Z"/><path class="cls-29" d="M442.36,228.81c.33-.33,5.14-4.78,8.7-4.29s6.65,7.51,6.59,10.19-2.18,7-.67,9.43-4.25,2.35-6.81.93-3.19-2.69-7-2.44-7.1-1.48-6.78-3.07S440.66,230.5,442.36,228.81Z"/><path class="cls-13" d="M448.44,224.07S443,228.44,443,238.28c-1,7.38-2.95,9.9-1,13.84s5.66,1.23,9.59,8.11,8.85,20.67,8.85,20.67l24.36-5.17s-10.58-25.58-10.58-27.55,1.23-17.47.49-21.4-5.36-6.88-9.22-6.39-4.43-10.89-4.43-10.89l-7.93,4.8S453.85,222.11,448.44,224.07Z"/><path class="cls-29" d="M446.89,225.76s-2.14,5.82,4.32,6.18,16-10.89,16-10.89a1.89,1.89,0,0,1,2.5-.3c1.42,1,7.32,1.23,8.79,7.5s-2.89,16.92-1.78,20.61,10.67,23.88,10.67,23.88.52,4.77-14.73,7.66-13.71,0-13.71,0A103.72,103.72,0,0,0,453.55,266c-3-6.09-9-10.09-11.2-11.69s-3.26-9.28-2.46-12.66S444.3,228.92,446.89,225.76Z"/><path class="cls-13" d="M465.46,225.32s-13.1,26.84-53.4,40.67c0,0-2.09,3.72-.22,4.83s39.2-12,46.67-17.59,17.68-21.29,18.11-23.4S473.59,216.9,465.46,225.32Z"/><path class="cls-29" d="M463.07,224c.33-.32,5.17-4.74,8.73-4.22s6.58,7.56,6.51,10.24-2.23,6.95-.75,9.43-4.26,2.32-6.82.88-3.16-2.72-7-2.5-7.09-1.53-6.76-3.12S461.35,225.63,463.07,224Z"/><path class="cls-30" d="M464.31,181.64c-5.07,1.2-10-7.26-15.62-2.46s-2.22,5.23-6,7.78-3.7,6.13,1.53,8.77,9.79,1.16,9.91,6.08,1.46,9.6,3.55,8.48,4.79,5.27,2.39,6.5,2.79,4.1,5.5,3.6,5.16.12,6.64,2.08,18.82,8.24,21,2.83,7-4.42,10.21-2,11.68,4,11.68.36.74-3.34,4.92-3,2-1.59,5.54-2.82,9.59,1.73,9.71-2.21-.73-5.9-3.81-4.43-3,.62-2.46-.74,3.81-4.79,1.6-7.38-3.93-4.79-7.38-2-3.93,4.44-5.41,3.26-1.11-3.63,1.84-4.74,6.15-2.21,5.79-4.67.36-7.75-4.56-9.47-8.24-1.42-10,1.38-2.33,2.92-5.78,1.69-5.78-6.27-13.16-3-4.92-.25-7.13-1.11-2.83-3.81-6.89-3.07-4.55,3.44-6.76,2.83S469,180.53,464.31,181.64Z"/><path class="cls-31" d="M405,324l.7,5.84-2,.25.49,4.14-27.45,3.3a14.91,14.91,0,0,0,1.7-4.41,15.28,15.28,0,0,0,.21-4.88c0-.36-.1-.71-.17-1a15,15,0,0,0-29.66,3.56c0,.35.05.7.09,1.06a14.78,14.78,0,0,0,1.37,4.7,14.42,14.42,0,0,0,2.69,3.87l-26.12,3.14-3.29-27.35a15,15,0,0,1-25.86-8.37,15,15,0,0,1,13.09-16.66,14.82,14.82,0,0,1,10,2.38l-3.28-27.34,26.12-3.14a15,15,0,1,0,23.77-2.85l27.45-3.3L403,324.27Z"/><path class="cls-32" d="M412.6,307.88l.7,5.85-2.05.24.5,4.14-27.45,3.3a14.73,14.73,0,0,0,1.9-9.29c0-.36-.09-.71-.16-1.05a15,15,0,0,0-29.66,3.56,9.68,9.68,0,0,0,.09,1.06,15,15,0,0,0,4.06,8.58l-26.12,3.13-3.29-27.35a15,15,0,1,1-2.72-22.65l-3.29-27.34,26.13-3.14A15,15,0,1,0,375,244.07l27.46-3.3,8.09,67.35Z"/><g class="cls-33"><rect class="cls-34" x="120.21" y="196.39" width="37.64" height="65.84" transform="translate(-26.36 18.22) rotate(-6.85)"/><rect class="cls-35" x="120.63" y="249.63" width="284.3" height="5.89" transform="translate(-28.26 33.15) rotate(-6.85)"/><rect class="cls-36" x="103.93" y="163.57" width="207.41" height="22.25" transform="translate(-19.36 26.02) rotate(-6.85)"/><rect class="cls-37" x="307.38" y="146.26" width="88.65" height="22.25" transform="translate(-16.26 43.08) rotate(-6.85)"/><rect class="cls-34" x="159.29" y="191.69" width="37.64" height="65.84" transform="translate(-25.52 22.85) rotate(-6.85)"/><rect class="cls-34" x="198.38" y="187" width="37.64" height="65.84" transform="translate(-24.69 27.48) rotate(-6.85)"/><rect class="cls-34" x="237.46" y="182.3" width="37.64" height="65.84" transform="translate(-23.85 32.11) rotate(-6.85)"/><rect class="cls-34" x="276.54" y="177.61" width="37.64" height="65.84" transform="translate(-23.01 36.74) rotate(-6.85)"/><rect class="cls-38" x="316" y="173.53" width="26.47" height="65.84" transform="translate(-22.28 40.75) rotate(-6.85)"/><rect class="cls-38" x="343.49" y="170.23" width="26.47" height="65.84" transform="translate(-21.69 44.01) rotate(-6.85)"/><rect class="cls-38" x="370.98" y="166.93" width="26.47" height="65.84" transform="translate(-21.1 47.26) rotate(-6.85)"/><rect class="cls-34" x="129.25" y="271.57" width="37.64" height="65.84" transform="translate(-35.27 19.84) rotate(-6.85)"/><rect class="cls-35" x="129.66" y="324.81" width="284.3" height="5.89" transform="translate(-37.16 34.77) rotate(-6.85)"/><rect class="cls-34" x="168.33" y="266.87" width="37.64" height="65.84" transform="translate(-34.43 24.47) rotate(-6.85)"/><rect class="cls-34" x="207.41" y="262.18" width="37.64" height="65.84" transform="translate(-33.59 29.1) rotate(-6.85)"/><rect class="cls-34" x="246.49" y="257.48" width="37.64" height="65.84" transform="translate(-32.75 33.73) rotate(-6.85)"/><rect class="cls-34" x="285.57" y="252.79" width="37.64" height="65.84" transform="translate(-31.91 38.36) rotate(-6.85)"/><rect class="cls-38" x="325.03" y="248.72" width="26.47" height="65.84" transform="translate(-31.18 42.37) rotate(-6.85)"/><rect class="cls-38" x="352.52" y="245.41" width="26.47" height="65.84" transform="translate(-30.59 45.62) rotate(-6.85)"/><rect class="cls-38" x="380.01" y="242.11" width="26.47" height="65.84" transform="translate(-30 48.88) rotate(-6.85)"/><rect class="cls-34" x="138.28" y="346.75" width="37.64" height="65.84" transform="translate(-44.17 21.45) rotate(-6.85)"/><rect class="cls-35" x="138.7" y="399.99" width="284.3" height="5.89" transform="translate(-46.07 36.38) rotate(-6.85)"/><rect class="cls-34" x="177.36" y="342.06" width="37.64" height="65.84" transform="translate(-43.33 26.08) rotate(-6.85)"/><rect class="cls-34" x="216.44" y="337.36" width="37.64" height="65.84" transform="translate(-42.5 30.71) rotate(-6.85)"/><rect class="cls-34" x="255.53" y="332.66" width="37.64" height="65.84" transform="translate(-41.66 35.34) rotate(-6.85)"/><rect class="cls-34" x="294.61" y="327.97" width="37.64" height="65.84" transform="translate(-40.82 39.97) rotate(-6.85)"/><rect class="cls-38" x="334.07" y="323.9" width="26.47" height="65.84" transform="translate(-40.09 43.98) rotate(-6.85)"/><rect class="cls-38" x="361.55" y="320.59" width="26.47" height="65.84" transform="translate(-39.5 47.24) rotate(-6.85)"/><rect class="cls-38" x="389.04" y="317.29" width="26.47" height="65.84" transform="translate(-38.91 50.49) rotate(-6.85)"/><rect class="cls-34" x="147.31" y="421.93" width="37.64" height="65.84" transform="translate(-53.08 23.07) rotate(-6.85)"/><rect class="cls-35" x="147.73" y="475.18" width="284.3" height="5.89" transform="translate(-54.97 38) rotate(-6.85)"/><rect class="cls-34" x="186.4" y="417.24" width="37.64" height="65.84" transform="translate(-52.24 27.7) rotate(-6.85)"/><rect class="cls-34" x="225.48" y="412.54" width="37.64" height="65.84" transform="translate(-51.4 32.33) rotate(-6.85)"/><rect class="cls-34" x="264.56" y="407.85" width="37.64" height="65.84" transform="translate(-50.56 36.96) rotate(-6.85)"/><rect class="cls-34" x="303.64" y="403.15" width="37.64" height="65.84" transform="translate(-49.72 41.58) rotate(-6.85)"/><rect class="cls-38" x="343.1" y="399.08" width="26.47" height="65.84" transform="translate(-48.99 45.6) rotate(-6.85)"/><rect class="cls-38" x="370.59" y="395.78" width="26.47" height="65.84" transform="translate(-48.4 48.85) rotate(-6.85)"/><rect class="cls-38" x="398.08" y="392.47" width="26.47" height="65.84" transform="translate(-47.81 52.11) rotate(-6.85)"/><rect class="cls-34" x="156.35" y="497.12" width="37.64" height="65.84" transform="translate(-61.98 24.68) rotate(-6.85)"/><rect class="cls-35" x="156.76" y="550.36" width="284.3" height="5.89" transform="translate(-63.88 39.61) rotate(-6.85)"/><rect class="cls-34" x="195.43" y="492.42" width="37.64" height="65.84" transform="translate(-61.14 29.31) rotate(-6.85)"/><rect class="cls-34" x="234.51" y="487.72" width="37.64" height="65.84" transform="translate(-60.3 33.94) rotate(-6.85)"/><rect class="cls-34" x="273.59" y="483.03" width="37.64" height="65.84" transform="translate(-59.47 38.57) rotate(-6.85)"/><rect class="cls-34" x="312.68" y="478.33" width="37.64" height="65.84" transform="translate(-58.63 43.2) rotate(-6.85)"/><rect class="cls-39" x="352.13" y="474.26" width="26.47" height="65.84" transform="translate(-57.9 47.21) rotate(-6.85)"/><rect class="cls-39" x="379.62" y="470.96" width="26.47" height="65.84" transform="translate(-57.31 50.47) rotate(-6.85)"/><rect class="cls-39" x="407.11" y="467.65" width="26.47" height="65.84" transform="translate(-56.72 53.72) rotate(-6.85)"/><rect class="cls-35" x="226.73" y="112.54" width="137.01" height="38.13" transform="translate(-13.59 36.16) rotate(-6.85)"/><rect class="cls-40" x="328.1" y="106.48" width="35.27" height="38.13" transform="translate(-12.51 42.14) rotate(-6.85)"/><rect class="cls-36" x="237.04" y="92.69" width="37.42" height="22.23" transform="translate(-10.56 31.25) rotate(-6.85)"/><rect class="cls-35" x="275.43" y="89.13" width="19.99" height="22.23" transform="translate(-9.92 34.77) rotate(-6.85)"/><ellipse class="cls-36" cx="342.85" cy="84.59" rx="8.52" ry="5.57" transform="translate(157.55 385.19) rotate(-72.21)"/><rect class="cls-36" x="344.58" y="84.26" width="1.36" height="19.91" transform="translate(-8.77 41.86) rotate(-6.85)"/><rect class="cls-36" x="355.12" y="83" width="1.36" height="19.91" transform="translate(-8.55 43.11) rotate(-6.85)"/><rect class="cls-36" x="297.23" y="104.91" width="60.57" height="1.46" transform="translate(-10.26 39.83) rotate(-6.85)"/><rect class="cls-36" x="330.42" y="101.37" width="27.07" height="1.55" transform="translate(-9.73 41.76) rotate(-6.85)"/><ellipse class="cls-35" cx="356.18" cy="90.4" rx="5.57" ry="8.52" transform="translate(0.43 182.48) rotate(-28.75)"/></g><path class="cls-41" d="M412.6,307.88l.7,5.85-2.05.24.5,4.14-27.45,3.3a14.73,14.73,0,0,0,1.9-9.29c0-.36-.09-.71-.16-1.05a15,15,0,0,0-29.66,3.56,9.68,9.68,0,0,0,.09,1.06,15,15,0,0,0,4.06,8.58l-26.12,3.13-3.29-27.35a15,15,0,1,1-2.72-22.65l-3.29-27.34,26.13-3.14A15,15,0,1,0,375,244.07l27.46-3.3,8.09,67.35Z"/><path class="cls-13" d="M415.35,268.42l-7.1-6.32L405,260.46l.41,2.17-2.55,1.51s-7.18-2.39-7.18-1.14,6,3.38,6,3.38-7.43-1.65-7.77-.69,5.63,2.48,7.15,3c0,0-1.83.43-7.19-.41-1.09-.18-1.66,1.18,1,1.92a22.59,22.59,0,0,0,6.36.56c2.34,0-1.67,1-5.32.7,0,0-1.37.71,0,1.17,1.76.59,5.73.34,5.73.34l7.11-.66h.76a6.36,6.36,0,0,0,5.7-3.52Z"/><path class="cls-31" d="M250.3,334.6a15,15,0,0,1-16.77,12.95,14.78,14.78,0,0,1-7-2.85l-3.3,25.69-27.43-3.52A15,15,0,1,0,172,363.82l-26.1-3.35,3.51-27.32a15,15,0,1,1,2.9-22.62l3.51-27.33L182,286.56a14.81,14.81,0,0,0-4.14,8.55,15,15,0,1,0,27.86-5.51l27.44,3.53-3.3,25.69A15,15,0,0,1,250.3,334.6Z"/><path class="cls-13" d="M95.7,224.85s-1.22,14.45-5.47,17.48-17.46-2-19.74,1.07-3.64,17.34-3,26.89S71,310.1,71,310.1l29,4.66s15.33-33.25,16.4-36,6.54-9.93,6.62-20.33c.06-7.26-15.43-10.5-15.43-10.5l.46-18S106.17,221.79,95.7,224.85Z"/><path class="cls-13" d="M107.59,243.84c.07,0,5.23,1.72,6.6.82s6.56-15.39,6.81-21.2c.27-6.25-6.57-11.54-14.76-11.27-8.73.28-12.59,7.89-12.21,14.3S99.51,232,99.51,232,101,243,107.59,243.84Z"/><path class="cls-24" d="M28.15,442.74l4.08,5,.1.1c.57.49,5.78,5,8.53,6.29.46.32.37,1.47.27,2.16a.8.8,0,0,0,.36.79c.18.12.36.26.39.39a3.4,3.4,0,0,1,.06.69.75.75,0,0,1-.25.6c-.63.58-2.49,1.9-6.13,1.81-4.63-.11-13.74-1.86-15.12-3.62a11.92,11.92,0,0,0-4-2.9l-.09,0c-.47-.15-4.56-1.44-4.84-2.45a3.93,3.93,0,0,1-.11-1.84l.56-.27s.05-2.25.22-3.88a.8.8,0,0,1,1.21-.61,5.61,5.61,0,0,0,3,.93c2-.07,5.24-.21,5.14-.9s.28-2.53,6-2.58A.83.83,0,0,1,28.15,442.74Z"/><path class="cls-42" d="M128.82,455.33c.72.13,3.66,4.65,3.66,4.65l-2.21,5.66-11,.77L117.91,458Z"/><path class="cls-24" d="M119.37,462.82a.74.74,0,0,0-.88.41,14.18,14.18,0,0,0-1.12,7.47.7.7,0,0,1-.22.11.74.74,0,0,0-.49.6c0,.31,0,.71,0,1.11a.72.72,0,0,0,.83.71c2.76-.4,8.61-1.48,15.46-2.33a38,38,0,0,0,7.79-2.34,75,75,0,0,0,10.95-5.89.73.73,0,0,0,.3-.88h0a.74.74,0,0,0-.64-.47l-.29,0a11.6,11.6,0,0,0-.57-3.46c-.85-.58-1.12-.25-2,.13s-9.85,1.81-10.92,2h-.22l-5.53-2.35a.75.75,0,0,0-.67,0l-1.9,1a.73.73,0,0,0-.37.53l-.26,1.55a.72.72,0,0,1-.61.6l-7.77,1.54A2.71,2.71,0,0,1,119.37,462.82Z"/><path class="cls-43" d="M107.84,316.63s17.27,60.76,17.7,69.45,1.33,58.2,4.17,70.13c0,0-10.9,4.17-12.18,4.05s-13.54-51.4-13.4-69.06c-3.17-8.82-15.46-46-15.46-46s-20,52.24-56.82,97.81c0,0-3.15,3.71-7.61,3.88a60.39,60.39,0,0,1-10.07-1A1.74,1.74,0,0,1,13,443.36c6.38-11.7,36.87-65.7,51.6-133.24C64.56,310.12,95.86,308.36,107.84,316.63Z"/><path class="cls-44" d="M119,251.6c4,1.22,7.06,6.1,9,14.14a155.27,155.27,0,0,0,6.32,18.35L162.63,301l-7.3,9.55L123,300.23l-12.75-35.76S107.26,248,119,251.6Z"/><path class="cls-42" d="M88.21,242.38l1.31-1.82,2,.44-.52.94,4.62,4.39,3.24,8,6.08-6.39,2.68-2,1,2.21S116.75,250,119,251.6s-1.22,17.86-1.22,17.86L108.16,317s-.93,3.63-14.16,3.63-19.26-4.83-19.26-4.83V259.9l2.13-17.35Z"/><path class="cls-44" d="M89,241.3l-4.3,1.08h-15s-5.13,3.39-6.55,8.71.58,40.29.58,40.29l-7.39,28s5.57,6.68,23.89,6.38c4.64-8.46,9.86-38,9.86-38Z"/><path class="cls-44" d="M107.75,246.34l1.53,2s8.36,1.33,11.55,3.24,3,4.7,3.06,6c.66,10.43-2.33,19.64-4.86,27.13s-5.87,41.91-5.87,41.91-5.47,2.73-16.7,1.82c.1-2,6.27-32.7,6.27-32.7a174.51,174.51,0,0,0,5.47-47.93C108.19,247.38,107.77,246.76,107.75,246.34Z"/><path class="cls-45" d="M86.69,243.38,75.22,263.6l4,2.51-4,4.78s8.16,46.5,8.44,44.6-6.92-44.2-6.92-44.2l4.63-5.48-4.55-3Z"/><path class="cls-45" d="M109.47,248.54l8.38,21.68-4.27,1.9,3.2,5.31s-18,40.26-18,38.34,16.46-38.17,16.46-38.17l-3.78-6.1,5-2.34Z"/><path class="cls-32" d="M249.68,317.14a15,15,0,0,1-16.77,12.95,14.78,14.78,0,0,1-7-2.85l-3.3,25.69-27.43-3.52a15,15,0,1,0-23.74-3.05L145.3,343l3.51-27.32a15,15,0,1,1,2.91-22.62l3.51-27.33,26.1,3.35a15,15,0,1,0,23.73,3.05l27.43,3.52-3.3,25.7a15,15,0,0,1,20.49,15.78Z"/><g class="cls-46"><g class="cls-47"><rect class="cls-6" x="110.87" y="154.29" width="37.64" height="65.84" transform="translate(24.9 -14.99) rotate(7.32)"/><rect class="cls-7" x="101.83" y="237.12" width="284.3" height="5.89" transform="translate(32.56 -29.12) rotate(7.32)"/><rect class="cls-8" x="105.87" y="139.93" width="207.41" height="22.25" transform="translate(20.95 -25.46) rotate(7.32)"/><rect class="cls-9" x="309.18" y="158.41" width="88.65" height="22.25" transform="translate(24.47 -43.64) rotate(7.32)"/><rect class="cls-6" x="149.91" y="159.31" width="37.64" height="65.84" transform="translate(25.86 -19.93) rotate(7.32)"/><rect class="cls-6" x="188.96" y="164.32" width="37.64" height="65.84" transform="translate(26.81 -24.86) rotate(7.32)"/><rect class="cls-6" x="228" y="169.33" width="37.64" height="65.84" transform="translate(27.77 -29.79) rotate(7.32)"/><rect class="cls-6" x="267.04" y="174.35" width="37.64" height="65.84" transform="translate(28.73 -34.72) rotate(7.32)"/><rect class="cls-10" x="306.47" y="178.69" width="26.47" height="65.84" transform="translate(29.56 -39) rotate(7.32)"/><rect class="cls-10" x="333.93" y="182.22" width="26.47" height="65.84" transform="translate(30.23 -42.47) rotate(7.32)"/><rect class="cls-10" x="361.39" y="185.75" width="26.47" height="65.84" transform="translate(30.9 -45.93) rotate(7.32)"/><rect class="cls-6" x="101.23" y="229.4" width="37.64" height="65.84" transform="translate(34.39 -13.15) rotate(7.32)"/><rect class="cls-7" x="92.19" y="312.23" width="284.3" height="5.89" transform="translate(42.05 -27.28) rotate(7.32)"/><rect class="cls-6" x="140.27" y="234.41" width="37.64" height="65.84" transform="translate(35.35 -18.09) rotate(7.32)"/><rect class="cls-6" x="179.31" y="239.43" width="37.64" height="65.84" transform="translate(36.3 -23.02) rotate(7.32)"/><rect class="cls-6" x="218.36" y="244.44" width="37.64" height="65.84" transform="translate(37.26 -27.95) rotate(7.32)"/><rect class="cls-6" x="257.4" y="249.45" width="37.64" height="65.84" transform="translate(38.21 -32.88) rotate(7.32)"/><rect class="cls-10" x="296.82" y="253.8" width="26.47" height="65.84" transform="translate(39.04 -37.16) rotate(7.32)"/><rect class="cls-10" x="324.28" y="257.33" width="26.47" height="65.84" transform="translate(39.72 -40.63) rotate(7.32)"/><rect class="cls-10" x="351.74" y="260.85" width="26.47" height="65.84" transform="translate(40.39 -44.09) rotate(7.32)"/><rect class="cls-6" x="91.58" y="304.51" width="37.64" height="65.84" transform="translate(43.88 -11.31) rotate(7.32)"/><rect class="cls-7" x="82.54" y="387.33" width="284.3" height="5.89" transform="translate(51.54 -25.44) rotate(7.32)"/><rect class="cls-6" x="130.63" y="309.52" width="37.64" height="65.84" transform="translate(44.83 -16.25) rotate(7.32)"/><rect class="cls-6" x="169.67" y="314.53" width="37.64" height="65.84" transform="translate(45.79 -21.18) rotate(7.32)"/><rect class="cls-6" x="208.71" y="319.55" width="37.64" height="65.84" transform="translate(46.75 -26.11) rotate(7.32)"/><rect class="cls-6" x="247.75" y="324.56" width="37.64" height="65.84" transform="translate(47.7 -31.04) rotate(7.32)"/><rect class="cls-10" x="287.18" y="328.91" width="26.47" height="65.84" transform="translate(48.53 -35.32) rotate(7.32)"/><rect class="cls-10" x="314.64" y="332.43" width="26.47" height="65.84" transform="translate(49.2 -38.79) rotate(7.32)"/><rect class="cls-10" x="342.1" y="335.96" width="26.47" height="65.84" transform="translate(49.88 -42.25) rotate(7.32)"/><rect class="cls-6" x="81.94" y="379.61" width="37.64" height="65.84" transform="translate(53.36 -9.47) rotate(7.32)"/><rect class="cls-7" x="72.9" y="462.44" width="284.3" height="5.89" transform="translate(61.03 -23.6) rotate(7.32)"/><rect class="cls-6" x="120.98" y="384.62" width="37.64" height="65.84" transform="translate(54.32 -14.41) rotate(7.32)"/><rect class="cls-6" x="160.02" y="389.64" width="37.64" height="65.84" transform="translate(55.28 -19.34) rotate(7.32)"/><rect class="cls-6" x="199.07" y="394.65" width="37.64" height="65.84" transform="translate(56.23 -24.27) rotate(7.32)"/><rect class="cls-6" x="238.11" y="399.67" width="37.64" height="65.84" transform="translate(57.19 -29.2) rotate(7.32)"/><rect class="cls-10" x="277.53" y="404.01" width="26.47" height="65.84" transform="translate(58.02 -33.48) rotate(7.32)"/><rect class="cls-10" x="304.99" y="407.54" width="26.47" height="65.84" transform="translate(58.69 -36.94) rotate(7.32)"/><rect class="cls-10" x="332.46" y="411.06" width="26.47" height="65.84" transform="translate(59.36 -40.41) rotate(7.32)"/><rect class="cls-6" x="72.29" y="454.72" width="37.64" height="65.84" transform="translate(62.85 -7.63) rotate(7.32)"/><rect class="cls-7" x="63.25" y="537.54" width="284.3" height="5.89" transform="translate(70.51 -21.76) rotate(7.32)"/><rect class="cls-6" x="111.34" y="459.73" width="37.64" height="65.84" transform="translate(63.81 -12.57) rotate(7.32)"/><rect class="cls-6" x="150.38" y="464.74" width="37.64" height="65.84" transform="translate(64.76 -17.5) rotate(7.32)"/><rect class="cls-6" x="189.42" y="469.76" width="37.64" height="65.84" transform="translate(65.72 -22.43) rotate(7.32)"/><rect class="cls-6" x="228.46" y="474.77" width="37.64" height="65.84" transform="translate(66.68 -27.36) rotate(7.32)"/><rect class="cls-11" x="267.89" y="479.12" width="26.47" height="65.84" transform="translate(67.51 -31.64) rotate(7.32)"/><rect class="cls-11" x="295.35" y="482.64" width="26.47" height="65.84" transform="translate(68.18 -35.1) rotate(7.32)"/><rect class="cls-11" x="322.81" y="486.17" width="26.47" height="65.84" transform="translate(68.85 -38.57) rotate(7.32)"/><rect class="cls-7" x="236.55" y="111.66" width="137.01" height="38.13" transform="translate(19.13 -37.79) rotate(7.32)"/><rect class="cls-12" x="337.88" y="118.14" width="35.27" height="38.13" transform="translate(20.37 -44.16) rotate(7.32)"/><rect class="cls-8" x="254.87" y="82.98" width="37.42" height="22.23" transform="translate(14.21 -34.08) rotate(7.32)"/><rect class="cls-7" x="293.23" y="86.79" width="19.99" height="22.23" transform="translate(14.94 -37.82) rotate(7.32)"/><ellipse class="cls-8" cx="362.73" cy="96.78" rx="8.52" ry="5.57" transform="matrix(0.53, -0.85, 0.85, 0.53, 88.61, 353.3)"/><rect class="cls-8" x="362.04" y="96.76" width="1.36" height="19.91" transform="translate(16.55 -45.33) rotate(7.32)"/><rect class="cls-8" x="372.56" y="98.11" width="1.36" height="19.91" transform="translate(16.8 -46.66) rotate(7.32)"/><rect class="cls-8" x="312.42" y="112.71" width="60.57" height="1.46" transform="translate(17.24 -42.73) rotate(7.32)"/><rect class="cls-8" x="345.98" y="113.31" width="27.07" height="1.55" transform="translate(17.46 -44.86) rotate(7.32)"/><ellipse class="cls-7" cx="374.24" cy="105.69" rx="5.57" ry="8.52" transform="translate(-14.55 97.63) rotate(-14.58)"/></g></g><path class="cls-41" d="M249.68,317.14a15,15,0,0,1-16.77,12.95,14.78,14.78,0,0,1-7-2.85l-3.3,25.69-27.43-3.52a15,15,0,1,0-23.74-3.05L145.3,343l3.51-27.32a15,15,0,1,1,2.91-22.62l3.51-27.33,26.1,3.35a15,15,0,1,0,23.73,3.05l27.43,3.52-3.3,25.7a15,15,0,0,1,20.49,15.78Z"/><path class="cls-13" d="M106.58,303.69l4.94-6.75,4.77,2.59,5.89-1.95,4-1.16-1.06,2.52,2.37,2.47s8.51-1.07,8.16.44-7.48,2.59-7.48,2.59,8.58-.13,8.68,1.13-6.84,1.59-8.64,1.79c0,0,1.88,1,8,1.32,1.25.07,1.48,1.85-1.6,2.08a22.75,22.75,0,0,1-7.09-.92c-2.56-.61,1.52,1.68,5.61,2.19,0,0,1.29,1.21-.33,1.42-2.09.27-6.36-1-6.36-1l-7.58-2.61-.83-.2c-1.95-.78-2.67-.71-3.95-2.54Z"/><polygon class="cls-42" points="111.52 296.94 114.62 298.61 110.74 307.07 102.09 303.69 111.52 296.94"/><path class="cls-48" d="M72.17,244c3.52,2.28,6,8.95,8.17,17C82.52,269.09,89,278.8,89,278.8l24.25,18.59-6.19,9.68-32-15.39a20.15,20.15,0,0,1-6.53-9.82l-7.66-25.72a9.94,9.94,0,0,1-.16-5.08C61.73,246.64,64.66,239.1,72.17,244Z"/><path class="cls-49" d="M103.42,223.45l-.45,5.1h-2.1s-.22-3.9-1-4.39-2.44-1.45-3.41,2.51.78,5.54.78,5.54L94,234.81s-.72,5.57-3,2.14c-1.58-2.43.08-4.19.2-5.74s-3.22-3.32-1.11-7.76-2.89-7.53,1.33-11.86,8.42-5.43,12-5.32a26.85,26.85,0,0,1,9.82,2.66c1.54.89,8,2.66,9.73,2.33s3.32,3.21,2.69,4.32-2.85,12.85-5.51,13a22.1,22.1,0,0,0,.34-6.93c-.52-2.88-1.77-4.26-3.55-3.49s-3.58,3.77-7,3.77A15.75,15.75,0,0,0,103.42,223.45Z"/></g></g></svg>