<svg xmlns="http://www.w3.org/2000/svg" viewBox="0 0 428.02 500.14"><defs><style>.cls-1{fill:#f9dbc2;}.cls-2{fill:#e4ebf6;}.cls-3{fill:#c8d2eb;}.cls-4{fill:#bbb2bf;}.cls-5{fill:#b2c0e3;}.cls-6{fill:none;stroke:#e87d24;stroke-linejoin:round;stroke-width:8.47px;}.cls-29,.cls-6{stroke-linecap:round;}.cls-7{fill:#85778f;}.cls-8{fill:#efaf1e;}.cls-9{fill:#57575d;}.cls-10{fill:#6a747c;}.cls-11{fill:#7d361f;}.cls-12{fill:#1e252c;}.cls-13{fill:#51141a;}.cls-14{fill:#e8b995;}.cls-15{fill:#c29965;}.cls-16{fill:#95989f;}.cls-17{fill:#fadbc2;}.cls-18{fill:#91554f;}.cls-19{fill:#531118;}.cls-20{fill:#7e351f;}.cls-21{fill:#a6a999;}.cls-22{fill:#525258;}.cls-23{fill:#c0955f;}.cls-24{fill:#91959b;}.cls-25{fill:#92563d;}.cls-26{fill:#3f4147;}.cls-27{fill:#b8884a;}.cls-28{fill:#a31c37;}.cls-29,.cls-30{fill:#67111b;}.cls-29{stroke:#1e252c;stroke-miterlimit:10;stroke-width:2px;}.cls-31{fill:#eec2a0;}.cls-32{fill:#962062;}.cls-33{fill:#02929e;}.cls-34{fill:#8e182f;}</style></defs><g id="Girl_Top" data-name="Girl Top"><polygon class="cls-1" points="201.45 245.1 148.91 245.1 148.91 210.83 107.01 210.83 107.01 275.35 75.75 275.35 75.75 500.14 186.16 500.14 186.16 337.85 201.45 337.85 201.45 245.1"/><polygon class="cls-1" points="289.18 219.53 341.72 219.53 341.72 185.29 383.62 185.29 383.62 249.75 414.88 249.75 414.88 474.36 304.48 474.36 304.48 433.36 289.18 433.36 289.18 219.53"/><rect class="cls-1" x="80.16" y="287.98" width="55.53" height="117.05"/><path class="cls-1" d="M11.53,474.87c0-.17,0-.33,0-.5a25.25,25.25,0,0,1,20.59-24.8,19.57,19.57,0,0,1,21.47-27.4c0-.29,0-.57,0-.85a27.47,27.47,0,0,1,51.68-13q.48,0,1,0A16.14,16.14,0,0,1,118.41,435h62.31a36.63,36.63,0,0,1,41.2-59.58,22.32,22.32,0,0,1,40.62-1,12.43,12.43,0,0,1,19.54,5.79,42.63,42.63,0,0,1,77.52,20.58,17.93,17.93,0,0,1,9.2,9.36,25,25,0,0,1,4.61-.43,25.28,25.28,0,0,1,23.19,15.22l.73,0A19.11,19.11,0,0,1,416.44,444a20.07,20.07,0,0,1-.22,2.92A27.3,27.3,0,0,1,428,469.41a28,28,0,0,1-.54,5.46Zm336-40.54-.66.66h1.23c0-.17,0-.34,0-.5Z"/><polygon class="cls-1" points="343.5 261 343.5 161.49 288.95 161.49 288.95 204.11 276 204.11 276 0 229.74 0 221.45 0 175.19 0 175.19 155.3 161.39 155.3 161.39 500.14 175.19 500.14 215.94 500.14 221.45 500.14 229.74 500.14 261.67 500.14 276 500.14 288.95 500.14 316.22 500.14 330.55 500.14 343.5 500.14 385.1 500.14 385.1 261 343.5 261"/><polygon class="cls-1" points="69.64 303.84 12.45 303.84 12.45 500.14 69.64 500.14 78.29 500.14 135.49 500.14 135.49 81.8 69.64 81.8 69.64 303.84"/><polyline class="cls-1" points="27.37 438.4 103.44 327.08 154.1 398.02 242.23 259.15 267.03 294.62 283.11 277.69 322.97 323.48 380.31 219.47"/><path class="cls-1" d="M411.92,500.14c0-.16,0-.32,0-.49a25,25,0,0,0-20.36-24.53A19.36,19.36,0,0,0,374,447.67a19.77,19.77,0,0,0-3.63.35c0-.28,0-.56,0-.84a27.16,27.16,0,0,0-51.1-12.82c-.32,0-.63,0-.95,0a16,16,0,0,0-12.1,26.37H244.59a36.23,36.23,0,0,0-40.76-58.92,22.06,22.06,0,0,0-40.16-1,12.28,12.28,0,0,0-19.33,5.73,42.16,42.16,0,0,0-76.67,20.35,17.76,17.76,0,0,0-9.1,9.25,25.36,25.36,0,0,0-4.56-.42,25,25,0,0,0-22.94,15.05l-.71,0a18.9,18.9,0,0,0-18.9,18.9,18.25,18.25,0,0,0,.22,2.88A27,27,0,0,0,0,494.75a27.29,27.29,0,0,0,.54,5.39ZM79.59,460.05l.65.65H79c0-.17,0-.33,0-.5C79.2,460.16,79.4,460.11,79.59,460.05Z"/><rect class="cls-1" x="23.78" y="422.99" width="87.19" height="77.15"/><rect class="cls-1" x="136.71" y="384.88" width="87.19" height="115.26"/><rect class="cls-1" x="249.64" y="331.88" width="87.19" height="168.27"/><path class="cls-1" d="M146.07,174a5.49,5.49,0,0,0-1.6,2.64l-2.66,7.84a2.41,2.41,0,0,1-1.69,1.92l-25.41,8.27a14.73,14.73,0,0,1-4.93.72l-6.68-.14h-.4l-.63-2.16L95.67,195l-.51-1.75-1,.29-1-3.56,35.83-11.7a.88.88,0,1,0-.55-1.68L53.83,200.93a.88.88,0,0,0,.55,1.68l36.26-11.83,1,3.48-1.61.47-1.05,4a14.64,14.64,0,0,0-9.07,17.8h0c1.3,4.46,6.42,5.15,11.41,4.49l.41-.07v4a15.54,15.54,0,0,1-7.77-.4l-3.23-1a.85.85,0,0,0-1.06.56.83.83,0,0,0,.56,1l3.22,1a17.29,17.29,0,0,0,10.05.11c.28-.08.57-.17.85-.27l23.51-8.29a6.8,6.8,0,0,0,3.86-3.34l.63-1.23A.83.83,0,0,0,122,212a.84.84,0,0,0-1.14.36l-.63,1.22a5.11,5.11,0,0,1-2.91,2.53l-2.45.86-3.31-3.48a6.14,6.14,0,0,0,2-6.43l1.76-6.24,32.92-13.1a8,8,0,0,1-.32-1.75l-.15-10.8A1.31,1.31,0,0,0,146.07,174ZM93.8,224.42l-.37.11v-3.91a31.75,31.75,0,0,0,4.86-1.5l11.82-4.71,3,3.2Z"/><path class="cls-1" d="M264.22,325.89l-6.57-4.24-5.32,2.72s1.1,2.77,1.38,2.57,9.76.06,9.76.06Z"/><polygon class="cls-1" points="259.07 322.11 280.9 328.99 280.9 331.88 246.76 331.88 247.96 327 254.82 323.98 261.89 325.89 257.41 322.84 259.07 322.11"/><path class="cls-1" d="M225.38,203.68s56.81,26.42,58.21,39.07c.06,11.09-23.08,79.36-23.08,79.36l-13.75,9.77s9.06-78.35,13.52-81.81l-33.64-12.86a6,6,0,0,0-7,.89C210,313,204,355.46,193.89,378.93l-6.11-2.7-10.85,7.85s16-85.27,10.48-156.62C176.26,188.88,225.38,203.68,225.38,203.68Z"/><path class="cls-1" d="M213.43,126.19s-8.49-4-14.89-1-2.74,15.69-2.74,15.69l30.84,6.41-3.41-8.4S216.6,128.26,213.43,126.19Z"/><path class="cls-1" d="M216.87,104.3s-2.36,15.86-4,26.94c0,0,9.86,2.44,14.85,6.43s-.45,33.15-.45,33.15-14.41-12.09-26.82-6.77S184.35,155,185.91,148s4.54-18,14.07-17.73a54.78,54.78,0,0,0,.89-11.42C200.54,113.84,206.68,90.89,216.87,104.3Z"/><path class="cls-1" d="M203.31,120.12s-4.77,5.62-1.05,7.41,7.42-2,9.42-4.16c2.88-3.19,3.43-9.09,3.43-9.09Z"/><path class="cls-1" d="M196.27,108.49c.38,2.46-.77,4.68-2.58,5s-3.64-2.42-4-4.88.84-3.75,2.65-4S195.89,106,196.27,108.49Z"/><path class="cls-1" d="M212.92,108.25c-.38,2.46.77,4.68,2.58,5s3.64-2.42,4-4.88-.84-3.75-2.65-4S213.3,105.79,212.92,108.25Z"/><path class="cls-1" d="M216.33,107.74c0,9.93-6.32,17.48-13.38,17.48s-12.8-10.5-12.8-20.43,5.73-15.51,12.8-15.51S216.33,97.82,216.33,107.74Z"/><path class="cls-1" d="M200,130.25s-1.6,4.43,8.87,5.26,4-4.27,4-4.27,3.79-.1,18.61,7.43c2.68,1.36-2.91,52,.48,67.28,1.32,6-29.89,17.83-36.67,7.35-2.37-3.65-10.86-61-10.86-61S171.82,124.12,200,130.25Z"/><path class="cls-1" d="M217.41,93.57s.05-5.78-2.45-5.32c-3.1-2.66-9.51-5.34-18.62-2.12s-12.21,3.21-13.09,2-1.67,3.33,2.32,4.88c0,0,0,1.44-1.22,1.11,0,0,1,3.68,2.89,3.89s.06,2.57,2.91,11.75c0,0-.59-9.1,1.3-9.88,0,0,5.76-8.75,20.19-1.19,0,0-1.27,11.3,1.21,11.07s2.89-5,2.89-5,.75-.58,1.13-.49C219.94,105.08,217.41,93.57,217.41,93.57Z"/><path class="cls-1" d="M213.43,108.85l2.79,11.1a1.42,1.42,0,0,0,1.72.69c1.22-.35,10.75-7.42,10.75-7.42L226.64,105l-12.13,2.43S213.12,107.63,213.43,108.85Z"/><path class="cls-1" d="M238.74,133.85c-1.26-1.81-11.05-21-11.05-21V105l-3.82-5.54-5.39,3.38-2.26,2.88,2.19-.29s-.35,6.42,1.72,8.8a8.86,8.86,0,0,0,2.12,1.42c3.14,3.49,7.93,20.53,7.93,20.53Z"/><path class="cls-1" d="M150.82,144.85l8.9,35.27s11,5,12-2.85-11.56-27.33-11.56-27.33l-3.07-9.41a23.06,23.06,0,0,0,.91-5.48c-.08-2,.17-7.24.17-7.24l-1.41-1.15-1.58,4.08-.42-3.48s1.83-7.44,1.75-8.52-1.67-3-1.67-3l-1.33,4s.09-2.88-1.91-3.13l-1.16,4.9-.75,7.49A79.64,79.64,0,0,0,150.82,144.85Z"/><path class="cls-1" d="M193.89,127.53s-10,2.66-14,4.57a10.43,10.43,0,0,0-4.79,4.61l-6.82,23.83-6.93-12.89s-3.49,6.15-9.48,6.82l10.81,35.37s5,7.19,11,4,8.93-17.62,8.93-17.62l3,25.93-5.15,18.89s14.63,16.36,24.94,11.54c.5-7.15,2.16-67-3.66-83.89-3.32-10.38-3.16-23.5-3.16-23.5Z"/><path class="cls-1" d="M214.84,128.69s6.35,6.86,4.75,15.74,7.51,52.59,12.33,62.4a23.94,23.94,0,0,0,5.14,2.75c9.31,5.66,5,2.73,4.55.75-.17-.6-9.86-26.27-9.86-26.27l2.54-21.8s5,3.68,9.15,3.35c1.3-.11,4.94-5.07,4.49-10.16-1-11.1-8.6-27.82-11.81-31.58-4.69-5.49-9.48,1.35-9.48,1.35l1.34,5.46-8.39-.49-6.16-4Z"/><polygon class="cls-1" points="193.89 127.53 185.99 155.44 193.89 154.13 188.57 161.12 205.97 203.68 185.99 162.61 191.84 155.46 184.58 156.35 193.89 127.53"/><polygon class="cls-1" points="219.59 130.19 229.59 154.67 221.6 155.22 228.4 160.78 228.6 197.33 229.8 160.54 223.91 156.04 231.17 155.22 219.59 130.19"/><path class="cls-1" d="M191.84,375.88l9.7,5.88v3.12H176.79l.14-2,1-4.48s-.22,1.31.66,1.31c1.11,0,3-2.32,4.27-3.32A7.13,7.13,0,0,1,191.84,375.88Z"/><path class="cls-1" d="M192,275.94s-.66,15-.66,26.65a56,56,0,0,1,11.48,6.72c5,4-.45,33.14-.45,33.14s-14.41-12.08-26.82-6.76S159.48,326.6,161,319.62s4.54-18,14.08-17.74c0,0,.33-19.47,0-24.45S187.52,269.2,192,275.94Z"/><path class="cls-1" d="M174.33,290.28s0,10.53,9.64,11.43c8.76,0,7.37-12.65,7.37-12.65Z"/><path class="cls-1" d="M173.64,281.91c.38,2.46-.78,4.68-2.58,5s-3.65-2.41-4-4.87.85-3.76,2.65-4S173.26,279.45,173.64,281.91Z"/><path class="cls-1" d="M190.81,281.44c-.38,2.46.78,4.68,2.58,5s3.65-2.42,4-4.88-.85-3.75-2.65-4S191.19,279,190.81,281.44Z"/><path class="cls-1" d="M174.66,298.12c-.81.73-.89,2.12-1.43,3.1-4.06.4-12.46.36-15.43,2.28-4.12,2.66.9,47.11,0,51.21s46-1.44,46-1.44l2.11-48.66L194.72,301l-3.35-3.31a27.39,27.39,0,0,1-7.51,9.56Z"/><path class="cls-1" d="M195.34,280.24c0,9.93-6.32,17.48-13.39,17.48s-12.8-10.5-12.8-20.42,5.73-15.52,12.8-15.52S195.34,270.32,195.34,280.24Z"/><path class="cls-1" d="M148.31,349.5s3.07,10.14,9.14,13.55,6.15-5.73,6.15-5.73L158,340.52S147.06,336,148.31,349.5Z"/><path class="cls-1" d="M157.8,303.5s-12.57,10.75-11.74,26.21.19,20.79,3.42,24.28c0,0-2.09-12.8,7.89-9.81l2,3a3.82,3.82,0,0,0,1.33-4.72c-1.33-2.93-.83-12.07-.83-12.07Z"/><path class="cls-1" d="M215.27,350.58s-3.07,10.14-9.14,13.55S200,358.4,200,358.4l5.65-16.8S216.52,337.11,215.27,350.58Z"/><path class="cls-1" d="M205.78,304.58s12.57,10.75,11.74,26.22-.19,20.78-3.42,24.27c0,0,2.09-12.8-7.89-9.81l-2,3a3.82,3.82,0,0,1-1.33-4.72c1.33-2.92.83-12.07.83-12.07Z"/><path class="cls-1" d="M183.86,307.28,181,311.7l2.63,3.11s.8,28.21-3,35.85c0,0,4.35,4.5,4.86,4.46s6.44-5.29,6.61-5.79-1-19.74-6.79-34.66l1.25-3.66Z"/><path class="cls-1" d="M196.35,272c-.38-2.24-.71-1.24-.82-2.85s.05-3.69-1.42-4.41a8.76,8.76,0,0,1-3.68-2.92c-1.78-2-2.61-3.81-5.68-3.51s-.72-1-5.55-.27-3.86,1.13-5.49,1.94-2,1-2.46,2.35.11,2.27-1.74,3.69-2.61,3.27-1.89,4.38.89,3.29,0,4-.3,4.24.42,4.32-.26-.58,1.67-.7c0,0,.83-.63,1.38,8.9a34.8,34.8,0,0,0,.83,5.62c.66,2.7,5.55,8.78,11,8s11.3-2.37,11.24-5.12,1.07-17.81,1.07-17.81a1.32,1.32,0,0,1,1.17.6A30.72,30.72,0,0,0,196.35,272Zm-10.66,21.45c-1.09.22-1.63-.55-3.45.11a1.25,1.25,0,0,1-.25.09,2.38,2.38,0,0,1-2.94-1.22l-.18-.36c.33-.23,3.87-.66,3.94-2.35,0,0,.5,1.74,4,2C186.85,291.64,186.78,293.19,185.69,293.41Zm8.42-9s-2.93,5.52-5.15,5.3-.32-1.81-6.09-1.7-5.5,2.44-5.5,2.44-4.44-2.12-5.22-4-.61-8-.61-8,2.1.39,2.17-3.38,0-4.65,0-4.65a7,7,0,0,0,5.16.88c2.55-.77,2.88,2.66,5.54.34s2.09,1.74,3.31.53,2.46,1.18,3.7,0c1.53-1.45.06,6.32,2.69,6.35Z"/><path class="cls-1" d="M154,362s-9.31,19.95-1.33,22.11,53.21.8,53.21.8,3.25-13.1,0-19.25-24.88-3-24.88-3Z"/><path class="cls-1" d="M160.94,331.85a3.07,3.07,0,0,0-3,2.66c-1.06,7.95-4.12,31.12-3.71,31.12h51.71l6.51-30.55a3.08,3.08,0,0,0-3-3.72Z"/><ellipse class="cls-1" cx="184.14" cy="351.33" rx="6.6" ry="4.16"/><polygon class="cls-1" points="177.24 441.03 177.65 451.26 168.59 454.5 167.26 450.93 166.84 442.51 177.24 441.03"/><path class="cls-1" d="M167.18,444.94c-.83,7.26-2.5,17.4-2.5,21.78s6.65,9,11,8.31a9.36,9.36,0,0,0,7.31-7.48c.87-5.26-2.75-6.87-3.82-14.63-.8-5.8-.16-9.1-2-10.64-.51-.43.86,4.18-.81,7.6-1.33-1.37-1.33-1.37-3.56-.84a4.92,4.92,0,0,0-3.28,3C168.29,450.78,167.21,448.53,167.18,444.94Z"/><polygon class="cls-1" points="187.51 441.87 188.27 452.08 197.64 454.27 198.55 450.56 198.01 442.16 187.51 441.87"/><path class="cls-1" d="M198,444.61c1.66,7.12,4.46,17,5,21.35s-5.57,9.68-9.95,9.51a9.34,9.34,0,0,1-8.12-6.6c-1.46-5.13,1.95-7.14,2.13-15,.14-5.86-.88-9.06.77-10.8.46-.49-.37,4.25,1.67,7.46,1.17-1.51,1.17-1.51,3.45-1.24a4.93,4.93,0,0,1,3.59,2.57C197.51,450.54,198.33,448.18,198,444.61Z"/><path class="cls-1" d="M177.15,371.57c-1.11-2.09-4.48-8.4-9.14-8.44-6,0-10.15,10.23-10.81,11.85-3.67,9-2.53,17.42,1.17,36.06,2.1,10.6,4.67,22.71,7.81,36.06l12.14-2.33A270.81,270.81,0,0,1,179,409.6C180.4,393,182.9,382.34,177.15,371.57Z"/><path class="cls-1" d="M187.23,371.48c1.11-2.08,4.48-8.39,9.14-8.43,6-.05,10.16,10.23,10.81,11.84,3.67,9,2.53,17.42-1.16,36.07-2.1,10.59-4.68,22.71-7.82,36.06l-12.13-2.33a272.24,272.24,0,0,0-.67-35.17C184,392.89,181.48,382.26,187.23,371.48Z"/><path class="cls-1" d="M372.3,100.76,424.42,128a4.27,4.27,0,0,1-1.53,8l-57.54,6Z"/><line class="cls-1" x1="372.76" y1="98.01" x2="333.39" y2="331.88"/><path class="cls-1" d="M280.68,95.55S274.92,97,276,105.64s4,17.73-3.42,19.73c0,0,3.24,2.21,7.43-.56a3.37,3.37,0,0,1-1.67,3.88s9.41-.44,11.84-8,1.59,3.33,8.17,5,12.12,1.22,13.23.22c0,0-7.59-1.8-8.28-5.17,0,0,3.4,3.07,6.28,2.62,0,0-5.87-3.54-6.82-6.76s1.87-4.43,1.81-9.64,3.6-15.3-6.22-16.08S280.68,95.55,280.68,95.55Z"/><path class="cls-1" d="M283.08,101.9c.35,2.27-.71,4.32-2.37,4.58s-3.37-2.23-3.72-4.5.78-3.46,2.45-3.72S282.73,99.63,283.08,101.9Z"/><path class="cls-1" d="M298.44,101.68c-.35,2.27.72,4.32,2.38,4.57s3.36-2.22,3.72-4.49-.78-3.47-2.45-3.72S298.79,99.41,298.44,101.68Z"/><path class="cls-1" d="M258.09,157.81h0c-1.9-1.76-2.33-4.43-1-6.09l16.46-20.4c2-2.5,6.13-2.36,9,.3h0c2.86,2.67,3.28,6.76.92,8.95l-19.23,17.81C262.67,159.83,260,159.58,258.09,157.81Z"/><path class="cls-1" d="M359,157.52h0a4.21,4.21,0,0,1-4.71,3.34l-27.83-3.35a5.88,5.88,0,0,1-5.22-6.75h0a5.87,5.87,0,0,1,7.23-4.52l27.28,6.51A4.2,4.2,0,0,1,359,157.52Z"/><path class="cls-1" d="M327.7,154.15h0a4.67,4.67,0,0,1-6.41-.17l-22.5-21.58a6.53,6.53,0,0,1-.12-9.48h0a6.52,6.52,0,0,1,9.44.82l19.89,24A4.67,4.67,0,0,1,327.7,154.15Z"/><path class="cls-1" d="M355.75,152.75l7.4-5.1,5.65,1.07a1.4,1.4,0,0,1-.33,1.48s2.58.91,2.41,2.55-1,10.69-3.07,10.69-8.07-.91-8.07-.91l-5.45-1.67S348.34,157.84,355.75,152.75Z"/><path class="cls-1" d="M284.67,108.63s.75,11.11.75,14.22-7.84,5.29-10.28,8.39,4,19.55,4,19.55l7,20.14-3.54,14.85s25.49,3.1,25.49-2.22,1.55-31.26,1.55-31.26l3.64-4.89a6.35,6.35,0,0,0,1.17-5,31.13,31.13,0,0,0-1.11-4.29l-5.34-14.25a4.86,4.86,0,0,0-4.75-3.15l-6.77.29-2.19-12.41Z"/><path class="cls-1" d="M302.79,98.49c0,9.16-5.28,18.85-11.8,18.85s-11.81-9.69-11.81-18.85S284.47,84.18,291,84.18,302.79,89.34,302.79,98.49Z"/><path class="cls-1" d="M301.49,85.21a16.79,16.79,0,0,0-12.25-5.57c-8-.16-10.22,5-11.47,8.4s.17,5.57-2.74,8.81l1.16.52c-.75.64-1.6,2.26-3.32,2.64-2.58-.16,15.38,5.82,21.36-5.49a9.07,9.07,0,0,1,.17,4.74s3.63-2.16,4-4.15c0,0,1.17,5.48,7.66,8.89-.76-1.51,0-1.79-.29-4.47s-.79-2.37-.29-4.76C307,90.53,305,86,301.49,85.21Z"/><path class="cls-1" d="M287.22,325.1h0c-1.66,0-3.09-3.32-3.25-7.62L279.88,259c-.34-8,2.45-14.71,6.09-14.76h0c3.64-.06,6.64,6.61,6.54,14.57l-2.26,58.59C290.21,321.69,288.89,325.07,287.22,325.1Z"/><path class="cls-1" d="M287.39,255.38h0c-4-.13-7.12-4.26-7.18-9.41l-1.32-45.26c-.09-7.77,4.91-14.16,10.91-14h0c6,.21,10.54,6.93,9.91,14.68l-4.5,45.05C294.8,251.63,291.37,255.52,287.39,255.38Z"/><path class="cls-1" d="M284.38,312.91h4.43l12.3,15.92c.68.88.24,2.49-.67,2.49H288a1,1,0,0,1-.85-.68l-3.09-6.06a5,5,0,0,1-.48-2.66Z"/><path class="cls-1" d="M284,313.48s.65,12.45,7.85,12.29c7.65-.18-2.59-12.31-2.59-12.31l12.53,15.93c1,.88.37,3.64-6.61,3.64s-8-1.41-8.24-1.84l-1.19-3.32v.69l-1,.08-.57-.48-1.2-8.57Z"/><path class="cls-1" d="M299.85,323.58h0c-1.55-.26-2.35-3.37-1.83-7.1l5.4-50.93c.93-6.89,4.58-12.23,8-11.67h0c3.39.56,5.12,6.79,3.78,13.61l-11.3,50C303.16,321.15,301.4,323.83,299.85,323.58Z"/><path class="cls-1" d="M313.46,261.48h0c-3.32.31-6.48-4-7.22-9.82L299,200.56c-1.12-8.8,2.15-16.61,7.16-17.08h0c5-.47,9.67,6.61,10.19,15.46l2.37,51.55C319.09,256.35,316.77,261.17,313.46,261.48Z"/><path class="cls-1" d="M298.34,313.46h5.79l17.54,15.93a1.43,1.43,0,0,1-1,2.49l-16.25-3.19c-.5,0-3.93-2.79-4.19-3.22l-2.86-.34a3.72,3.72,0,0,1-.69-2.66Z"/><path class="cls-1" d="M297.4,316.85s7.86,9.87,14.65,7.13c3.19-.86-3-6.06-3-6.06l12.62,11.47a1.43,1.43,0,0,1-1,2.49H309.92a6.33,6.33,0,0,1-2.36-.69l-5.44-3.25.15,3.94h-1.08l-3.78-6.75a3.72,3.72,0,0,1-.69-2.66Z"/><path class="cls-1" d="M284.05,184.44s-10,14.87-1.3,23.11,31.93.18,31.89-3.58-3.2-17.38-9.25-21.32S284.05,184.44,284.05,184.44Z"/><path class="cls-1" d="M284.05,184.44s-3.59,3.33-5.16,11.76.74,43.49-.84,48-1.23,15.94.3,27.91S281.79,302,281.79,302s7.43,6.57,10.09.14l3.68-50.19,5.36-30.86,1.87,32.74s-4,5.68-3,21.7a161,161,0,0,1-1,25.73s1.22,5.53,10.59,1.37l9.87-47.22s2.89-43.23-1.36-60.3c-2.59-10.4-8.48-13.82-8.48-13.82S289.15,178.3,284.05,184.44Z"/><path class="cls-1" d="M284.77,181.64h0a4.21,4.21,0,0,1-5.76-.4L259.63,161a5.86,5.86,0,0,1,.25-8.52h0a5.87,5.87,0,0,1,8.46,1.1l16,24.46C285.71,179.83,286.43,180.22,284.77,181.64Z"/><path class="cls-1" d="M284.67,123.87s2.66,3,8.54.72,4.15-3.93,4.15-3.93,6.92-1.28,8.68.1,19.09,23.4,20.31,24.17,9.2,2.72,9.2,2.72a4.55,4.55,0,0,0-4.1,4.82,7.17,7.17,0,0,0,2.94,6.32l-10.81-1.5-8.94-10.22s1,4.19-2,5.7l-1.22,32.7a61.46,61.46,0,0,1-10.2,4.36c-10.25,3.54-18.56-4.05-18.56-4.05L284,175a28,28,0,0,0-1.11-12l-5.28-16.53-8.61,8,6.19,9.6-6.67,6.24s-11.74-8.81-12.9-14.95,16.17-23.87,20.4-25.81A46,46,0,0,0,284.67,123.87Z"/><path class="cls-1" d="M285.18,174.79l-1.72-.07L280,181.84a6.24,6.24,0,0,0,.67,6.55l.54.7a1.92,1.92,0,0,0,3.19-.22l2.95-5.12a3,3,0,0,0,.22-2.59Z"/><path class="cls-1" d="M309.72,152.3s-14.16,2.44-17.61,12.86c0,0,8.7-5.75,13.07-7S309.72,152.3,309.72,152.3Z"/><polygon class="cls-1" points="277.62 146.49 283.15 142.89 281.9 148.65 286.18 147.09 285.34 170.65 277.62 146.49"/><polygon class="cls-2" points="201.45 245.1 148.91 245.1 148.91 210.83 107.01 210.83 107.01 275.35 75.75 275.35 75.75 500.14 186.16 500.14 186.16 337.85 201.45 337.85 201.45 245.1"/><polygon class="cls-2" points="289.18 219.53 341.72 219.53 341.72 185.29 383.62 185.29 383.62 249.75 414.88 249.75 414.88 474.36 304.48 474.36 304.48 433.36 289.18 433.36 289.18 219.53"/><rect class="cls-3" x="80.16" y="287.98" width="55.53" height="117.05"/><path class="cls-4" d="M11.53,474.87c0-.17,0-.33,0-.5a25.25,25.25,0,0,1,20.59-24.8,19.57,19.57,0,0,1,21.47-27.4c0-.29,0-.57,0-.85a27.47,27.47,0,0,1,51.68-13q.48,0,1,0A16.14,16.14,0,0,1,118.41,435h62.31a36.63,36.63,0,0,1,41.2-59.58,22.32,22.32,0,0,1,40.62-1,12.43,12.43,0,0,1,19.54,5.79,42.63,42.63,0,0,1,77.52,20.58,17.93,17.93,0,0,1,9.2,9.36,25,25,0,0,1,4.61-.43,25.28,25.28,0,0,1,23.19,15.22l.73,0A19.11,19.11,0,0,1,416.44,444a20.07,20.07,0,0,1-.22,2.92A27.3,27.3,0,0,1,428,469.41a28,28,0,0,1-.54,5.46Zm336-40.54-.66.66h1.23c0-.17,0-.34,0-.5Z"/><polygon class="cls-5" points="343.5 261 343.5 161.49 288.95 161.49 288.95 204.11 276 204.11 276 0 229.74 0 221.45 0 175.19 0 175.19 155.3 161.39 155.3 161.39 500.14 175.19 500.14 215.94 500.14 221.45 500.14 229.74 500.14 261.67 500.14 276 500.14 288.95 500.14 316.22 500.14 330.55 500.14 343.5 500.14 385.1 500.14 385.1 261 343.5 261"/><polygon class="cls-5" points="69.64 303.84 12.45 303.84 12.45 500.14 69.64 500.14 78.29 500.14 135.49 500.14 135.49 81.8 69.64 81.8 69.64 303.84"/><polyline class="cls-6" points="27.37 438.4 103.44 327.08 154.1 398.02 242.23 259.15 267.03 294.62 283.11 277.69 322.97 323.48 380.31 219.47"/><path class="cls-7" d="M411.92,500.14c0-.16,0-.32,0-.49a25,25,0,0,0-20.36-24.53A19.36,19.36,0,0,0,374,447.67a19.77,19.77,0,0,0-3.63.35c0-.28,0-.56,0-.84a27.16,27.16,0,0,0-51.1-12.82c-.32,0-.63,0-.95,0a16,16,0,0,0-12.1,26.37H244.59a36.23,36.23,0,0,0-40.76-58.92,22.06,22.06,0,0,0-40.16-1,12.28,12.28,0,0,0-19.33,5.73,42.16,42.16,0,0,0-76.67,20.35,17.76,17.76,0,0,0-9.1,9.25,25.36,25.36,0,0,0-4.56-.42,25,25,0,0,0-22.94,15.05l-.71,0a18.9,18.9,0,0,0-18.9,18.9,18.25,18.25,0,0,0,.22,2.88A27,27,0,0,0,0,494.75a27.29,27.29,0,0,0,.54,5.39ZM79.59,460.05l.65.65H79c0-.17,0-.33,0-.5C79.2,460.16,79.4,460.11,79.59,460.05Z"/><rect class="cls-8" x="23.78" y="422.99" width="87.19" height="77.15"/><rect class="cls-8" x="136.71" y="384.88" width="87.19" height="115.26"/><rect class="cls-8" x="249.64" y="331.88" width="87.19" height="168.27"/><path class="cls-9" d="M146.07,174a5.49,5.49,0,0,0-1.6,2.64l-2.66,7.84a2.41,2.41,0,0,1-1.69,1.92l-25.41,8.27a14.73,14.73,0,0,1-4.93.72l-6.68-.14h-.4l-.63-2.16L95.67,195l-.51-1.75-1,.29-1-3.56,35.83-11.7a.88.88,0,1,0-.55-1.68L53.83,200.93a.88.88,0,0,0,.55,1.68l36.26-11.83,1,3.48-1.61.47-1.05,4a14.64,14.64,0,0,0-9.07,17.8h0c1.3,4.46,6.42,5.15,11.41,4.49l.41-.07v4a15.54,15.54,0,0,1-7.77-.4l-3.23-1a.85.85,0,0,0-1.06.56.83.83,0,0,0,.56,1l3.22,1a17.29,17.29,0,0,0,10.05.11c.28-.08.57-.17.85-.27l23.51-8.29a6.8,6.8,0,0,0,3.86-3.34l.63-1.23A.83.83,0,0,0,122,212a.84.84,0,0,0-1.14.36l-.63,1.22a5.11,5.11,0,0,1-2.91,2.53l-2.45.86-3.31-3.48a6.14,6.14,0,0,0,2-6.43l1.76-6.24,32.92-13.1a8,8,0,0,1-.32-1.75l-.15-10.8A1.31,1.31,0,0,0,146.07,174ZM93.8,224.42l-.37.11v-3.91a31.75,31.75,0,0,0,4.86-1.5l11.82-4.71,3,3.2Z"/><path class="cls-10" d="M264.22,325.89l-6.57-4.24-5.32,2.72s1.1,2.77,1.38,2.57,9.76.06,9.76.06Z"/><polygon class="cls-11" points="259.07 322.11 280.9 328.99 280.9 331.88 246.76 331.88 247.96 327 254.82 323.98 261.89 325.89 257.41 322.84 259.07 322.11"/><path class="cls-12" d="M225.38,203.68s56.81,26.42,58.21,39.07c.06,11.09-23.08,79.36-23.08,79.36l-13.75,9.77s9.06-78.35,13.52-81.81l-33.64-12.86a6,6,0,0,0-7,.89C210,313,204,355.46,193.89,378.93l-6.11-2.7-10.85,7.85s16-85.27,10.48-156.62C176.26,188.88,225.38,203.68,225.38,203.68Z"/><path class="cls-13" d="M213.43,126.19s-8.49-4-14.89-1-2.74,15.69-2.74,15.69l30.84,6.41-3.41-8.4S216.6,128.26,213.43,126.19Z"/><path class="cls-1" d="M216.87,104.3s-2.36,15.86-4,26.94c0,0,9.86,2.44,14.85,6.43s-.45,33.15-.45,33.15-14.41-12.09-26.82-6.77S184.35,155,185.91,148s4.54-18,14.07-17.73a54.78,54.78,0,0,0,.89-11.42C200.54,113.84,206.68,90.89,216.87,104.3Z"/><path class="cls-14" d="M203.31,120.12s-4.77,5.62-1.05,7.41,7.42-2,9.42-4.16c2.88-3.19,3.43-9.09,3.43-9.09Z"/><path class="cls-1" d="M196.27,108.49c.38,2.46-.77,4.68-2.58,5s-3.64-2.42-4-4.88.84-3.75,2.65-4S195.89,106,196.27,108.49Z"/><path class="cls-1" d="M212.92,108.25c-.38,2.46.77,4.68,2.58,5s3.64-2.42,4-4.88-.84-3.75-2.65-4S213.3,105.79,212.92,108.25Z"/><path class="cls-1" d="M216.33,107.74c0,9.93-6.32,17.48-13.38,17.48s-12.8-10.5-12.8-20.43,5.73-15.51,12.8-15.51S216.33,97.82,216.33,107.74Z"/><path class="cls-9" d="M200,130.25s-1.6,4.43,8.87,5.26,4-4.27,4-4.27,3.79-.1,18.61,7.43c2.68,1.36-2.91,52,.48,67.28,1.32,6-29.89,17.83-36.67,7.35-2.37-3.65-10.86-61-10.86-61S171.82,124.12,200,130.25Z"/><path class="cls-15" d="M217.41,93.57s.05-5.78-2.45-5.32c-3.1-2.66-9.51-5.34-18.62-2.12s-12.21,3.21-13.09,2-1.67,3.33,2.32,4.88c0,0,0,1.44-1.22,1.11,0,0,1,3.68,2.89,3.89s.06,2.57,2.91,11.75c0,0-.59-9.1,1.3-9.88,0,0,5.76-8.75,20.19-1.19,0,0-1.27,11.3,1.21,11.07s2.89-5,2.89-5,.75-.58,1.13-.49C219.94,105.08,217.41,93.57,217.41,93.57Z"/><path class="cls-16" d="M213.43,108.85l2.79,11.1a1.42,1.42,0,0,0,1.72.69c1.22-.35,10.75-7.42,10.75-7.42L226.64,105l-12.13,2.43S213.12,107.63,213.43,108.85Z"/><path class="cls-17" d="M238.74,133.85c-1.26-1.81-11.05-21-11.05-21V105l-3.82-5.54-5.39,3.38-2.26,2.88,2.19-.29s-.35,6.42,1.72,8.8a8.86,8.86,0,0,0,2.12,1.42c3.14,3.49,7.93,20.53,7.93,20.53Z"/><path class="cls-17" d="M150.82,144.85l8.9,35.27s11,5,12-2.85-11.56-27.33-11.56-27.33l-3.07-9.41a23.06,23.06,0,0,0,.91-5.48c-.08-2,.17-7.24.17-7.24l-1.41-1.15-1.58,4.08-.42-3.48s1.83-7.44,1.75-8.52-1.67-3-1.67-3l-1.33,4s.09-2.88-1.91-3.13l-1.16,4.9-.75,7.49A79.64,79.64,0,0,0,150.82,144.85Z"/><path class="cls-18" d="M193.89,127.53s-10,2.66-14,4.57a10.43,10.43,0,0,0-4.79,4.61l-6.82,23.83-6.93-12.89s-3.49,6.15-9.48,6.82l10.81,35.37s5,7.19,11,4,8.93-17.62,8.93-17.62l3,25.93-5.15,18.89s14.63,16.36,24.94,11.54c.5-7.15,2.16-67-3.66-83.89-3.32-10.38-3.16-23.5-3.16-23.5Z"/><path class="cls-18" d="M214.84,128.69s6.35,6.86,4.75,15.74,7.51,52.59,12.33,62.4a23.94,23.94,0,0,0,5.14,2.75c9.31,5.66,5,2.73,4.55.75-.17-.6-9.86-26.27-9.86-26.27l2.54-21.8s5,3.68,9.15,3.35c1.3-.11,4.94-5.07,4.49-10.16-1-11.1-8.6-27.82-11.81-31.58-4.69-5.49-9.48,1.35-9.48,1.35l1.34,5.46-8.39-.49-6.16-4Z"/><polygon class="cls-19" points="193.89 127.53 185.99 155.44 193.89 154.13 188.57 161.12 205.97 203.68 185.99 162.61 191.84 155.46 184.58 156.35 193.89 127.53"/><polygon class="cls-19" points="219.59 130.19 229.59 154.67 221.6 155.22 228.4 160.78 228.6 197.33 229.8 160.54 223.91 156.04 231.17 155.22 219.59 130.19"/><path class="cls-20" d="M191.84,375.88l9.7,5.88v3.12H176.79l.14-2,1-4.48s-.22,1.31.66,1.31c1.11,0,3-2.32,4.27-3.32A7.13,7.13,0,0,1,191.84,375.88Z"/><path class="cls-1" d="M192,275.94s-.66,15-.66,26.65a56,56,0,0,1,11.48,6.72c5,4-.45,33.14-.45,33.14s-14.41-12.08-26.82-6.76S159.48,326.6,161,319.62s4.54-18,14.08-17.74c0,0,.33-19.47,0-24.45S187.52,269.2,192,275.94Z"/><path class="cls-14" d="M174.33,290.28s0,10.53,9.64,11.43c8.76,0,7.37-12.65,7.37-12.65Z"/><path class="cls-1" d="M173.64,281.91c.38,2.46-.78,4.68-2.58,5s-3.65-2.41-4-4.87.85-3.76,2.65-4S173.26,279.45,173.64,281.91Z"/><path class="cls-1" d="M190.81,281.44c-.38,2.46.78,4.68,2.58,5s3.65-2.42,4-4.88-.85-3.75-2.65-4S191.19,279,190.81,281.44Z"/><path class="cls-21" d="M174.66,298.12c-.81.73-.89,2.12-1.43,3.1-4.06.4-12.46.36-15.43,2.28-4.12,2.66.9,47.11,0,51.21s46-1.44,46-1.44l2.11-48.66L194.72,301l-3.35-3.31a27.39,27.39,0,0,1-7.51,9.56Z"/><path class="cls-1" d="M195.34,280.24c0,9.93-6.32,17.48-13.39,17.48s-12.8-10.5-12.8-20.42,5.73-15.52,12.8-15.52S195.34,270.32,195.34,280.24Z"/><path class="cls-17" d="M148.31,349.5s3.07,10.14,9.14,13.55,6.15-5.73,6.15-5.73L158,340.52S147.06,336,148.31,349.5Z"/><path class="cls-21" d="M157.8,303.5s-12.57,10.75-11.74,26.21.19,20.79,3.42,24.28c0,0-2.09-12.8,7.89-9.81l2,3a3.82,3.82,0,0,0,1.33-4.72c-1.33-2.93-.83-12.07-.83-12.07Z"/><path class="cls-17" d="M215.27,350.58s-3.07,10.14-9.14,13.55S200,358.4,200,358.4l5.65-16.8S216.52,337.11,215.27,350.58Z"/><path class="cls-21" d="M205.78,304.58s12.57,10.75,11.74,26.22-.19,20.78-3.42,24.27c0,0,2.09-12.8-7.89-9.81l-2,3a3.82,3.82,0,0,1-1.33-4.72c1.33-2.92.83-12.07.83-12.07Z"/><path class="cls-12" d="M183.86,307.28,181,311.7l2.63,3.11s.8,28.21-3,35.85c0,0,4.35,4.5,4.86,4.46s6.44-5.29,6.61-5.79-1-19.74-6.79-34.66l1.25-3.66Z"/><path class="cls-22" d="M196.35,272c-.38-2.24-.71-1.24-.82-2.85s.05-3.69-1.42-4.41a8.76,8.76,0,0,1-3.68-2.92c-1.78-2-2.61-3.81-5.68-3.51s-.72-1-5.55-.27-3.86,1.13-5.49,1.94-2,1-2.46,2.35.11,2.27-1.74,3.69-2.61,3.27-1.89,4.38.89,3.29,0,4-.3,4.24.42,4.32-.26-.58,1.67-.7c0,0,.83-.63,1.38,8.9a34.8,34.8,0,0,0,.83,5.62c.66,2.7,5.55,8.78,11,8s11.3-2.37,11.24-5.12,1.07-17.81,1.07-17.81a1.32,1.32,0,0,1,1.17.6A30.72,30.72,0,0,0,196.35,272Zm-10.66,21.45c-1.09.22-1.63-.55-3.45.11a1.25,1.25,0,0,1-.25.09,2.38,2.38,0,0,1-2.94-1.22l-.18-.36c.33-.23,3.87-.66,3.94-2.35,0,0,.5,1.74,4,2C186.85,291.64,186.78,293.19,185.69,293.41Zm8.42-9s-2.93,5.52-5.15,5.3-.32-1.81-6.09-1.7-5.5,2.44-5.5,2.44-4.44-2.12-5.22-4-.61-8-.61-8,2.1.39,2.17-3.38,0-4.65,0-4.65a7,7,0,0,0,5.16.88c2.55-.77,2.88,2.66,5.54.34s2.09,1.74,3.31.53,2.46,1.18,3.7,0c1.53-1.45.06,6.32,2.69,6.35Z"/><path class="cls-23" d="M154,362s-9.31,19.95-1.33,22.11,53.21.8,53.21.8,3.25-13.1,0-19.25-24.88-3-24.88-3Z"/><path class="cls-24" d="M160.94,331.85a3.07,3.07,0,0,0-3,2.66c-1.06,7.95-4.12,31.12-3.71,31.12h51.71l6.51-30.55a3.08,3.08,0,0,0-3-3.72Z"/><ellipse class="cls-10" cx="184.14" cy="351.33" rx="6.6" ry="4.16"/><polygon class="cls-25" points="177.24 441.03 177.65 451.26 168.59 454.5 167.26 450.93 166.84 442.51 177.24 441.03"/><path class="cls-26" d="M167.18,444.94c-.83,7.26-2.5,17.4-2.5,21.78s6.65,9,11,8.31a9.36,9.36,0,0,0,7.31-7.48c.87-5.26-2.75-6.87-3.82-14.63-.8-5.8-.16-9.1-2-10.64-.51-.43.86,4.18-.81,7.6-1.33-1.37-1.33-1.37-3.56-.84a4.92,4.92,0,0,0-3.28,3C168.29,450.78,167.21,448.53,167.18,444.94Z"/><polygon class="cls-25" points="187.51 441.87 188.27 452.08 197.64 454.27 198.55 450.56 198.01 442.16 187.51 441.87"/><path class="cls-26" d="M198,444.61c1.66,7.12,4.46,17,5,21.35s-5.57,9.68-9.95,9.51a9.34,9.34,0,0,1-8.12-6.6c-1.46-5.13,1.95-7.14,2.13-15,.14-5.86-.88-9.06.77-10.8.46-.49-.37,4.25,1.67,7.46,1.17-1.51,1.17-1.51,3.45-1.24a4.93,4.93,0,0,1,3.59,2.57C197.51,450.54,198.33,448.18,198,444.61Z"/><path class="cls-27" d="M177.15,371.57c-1.11-2.09-4.48-8.4-9.14-8.44-6,0-10.15,10.23-10.81,11.85-3.67,9-2.53,17.42,1.17,36.06,2.1,10.6,4.67,22.71,7.81,36.06l12.14-2.33A270.81,270.81,0,0,1,179,409.6C180.4,393,182.9,382.34,177.15,371.57Z"/><path class="cls-27" d="M187.23,371.48c1.11-2.08,4.48-8.39,9.14-8.43,6-.05,10.16,10.23,10.81,11.84,3.67,9,2.53,17.42-1.16,36.07-2.1,10.59-4.68,22.71-7.82,36.06l-12.13-2.33a272.24,272.24,0,0,0-.67-35.17C184,392.89,181.48,382.26,187.23,371.48Z"/><path class="cls-28" d="M372.3,100.76,424.42,128a4.27,4.27,0,0,1-1.53,8l-57.54,6Z"/><line class="cls-29" x1="372.76" y1="98.01" x2="333.39" y2="331.88"/><path class="cls-30" d="M280.68,95.55S274.92,97,276,105.64s4,17.73-3.42,19.73c0,0,3.24,2.21,7.43-.56a3.37,3.37,0,0,1-1.67,3.88s9.41-.44,11.84-8,1.59,3.33,8.17,5,12.12,1.22,13.23.22c0,0-7.59-1.8-8.28-5.17,0,0,3.4,3.07,6.28,2.62,0,0-5.87-3.54-6.82-6.76s1.87-4.43,1.81-9.64,3.6-15.3-6.22-16.08S280.68,95.55,280.68,95.55Z"/><path class="cls-1" d="M283.08,101.9c.35,2.27-.71,4.32-2.37,4.58s-3.37-2.23-3.72-4.5.78-3.46,2.45-3.72S282.73,99.63,283.08,101.9Z"/><path class="cls-1" d="M298.44,101.68c-.35,2.27.72,4.32,2.38,4.57s3.36-2.22,3.72-4.49-.78-3.47-2.45-3.72S298.79,99.41,298.44,101.68Z"/><path class="cls-1" d="M258.09,157.81h0c-1.9-1.76-2.33-4.43-1-6.09l16.46-20.4c2-2.5,6.13-2.36,9,.3h0c2.86,2.67,3.28,6.76.92,8.95l-19.23,17.81C262.67,159.83,260,159.58,258.09,157.81Z"/><path class="cls-1" d="M359,157.52h0a4.21,4.21,0,0,1-4.71,3.34l-27.83-3.35a5.88,5.88,0,0,1-5.22-6.75h0a5.87,5.87,0,0,1,7.23-4.52l27.28,6.51A4.2,4.2,0,0,1,359,157.52Z"/><path class="cls-1" d="M327.7,154.15h0a4.67,4.67,0,0,1-6.41-.17l-22.5-21.58a6.53,6.53,0,0,1-.12-9.48h0a6.52,6.52,0,0,1,9.44.82l19.89,24A4.67,4.67,0,0,1,327.7,154.15Z"/><path class="cls-1" d="M355.75,152.75l7.4-5.1,5.65,1.07a1.4,1.4,0,0,1-.33,1.48s2.58.91,2.41,2.55-1,10.69-3.07,10.69-8.07-.91-8.07-.91l-5.45-1.67S348.34,157.84,355.75,152.75Z"/><path class="cls-31" d="M284.67,108.63s.75,11.11.75,14.22-7.84,5.29-10.28,8.39,4,19.55,4,19.55l7,20.14-3.54,14.85s25.49,3.1,25.49-2.22,1.55-31.26,1.55-31.26l3.64-4.89a6.35,6.35,0,0,0,1.17-5,31.13,31.13,0,0,0-1.11-4.29l-5.34-14.25a4.86,4.86,0,0,0-4.75-3.15l-6.77.29-2.19-12.41Z"/><path class="cls-1" d="M302.79,98.49c0,9.16-5.28,18.85-11.8,18.85s-11.81-9.69-11.81-18.85S284.47,84.18,291,84.18,302.79,89.34,302.79,98.49Z"/><path class="cls-30" d="M301.49,85.21a16.79,16.79,0,0,0-12.25-5.57c-8-.16-10.22,5-11.47,8.4s.17,5.57-2.74,8.81l1.16.52c-.75.64-1.6,2.26-3.32,2.64-2.58-.16,15.38,5.82,21.36-5.49a9.07,9.07,0,0,1,.17,4.74s3.63-2.16,4-4.15c0,0,1.17,5.48,7.66,8.89-.76-1.51,0-1.79-.29-4.47s-.79-2.37-.29-4.76C307,90.53,305,86,301.49,85.21Z"/><path class="cls-17" d="M287.22,325.1h0c-1.66,0-3.09-3.32-3.25-7.62L279.88,259c-.34-8,2.45-14.71,6.09-14.76h0c3.64-.06,6.64,6.61,6.54,14.57l-2.26,58.59C290.21,321.69,288.89,325.07,287.22,325.1Z"/><path class="cls-17" d="M287.39,255.38h0c-4-.13-7.12-4.26-7.18-9.41l-1.32-45.26c-.09-7.77,4.91-14.16,10.91-14h0c6,.21,10.54,6.93,9.91,14.68l-4.5,45.05C294.8,251.63,291.37,255.52,287.39,255.38Z"/><path class="cls-17" d="M284.38,312.91h4.43l12.3,15.92c.68.88.24,2.49-.67,2.49H288a1,1,0,0,1-.85-.68l-3.09-6.06a5,5,0,0,1-.48-2.66Z"/><path class="cls-32" d="M284,313.48s.65,12.45,7.85,12.29c7.65-.18-2.59-12.31-2.59-12.31l12.53,15.93c1,.88.37,3.64-6.61,3.64s-8-1.41-8.24-1.84l-1.19-3.32v.69l-1,.08-.57-.48-1.2-8.57Z"/><path class="cls-17" d="M299.85,323.58h0c-1.55-.26-2.35-3.37-1.83-7.1l5.4-50.93c.93-6.89,4.58-12.23,8-11.67h0c3.39.56,5.12,6.79,3.78,13.61l-11.3,50C303.16,321.15,301.4,323.83,299.85,323.58Z"/><path class="cls-17" d="M313.46,261.48h0c-3.32.31-6.48-4-7.22-9.82L299,200.56c-1.12-8.8,2.15-16.61,7.16-17.08h0c5-.47,9.67,6.61,10.19,15.46l2.37,51.55C319.09,256.35,316.77,261.17,313.46,261.48Z"/><path class="cls-17" d="M298.34,313.46h5.79l17.54,15.93a1.43,1.43,0,0,1-1,2.49l-16.25-3.19c-.5,0-3.93-2.79-4.19-3.22l-2.86-.34a3.72,3.72,0,0,1-.69-2.66Z"/><path class="cls-32" d="M297.4,316.85s7.86,9.87,14.65,7.13c3.19-.86-3-6.06-3-6.06l12.62,11.47a1.43,1.43,0,0,1-1,2.49H309.92a6.33,6.33,0,0,1-2.36-.69l-5.44-3.25.15,3.94h-1.08l-3.78-6.75a3.72,3.72,0,0,1-.69-2.66Z"/><path class="cls-33" d="M284.05,184.44s-10,14.87-1.3,23.11,31.93.18,31.89-3.58-3.2-17.38-9.25-21.32S284.05,184.44,284.05,184.44Z"/><path class="cls-33" d="M284.05,184.44s-3.59,3.33-5.16,11.76.74,43.49-.84,48-1.23,15.94.3,27.91S281.79,302,281.79,302s7.43,6.57,10.09.14l3.68-50.19,5.36-30.86,1.87,32.74s-4,5.68-3,21.7a161,161,0,0,1-1,25.73s1.22,5.53,10.59,1.37l9.87-47.22s2.89-43.23-1.36-60.3c-2.59-10.4-8.48-13.82-8.48-13.82S289.15,178.3,284.05,184.44Z"/><path class="cls-1" d="M284.77,181.64h0a4.21,4.21,0,0,1-5.76-.4L259.63,161a5.86,5.86,0,0,1,.25-8.52h0a5.87,5.87,0,0,1,8.46,1.1l16,24.46C285.71,179.83,286.43,180.22,284.77,181.64Z"/><path class="cls-28" d="M284.67,123.87s2.66,3,8.54.72,4.15-3.93,4.15-3.93,6.92-1.28,8.68.1,19.09,23.4,20.31,24.17,9.2,2.72,9.2,2.72a4.55,4.55,0,0,0-4.1,4.82,7.17,7.17,0,0,0,2.94,6.32l-10.81-1.5-8.94-10.22s1,4.19-2,5.7l-1.22,32.7a61.46,61.46,0,0,1-10.2,4.36c-10.25,3.54-18.56-4.05-18.56-4.05L284,175a28,28,0,0,0-1.11-12l-5.28-16.53-8.61,8,6.19,9.6-6.67,6.24s-11.74-8.81-12.9-14.95,16.17-23.87,20.4-25.81A46,46,0,0,0,284.67,123.87Z"/><path class="cls-1" d="M285.18,174.79l-1.72-.07L280,181.84a6.24,6.24,0,0,0,.67,6.55l.54.7a1.92,1.92,0,0,0,3.19-.22l2.95-5.12a3,3,0,0,0,.22-2.59Z"/><path class="cls-34" d="M309.72,152.3s-14.16,2.44-17.61,12.86c0,0,8.7-5.75,13.07-7S309.72,152.3,309.72,152.3Z"/><polygon class="cls-34" points="277.62 146.49 283.15 142.89 281.9 148.65 286.18 147.09 285.34 170.65 277.62 146.49"/></g></svg>