<svg xmlns="http://www.w3.org/2000/svg" viewBox="0 0 590.02 462.92"><defs><style>.cls-1{isolation:isolate;}.cls-2{fill:#cddbf0;}.cls-3{fill:#00664b;}.cls-4{fill:#02929e;}.cls-5{fill:#f9ddaa;}.cls-6{fill:#f2bd4f;}.cls-7{fill:none;stroke:#f2bd4f;stroke-miterlimit:10;stroke-width:2px;}.cls-8{fill:#efb122;}.cls-9{fill:#a6a999;}.cls-10{fill:#efd3bb;}.cls-11{fill:#1e252c;}.cls-12{fill:#354d84;}.cls-13{fill:#cfd1d2;}.cls-14{fill:#1e417c;}.cls-15,.cls-16{fill:#7b7c7f;}.cls-16,.cls-21{mix-blend-mode:multiply;}.cls-17{fill:#4b2000;}.cls-18{fill:#63696f;}.cls-19,.cls-21{fill:#8b9299;}.cls-20{fill:#152a50;}.cls-22{fill:#451117;}.cls-23{fill:#605271;}.cls-24{fill:#789a99;}.cls-25{fill:#618482;}.cls-26{fill:#898989;}.cls-27{fill:#6a747c;}.cls-28{fill:#67111b;}.cls-29{fill:#271b58;}.cls-30{fill:#594e7a;}</style></defs><g class="cls-1"><g id="Layer_5" data-name="Layer 5"><path class="cls-2" d="M438.08,392.59s167.6.45,150.75-35c-8.86-15.07-6.2-23.49-41.68-19.06s-10.19-17.29,10.2-19.95,39.91-32.37,27.94-58.53-31.48-17.29-41.68-8.42-30.6,35.47-41.68,24.82,22.17-25.27,16.4-39,9.32-29.33,6.21-46.59-19.06-53.62-76.7-44.31-73.61-32.59-73.61-53.31-13.3-61.08-68.72-47.34-76.26,34.4-64.29,76.84-33.7,45.49-57.64,35.54-52.83-8.39-68.1,21-6.13,68.83-30.87,71.49S51,251.6,45.68,268.89,32.16,288.6,14.31,304.46s-20.28,49.11,0,66.85c8.76,8.42,50.74,11.81,82.78,15.45Z"/><path class="cls-3" d="M341.55,123.7c.26,1.93-1.47.84-1.75,3.84,2.82.06,4.23.27,6.05-1.89-2.8-1.1-2.63-5.53-4.05-6.19a2.28,2.28,0,0,0-2.9,1.43q-.45,2.37,2.65,2.81C341.6,124.07,340.65,123.15,341.55,123.7Zm0,0"/><path class="cls-3" d="M339.63,124.62c.28-3.43-4-2.19-4.44.58-.58,3.55,3.4.15,4.44-.58C339.67,124.13,338.68,125.29,339.63,124.62Zm0,0"/><path class="cls-3" d="M301.43,131c-.11.29-3.73,2.59-1.86,2.57a4.42,4.42,0,0,0,3.54-2.4l-1.68-.17C301.3,131.3,302,130.9,301.43,131Zm0,0"/><path class="cls-3" d="M296.32,132.79l-.07,1c2.75-.24,1.22-2.43.07-1C296.3,133.13,296.54,132.53,296.32,132.79Zm0,0"/><path class="cls-4" d="M241.29,144.81a62.44,62.44,0,0,1,7.58-16.26c.26,2.79-4,6.16-4.84,9.18-.34,1.25-.82,3.36-.37,4.64l2.85,1.37v2.74c.3,1.08,2.6,11.11,5.15,7,.53-.87-2.76-6.83-3-8.83,2.32,0,2.32,3.81,3.47,5.93l2.54,3.7q-1.83,1.42-.39,2.73c2.21,3.6,4.08,2.89,7.86,4.26-.32-1.5.48-1.7,2.4-.62-.77,1.44-.45,2.09,1,2a28.42,28.42,0,0,1,3.61.9l4.12,4.71c2.9,1.37,6.35-1.45,5.67,3.62.47,1.24-.09,2-1.67,2.34q-2.64.75-1.85,3.35c-1.14,3.46-.16,4.73,2,7.37l2.61,3.27c-.3,2.06.62,3.07,2.74,3,3.92,3.39,4,3.08,4,8.67v3c-1,2.21-.47,3.32,1.43,3.35q-.48,2.73-1,5.45l2.42,3.22c.85,2.62-.54,4.65.82,7.52.93,2,3.93,6.2,6,7,1.28.51,4.61.7,4.5-1.24l-3-2.55a31,31,0,0,0,.82-4.38c-5.24-.15-1.16-1.37-1.38-3a7.25,7.25,0,0,0-1.61-2.34c.87-1.14,3.15-1,4.69-1.85,2.7-1.5,3-2.74,4.79-5.26,1.28-1.81,2.38-3,2.82-4.95.4-1.76-1.73-4,.58-5.53,1.15-.75,3.24.46,4.63-.4,2.21-1.36,1.75-2.12,2.29-4.34.79-3.28.79-4.46,2-7.42l1.48-1.88c1.23-1.81,1-2.76-.83-2.84-1.53-3.25-5.42-3.15-8.68-3.69-1.42-.24-4.2-.47-5.34-1.55-2-1.87,1.73-3.89-1.84-6.25-1-.68-3.26.53-4.35-.07-2.15-1.16-2.13-3.76-4.76-5.06-.42,4.19-4.84-.31-5.68-.62-4.08-1.46-2.81,0-6,1.16q-1.35,3.28-4.5,1.56l-2.75-.47q-.19-3.09-.41-6.2l-4-.7c1.08-2,1.75-2.51,1.14-4.78-3.9,2.61-12.3,6.28-8.75-2.61,2.4-6,8.51-5.05,13.89-5.05q-1.17,3.57,2.9,3.85c-.29-5.47,1.49-4.92,5-8.45,1.92-1.95,2.95-4.51,5.5-6.55,1.83-1.46,4.22-4.07,5.83-4.82,2.3-1.08,2.73-.61,4.6-1.92-1-.09-4.43-1.58-1.87-2.4,2.85-.92,1.75,1.37,3.52,1.39,1.61,0,2.6-1.8,3.84-1.09.1.06-2.23,5.85,2.87,4.33,3.32-1-2-2.5-2.26-3.89,4.39-1.49,2.19-1.73,1.31-4.08-.59-1.56-1.39-2.58-1.49-4.86-1.7.83-3,1.77-4.92,1.77.26-2.42-1.42-5.57-4.58-4.26-4.29,1.78-.32,2.8-2,5.06-1,1.36-2.21,1.11-3.65,2.33-2,1.71,0,2.82-3.07,3.32v-2.94c.32-1.24-.29-1.62-1.84-1.14-.54-.75-2.71-.44-3.31-1.44-2.21-3.7,5.56-6.4,8.48-7,.58,3.94,1.65,1,3.85.68,0-.56-.75-.82-.9-1.75,4.2-.35,5.76-4.92,10.49-.91l-5.26,2.8c1.81.43,4.78,1.79,6.68,1.58,0-1.94.74-2.69,2.33-2.23s2.31-.22,2.5-2c-3.58-.92-.78-1.86-3.15-3.47a15.61,15.61,0,0,0-4.32-1.91c-4.36-.94-8.15-.11-7.91,4.56-4.58-.68-3-2.24-.51-4.47-2.52-.3-5.52-.84-6.48,1.72,4.69.79-.82,2.41-1.78,2.76-2.77,1-4,1.68-4.76-1.71,3.08,0,3.67-.4,5.86-2.54q-2-1.78-3.22,1.1c-2.47.64-4.1-.26-4.87-2.7-3.67-.45-5.15.93-8,3,1.65,0,5.84-.51,3.11,2,2.33.07,3.81-.61,4.76,1.61-4.85-.19-7.44-2.84-12.82-2.79A69.69,69.69,0,0,1,345,107.8c1.74,1.13,4.59,2.56,5.87,4.29,3.23,4.38.88.52-.55,3.67-1.08,2.42-3.26,0-2.63,3.79l1.64.23c.23,2.92,1.5,3.36,3.83,1.32l.47,3.31c-5.1-.89-6,1.13-9.15,3.76l-2.68.43-.52,3.05c.88-1.42,1.19,1.85,1.08,2.32-2.78-1-6.42-1.33-7.48,1.8-.76,2.24,1,3.93,2.46,4.7,3.3,1.68,4.82-.83,6.47-2.4q1.38-2,2.95-3.92,2.82,1.51,4.4-1.52c.69,2.57,3.66,3.73,5.8,5.18q-.85,1.88-3.09.75c3,4.22,3.32-.77,4.92-1.58-2.74-2.36-3.88-1.72-5.16-5.33,6.44,0,5.75,4.9,9.28,8.68.68-2.61.42-3.56,2.85-4.89.51,4.79,1.41,3.32,3.95,5.13,1.25.89,3.66,1,3.22,4.06-.54,3.81-4.24,1.22-7.11.48-2-.52-2.05-1.62-4.33-1-2,.54.08,1.86-2,2.25-.59.11-5.76-1.87-6-2.13-1.59-1.47-1.26-1.34-1.26-4.25a65.84,65.84,0,0,0-8.31,1c-2.43.51-6.25.39-8.3,1.83q-2.71.45-1.87,3,.8,3-2.54,3.78c-.95,1-9.17,6-2.9,6-.62,3.44-2.54,5.45-.73,9.42,1.6,3.52,5.18,6.35,8.65,6.59-.23,0,2.51-.42,2.75-.47.94-.21,3.49-1.35,4.06-1.38.95,0,8.31,1.34,8.9,2.07.29.36-.28,5.79,0,6.86.44,1.51,1.81,2.81,2.42,4.27.92,2.19,1.57,2.2,1.19,4.43-.32,1.83-2.19,2.77-1.84,4.8.32,1.86,1.62,2.7,2.09,4.53.55,2.07.72,4,1.32,5.91.85,2.76.75,6.36,3.59,6.36-20.59,25.32-57.32,32.83-86.12,17.33s-43.07-50.2-33.27-81.47ZM354.35,123c.34,1.09,4,1.85,5,1,2.74-2.18-.41-4.15-2.06-5.9,0,3.29,0,3.38-3,4.88C354.46,123.34,355.34,122.5,354.35,123Zm13.84,14.66,2.06-.16c-.52-1.14-1.05-2.27-1.62-3.39-1,.88-1.11,2.06-.44,3.55C368.87,137.54,368.19,136.66,368.19,137.67Z"/><rect class="cls-5" x="364.04" y="139.25" width="142.05" height="196.76" rx="12.71"/><rect class="cls-6" x="417.57" y="270.73" width="12.97" height="48.31"/><rect class="cls-6" x="434.7" y="250.59" width="12.97" height="68.45"/><rect class="cls-6" x="451.83" y="274.93" width="12.97" height="44.11"/><rect class="cls-6" x="468.95" y="227.25" width="12.97" height="91.8"/><polyline class="cls-7" points="383.99 284.82 409.59 240.8 432.21 237.62 441.19 209.97 461.14 220.3 463.13 209.97 470.45 209.97 492.4 176.07"/><rect class="cls-8" x="381.79" y="163.8" width="72.03" height="11.08"/><rect class="cls-8" x="381.79" y="178.65" width="72.03" height="2.46"/><rect class="cls-8" x="381.79" y="184.88" width="72.03" height="2.46"/><rect class="cls-8" x="381.79" y="190.89" width="72.03" height="2.46"/><rect class="cls-8" x="381.79" y="196.89" width="72.03" height="2.46"/><rect class="cls-8" x="381.79" y="202.9" width="42.27" height="2.46"/><path class="cls-9" d="M395.11,342.12a107.15,107.15,0,0,0,2.09-20.79l-16.34-7.43a89.58,89.58,0,0,0-1.6-11.43l13.8-10.9a105.65,105.65,0,0,0-8-20l-17.93,1a91.45,91.45,0,0,0-6.1-8.51L368.21,248a106.7,106.7,0,0,0-16.69-14.41l-15.36,9.2a90.67,90.67,0,0,0-8.67-4.44l-1.14-17.74a106.38,106.38,0,0,0-21.7-5.21l-9.29,15.22q-2.36-.12-4.74-.12t-4.74.12l-9.28-15.22a106.38,106.38,0,0,0-21.7,5.21l-1.14,17.74a90.67,90.67,0,0,0-8.67,4.44l-15.36-9.2A106.7,106.7,0,0,0,213,248l7.18,16.13a91.45,91.45,0,0,0-6.1,8.51l-17.93-1a105.65,105.65,0,0,0-8,20l13.8,10.9a91.41,91.41,0,0,0-1.61,11.43l-16.33,7.43a107.15,107.15,0,0,0,2.09,20.79l17.28,3.23a91.54,91.54,0,0,0,4.25,11.95l-11,14.12A106.91,106.91,0,0,0,208,388.29l16.81-5.16a90,90,0,0,0,10.05,9.16l-3.14,17.52a106.1,106.1,0,0,0,17.48,9.42l12.53-12.43a88.41,88.41,0,0,0,13.73,3.45l5.32,16.87c3.25.29,6.54.47,9.86.47s6.62-.18,9.87-.47l5.32-16.87a88.41,88.41,0,0,0,13.73-3.45l12.52,12.43a106.54,106.54,0,0,0,17.49-9.42l-3.14-17.52a90,90,0,0,0,10-9.16l16.81,5.16a106.91,106.91,0,0,0,11.28-16.87l-11-14.12a91.54,91.54,0,0,0,4.25-11.95ZM290.62,388.91a67.44,67.44,0,1,1,67.44-67.43A67.43,67.43,0,0,1,290.62,388.91Zm-.27-123.45a56,56,0,1,0,56,56A56,56,0,0,0,290.35,265.46Zm0,75.05a19,19,0,1,1,19-19A19,19,0,0,1,290.35,340.51Z"/><ellipse class="cls-2" cx="409.53" cy="113.98" rx="8.04" ry="10.64"/><path class="cls-10" d="M233,18c-.11-.66-3.54-8.09-3.54-8.09a17.78,17.78,0,0,0-6.65-1.89c-3,0-11.2-.55-12.75,1.56s-.76,1.42-.76,1.42a5.18,5.18,0,0,0-2.35-.09s.78,5,.45,5.87,5.32,4.32,7.87,5,4,2.88,6.32,3.66,13-.56,12.74-2.66A20.81,20.81,0,0,0,233,18Z"/><path class="cls-10" d="M192.75,17.49s6.81,38,.83,46.5c-.55.42-6.63,3.18-10.58,3.33l2.22,11.35-24.4,13.75L159.16,58.5s-5.43,1.44-7.09-6.21-1-8.53,3.32-9.2C155.39,43.09,138.76,15.49,192.75,17.49Z"/><path class="cls-11" d="M153.55,408.38l5.07,8.63s7,8.31,10.88,10.91c.84.82-.35,3.89-.35,3.89s1,.68,1.07,1.1a8.28,8.28,0,0,1-.13,1.49s-3,2.74-9.56,1.56-19.21-5.64-20.79-8.45a17.63,17.63,0,0,0-5.06-5.05s-6.24-3-6.43-4.58a5.87,5.87,0,0,1,.23-2.65l.86-.25a55.72,55.72,0,0,1,1.74-7.36s2.42,2.89,5.31,3.23,7.52.84,7.52-.16S144.91,407,153.55,408.38Z"/><path class="cls-12" d="M202.53,178.27s66.44,18.92,74.82,30.35c2.45,3.13,2.81,6,2.41,9.94-4,38.95-38.88,86.12-38.88,86.12s-4.56,6.1-31.83,9.34c19.09-42.36,28.32-59.59,33.8-84.59l-35.92-4.6L196,230.52s-21.68,117.29-42.49,177.86c0,0-13.83,6.94-22.47-.76,0,0,21.53-101.49,20.15-206C151.23,201.62,156.31,183.93,202.53,178.27Z"/><path class="cls-13" d="M159.18,71.36l-5.4,8.3L177.9,190.82l16.65-4.51s12.19-6.3,12.38-8a385.68,385.68,0,0,0-2-52.6c-2.59-22.92-11-44.39-11-44.66,0-.58-10-9.65-10-9.65l-6.17,4.24Z"/><path class="cls-14" d="M177.71,75.6l-5.44,8.49,7.08,6.37,9.17,76.27,8,9.68s3.7-10.28,3.7-11-19-75.48-19-75.48l4-6.56-7.51-7.72"/><polygon class="cls-15" points="162.88 93.19 172.27 84.09 174.25 85.87 162.88 93.19"/><polyline class="cls-16" points="185.22 83.32 194.01 91.16 184.05 85.22 185.22 83.32"/><path class="cls-17" d="M167.28,32.92s-3.16,14-1.75,17.29l-3.32.34s-4.66-6.65-5.16-6.74-6-1.23-5.82,3.17,1.54,10.54,5.43,11.42,2.5.1,2.5.1l.25,5.19s-8.29-5-8.79-8.79-1.44-10.48-2.71-26.8c-.54-6.9,3.32-9.62,3.32-9.62s-1.94-2.43,1.2-1.64c-.5-1.85,11.83-12.43,38.29-15,0,0-.25,2.71-1.66,3.88,0,0,7.48-1.92,9.1-5.74,0,0,4.08,6.82,1,12.39a3.84,3.84,0,0,0,1.75-1.08s-.74,17.53-6,20.53a38.91,38.91,0,0,0-.71-5.49s-5.75,1.92-10,.59S168.31,27.69,167.28,32.92Z"/><path class="cls-11" d="M211.82,309a23,23,0,0,0-4.37,12.93,1.76,1.76,0,0,1-1.1.15,19.84,19.84,0,0,0-.59,3.87s34.74-.23,42.36.45,20.73-.94,20.73-.94l.15-1.7-1.06-.59a18.76,18.76,0,0,0,1.59-5.37c-.82-1.41-1.43-1.13-2.93-1.18s-17.18-4.79-17.18-4.79l-11-7.33-4.32,1.62-1.17,3.73-19.23.37S211.42,310.14,211.82,309Z"/><path class="cls-14" d="M134,132.55s24.41,16.26,4.9,76.33c0,0,22.49,23.2,41.11,21.64,0,0,23.89-78.43-22.44-156.69l-7.17,6.4s-18,5.54-25.49,13C124.91,93.2,116.84,105.22,134,132.55Z"/><path class="cls-18" d="M154.53,218.22s2.15-.56,2.83-.21,10.74,20.3,10.74,20.3,1.13,2.85-2.29,4.2-8.31-12.83-8.31-12.83Z"/><path class="cls-19" d="M123.94,238.42l30.59-20.2s.67-.4,1.82.56c.92.78,7.9,14.91,10.62,20.47a2.42,2.42,0,0,1-1.16,3.26L134,257.11s-.16.05-1.43-.86-9.68-16.52-9.68-16.52Z"/><ellipse class="cls-18" cx="153.84" cy="233.73" rx="2.83" ry="3.78" transform="translate(-90.1 96.66) rotate(-27.32)"/><path class="cls-10" d="M117.33,211.29l7,23.19s-.66,8,3.17,14.69c.87,1.5,4.38,6.17,6.14,7.48,1.12.84,2.35.55,1.89-1.08-.34-1.23-4.27-5.13-4.84-8.26.14,0,3.58,6.5,6.26,7.92,2.26,1.58,3.41-.08,3.81-1.42.08-.28-5.29-4.51-5.67-8.78,3.82,6.51,7.14,9.12,7.62,9.22,1.72.34,4-.54,3.54-2.77-5.73-5.54-5.9-7.9-5.77-8.2.4.08,2.34,4.37,7.52,8.67,3.83.29,3.48-2.83,3.69-3.27-7.18-7.11-10.35-18.3-9.06-21.73l2.53-3s-7.23-3.15-8.83-2.67-5.09-15-6-18S117.33,211.29,117.33,211.29Z"/><path class="cls-14" d="M134.37,132.46c-26.23,29.89,3.26,87.3,3.26,87.3-11.84,8.68-19.73.09-19.73.09-37.1-76.37,6.78-126.6,6.78-126.6S139.55,96.57,134.37,132.46Z"/><path class="cls-14" d="M184.88,72.26l6.65,3.34s10.75,0,18.42.78c7.63.08,14.39-3.91,17.71-6.57a355.87,355.87,0,0,0-9-46.06s10.85,1.94,16.61-4.05c0,0,15.3,40.33,16.41,64.39,0,0-21.29,18.3-37,23.63,0,0,.5,62.14,10.78,77.62l-12.11-3.84s.65,20-4.65,26.2c0-4.43-6.38-74-7.84-85S191.13,80.24,184.88,72.26Z"/><polygon class="cls-20" points="150.4 80.23 148.57 113.15 162.88 119.3 161.88 136.26 185.91 201.62 159.22 137.26 160.54 119.96 144.42 115.14 150.4 80.23"/><polygon class="cls-20" points="192.03 76.4 209.17 107.61 204.28 115.03 209.83 132.66 207.32 189.65 212.03 132.66 205.27 115.14 212.48 108.82 192.03 76.4"/><path class="cls-21" d="M134,132.55a16.23,16.23,0,0,1,3.54-4.55c2-1.55,5.66-2,5.66-2l-4.1,3.27h5.32l-3,2.82s10.48,20.83,5,37.35C146.44,169.45,147.41,143,134,132.55Z"/><path class="cls-22" d="M80,38s14.3,2.71,13.3,14-6.21,26.05,0,35.32,3.84,24.39-6.26,24.56c-6,.11-33.24,7.29-40.69,3.34-5-2.66,7.1-15.6,9.82-19.42C63,86.27,71.3,54,69,45.5S62.32,31.17,80,38Z"/><path class="cls-10" d="M83.72,45.23s6.94,38.66.85,47.36C84,93,77.81,95.83,73.79,96l2.15,15.77,17,7.58L73.36,141.14l-50.35-7,31.87-23.21-3-21.6s-7.93-.85-9.62-8.63-1-8.7,3.38-9.38C45.67,71.3,28.74,43.19,83.72,45.23Z"/><path class="cls-10" d="M106.84,151.22a373.91,373.91,0,0,1,13.19,46c2.29,15.25,2.24,32.16,2.31,36.24,1,2.7.69,7.49.34,10.46-.67,5.77-4.68,13.38-4.68,13.38l-2.65-.22.56-2.61-1.54,2.86-1.92.63-1.1-3.87-.5-1.81s-.81-2.55.61-6.68c-1.94-4.83,1.79-12.9,1.79-12.9l-5.69-29.55L95.11,165.54Z"/><path class="cls-10" d="M60.44,429s-10.16-59.15-3.92-94.83c-3.14-19.42-11.15-75.58-11.15-75.58l63.43-10.54.49,83.09a26.24,26.24,0,0,1-3.08,12.51l-27.73,52s-2,25.18-4.66,33.31c0,0,6.32,14.68,14.67,23.71s-13.09,5.87-17.16,5-7.67-14.45-7.67-14.45a51.54,51.54,0,0,1-3.22-6.32C60,435.35,58.35,432.18,60.44,429Z"/><path class="cls-23" d="M107.91,213.16s8,30.14,8,44.7-4.9,68.65-4.9,68.65S104.81,337.13,83,340.06c-30.76,3.61-35-8.53-35-14.56,0-47.36-9.38-71.13-6.33-76.78,7.11-31.27,9.12-36.41,9.12-36.41S88.4,197.43,107.91,213.16Z"/><path class="cls-24" d="M119.41,187.87c2-7.42-2.71-14.31-5-22.8-7.37-28-11.79-46.66-15.18-48.71-4.74-2.87-20-3.14-20-3.14s15.32,12.88-3.29,17.69S48,120.13,50.28,114.26,23,128.72,23,128.72,5,152.09,1.34,171.05s30.14,57.58,30.14,57.58l8.81-15.47s-29.47-38.95-3-54.19l13.52,33.19L48,228.74a93.51,93.51,0,0,1,36.23-7c20.1.33,23.71-8.58,23.71-8.58V194.42S117.83,193.81,119.41,187.87Z"/><path class="cls-25" d="M37.24,159s6.09-4.74,6.88-5.53-7.9,11.63,6.16,2.6c-1.35,8.24,4.36,3.61,5.36,5-2.71,6.77,13.83,24.27,29.18,8.77,6.74-5.1,2.39-6.55,7.51-8.77,2.6-1.13,7,3.7,12.42,3.16,7.42-.74,6.36-6.93,6.33-8.62a11.82,11.82,0,0,1-1.75,10.93c-2.22,2.88,1.18,13.94,1.18,13.94l-2.6,8.7-2-21.91s-15.1-2.82-17.47,1.36S78.48,181.3,68,186.75c-5.12,2.64-4.41,23.59-4.41,23.59s-13.77-1-13.26-2.26.48-15.92.48-15.92Z"/><path class="cls-26" d="M88.9,200.57l7.16,41.37a3.54,3.54,0,0,1-3.34,4.13l-64.8,2.65a3.52,3.52,0,0,1-3.57-2.67L14.21,205.59a3.53,3.53,0,0,1,3.24-4.39l67.78-3.56A3.55,3.55,0,0,1,88.9,200.57Z"/><circle class="cls-27" cx="53.38" cy="223.48" r="4.45"/><path class="cls-10" d="M40.29,213.16s11.51,14.53,14.9,17.45,3.89.58,6.26,2.77,11.18,4.4,12.37,3.21c0,0-.16,5.8-9.4,3.66l8,9.21s-2.81,4.19-5.72,2.18a7.69,7.69,0,0,1-4.1.54,54,54,0,0,0-8,.09L44,240.25l-.51-3.84L26.74,221.22S30.63,209,40.29,213.16Z"/><path class="cls-24" d="M23,128.72S5,152.09,1.34,171.05s30.14,57.58,30.14,57.58,14.84-5.95,8.81-15.47-29.47-38.95-3-54.19c0,0,4.4-8.58,4.4-12S41.3,115.85,23,128.72"/><path class="cls-28" d="M80,50.14S74.56,68.2,64.25,68.66,62,86.72,56.2,95.75,49.43,131.65,29.11,130,2,105.68,12.4,91.91,32.72,75.43,30.46,60.08,37.64,39.51,48.93,35,73.36,24.4,82.4,30.27,93.71,57.54,80,50.14Z"/><path class="cls-23" d="M69,444.72c5.16,10.75,22.15,10.87,15.31,2.79L94.65,459s.83,1.49,0,2.17c-3.18,2.6-12.17,2.24-19.56-.34-9.41-4.69-8.17-8-9.77-11.51h0l-1.44.85-2.37-2.38a46.26,46.26,0,0,1-1.81-8.12c-1.8-6.1-1.92-11.29.44-12.44C59.2,429.54,62.64,433.88,69,444.72Z"/><path class="cls-23" d="M56.35,397.24s-3.87,3.95-4,6-5.25,6.09-5.25,6.09l1.14,1.27s4.87-3,6-2.49.94,2.61,4.35,7.95Z"/><path class="cls-23" d="M76.23,416.78s3.23,12.36,2.55,13.94-5-1.7-5-1.7Z"/><path class="cls-29" d="M352.38,433.38c-.67-2.32-41.57-95.77-42.57-96.77s-36.12-15.13-36.12-15.13l-65.15,4.43L205,351.25l-16.34,14.3L164.16,441l76.27,4.33Z"/><polygon class="cls-30" points="208.54 325.91 242.64 332.29 258.27 330.63 252.62 344.93 282.69 409.11 248.63 364.22 225.35 352.91 205.04 351.25 208.54 325.91"/><polygon class="cls-30" points="188.7 365.55 202.4 379.85 218.03 379.85 240.43 445.36 164.16 441.03 188.7 365.55"/></g></g></svg>