<?xml version="1.0" encoding="utf-8"?>
<!-- Generator: Adobe Illustrator 26.0.2, SVG Export Plug-In . SVG Version: 6.00 Build 0)  -->
<svg version="1.1" id="Capa_1" xmlns="http://www.w3.org/2000/svg" xmlns:xlink="http://www.w3.org/1999/xlink" x="0px" y="0px"
	 viewBox="0 0 933.4 538" style="enable-background:new 0 0 933.4 538;" xml:space="preserve">
<style type="text/css">
	.st0{fill:#FFB6B6;}
	.st1{fill:#FBBEBE;}
	.st2{fill:#2F2E41;}
	.st3{fill:#A0616A;}
	.st4{fill:#15498F;}
	.st5{fill:#3F3D56;}
	.st6{fill:#545161;}
</style>
<path class="st0" d="M754,126.4l0.5,5.3c0.1,0.9,0.8,1.5,1.7,1.6l11.3,0.2c0.9,0,1.7-0.7,1.7-1.6l0.3-5.2c0.1-1-0.7-1.8-1.7-1.8
	l-12.1-0.3C754.7,124.5,753.9,125.4,754,126.4z"/>
<polygon class="st1" points="251,294.5 255.8,308.9 266.1,302.8 261.1,293.1 "/>
<path d="M439.8,446.3c0,0.7-0.5,1.2-1.2,1.2c0,0,0,0,0,0H1.3c-0.7,0-1.2-0.5-1.2-1.2s0.5-1.2,1.2-1.2h437.3
	C439.2,445.1,439.8,445.6,439.8,446.3C439.8,446.3,439.8,446.3,439.8,446.3z"/>
<path class="st1" d="M206.4,289.3c3.8,1.3,5.9,5.4,4.6,9.3c-0.1,0.4-0.3,0.8-0.5,1.2l10.5,13.1l-6.4,8.3L200,302.5
	c-3.4-2.2-4.5-6.7-2.3-10.2C199.6,289.5,203.1,288.2,206.4,289.3L206.4,289.3z"/>
<path class="st2" d="M211.1,324.9l-5.9-14.8l11-7.8l5.1,9.2l7.5,5.1l10,8.9c2.7-2.2,23.4-18.8,30.1-11.8c1.6,1.6,2.5,3.8,2.3,6.1
	c-0.4,5.4-6.1,9.9-6.3,10.1l-12.6,11.8c-0.5,0.8-5.4,9-11.1,10.5c-1.6,0.4-3.4,0.2-4.8-0.7c-12.9-7.9-21.1-15.7-24.1-22.7
	C211.7,327.5,211.3,326.2,211.1,324.9z"/>
<polygon class="st3" points="204.8,518.4 195.2,518.9 188.8,481.8 203.1,481.1 "/>
<path class="st2" d="M210,536.6l-6.9,0.3l-1.5-6.4l-2.8,6.6l-18.2,0.9c-2.3,0.1-4.2-1.6-4.3-3.9c-0.1-1.3,0.5-2.6,1.6-3.5l14.1-10.7
	l-0.3-6.6l15.4,0.2L210,536.6z"/>
<polygon class="st3" points="103.7,438.7 100.2,429.7 133.4,411.8 150.1,422.3 "/>
<path class="st2" d="M88.2,449.4l-2.5-6.4l5.6-3.5l-7.2-0.6l-6.6-17c-0.8-2.1,0.2-4.5,2.3-5.3c1.3-0.5,2.7-0.3,3.8,0.4l14.7,9.9
	l6.1-2.4l4.7,14.6L88.2,449.4z"/>
<path class="st2" d="M291.8,412.3c1.2-0.2,2.2,0.8,1.9,2c-1.6,6.4-7.1,23.6-22.5,25.1c-18.2,1.8-35-5.9-36.4-6.6
	c-0.1,0-0.1-0.1-0.2-0.1l-52.6-16.2c-0.3-0.1-0.6-0.1-0.9,0c-5.2,1.5-52.4,14.9-64.3,18.1c-0.8,0.2-1.6-0.2-1.9-0.9
	c-1.6-3.6-5.9-13.8-5.8-14.5c1.4-6.2,3.1-5.1,4-3.9c0.4,0.6,1.3,0.8,1.9,0.5l58.7-26c0.1,0,0.2-0.1,0.3-0.1
	c1.4-0.3,10.6-1.9,25.8,4.5c15.5,6.6,55.7,21.9,60.2,23.6c0.3,0.1,0.6,0.1,0.9,0.1L291.8,412.3z"/>
<path class="st2" d="M294,410.3c0,0,3.2,30.8-15.3,35.5c-17.6,4.5-41.9-0.1-41.9-0.1l-28.9-3c0,0-1.3,37.2-1.3,55.6
	c-5.9,0.8-11.8,1.2-17.7,1.3c-1.3,0-1.4-0.7-1.4-0.7l-2.5-64.3c-0.7-11.1,7.7-20.6,18.8-21.3c0.7,0,1.3,0,2,0
	c1.4,0.1,2.8,0.1,4.3,0.3c17.8,1.7,39.9-1.9,39.9-1.9L294,410.3z"/>
<path class="st2" d="M242.6,365.6c0,0-7.5,45.5-2.4,49.1s12,3.6,12,3.6l1.6-25.1L242.6,365.6z"/>
<path class="st2" d="M255.1,309.8l-10.1,9.6c-9.6,9.1-12,23.5-5.8,35.2l4.8,9.2L255.1,309.8z"/>
<path class="st4" d="M257.4,311.4l-13.6,15.5c-3,3.4-4.8,7.7-5.3,12.2l0,0c-0.2,2-0.1,4.1,0.2,6.1l5.1,27.9l3.9,40.3
	c0,0,29.8,9,32.8-4.9S257.4,311.4,257.4,311.4z"/>
<path class="st2" d="M248.9,398.5l-3.3-7.6c-0.2-0.5-0.3-0.9-0.4-1.4l-3.6-25.4c-0.2-1.5,3.8-25.7,9.7-51.9c0.2-0.7,0.5-1.4,0.9-2
	l6.3-8.8c0.2-0.3,0.5-0.6,0.8-0.9l0,0c2.2-2,5.5-2.3,8-0.7l6.3,4.1c0.9,0.6,1.6,1.5,1.9,2.5c5,15.9,7.3,28.8,7.4,50.9
	c0,0.4-0.1,0.8-0.1,1.2c-1.6,6.9,1.4,15.2,2.1,21.6c0.1,0.5,0.2,1,0.4,1.5l7.8,19c0.2,0.4,0.3,0.8,0.3,1.2l1.9,11.2l-0.3,0.1
	c-0.3,0.1-5.1,0.8-24.7,4c-15.5,2.6-8-9.5-19-16.1C250.1,400.5,249.3,399.6,248.9,398.5z"/>
<path class="st1" d="M211.3,389.3c2.2-3.4,6.8-4.3,10.2-2c0.4,0.2,0.7,0.5,1,0.8l15.4-6.7l6.4,8.3l-21.8,9.2
	c-3,2.7-7.7,2.5-10.4-0.5C209.6,395.9,209.4,392.1,211.3,389.3L211.3,389.3z"/>
<path class="st2" d="M246.8,394.1l-15.8,1.9l-4.7-12.7l10.2-2.5l6.9-5.9l11.2-7.3c-1.4-3.2-12-27.6-3.5-32.1c2-1.2,4.4-1.4,6.5-0.6
	c5.1,1.8,7.9,8.5,8,8.7l8.1,15.2c0.6,0.7,7.3,7.6,7.2,13.4c0,1.7-0.7,3.3-1.9,4.5c-11,10.3-20.7,16.3-28.3,17.3
	C249.5,394.2,248.2,394.2,246.8,394.1z"/>
<ellipse transform="matrix(0.9929 -0.119 0.119 0.9929 -31.0681 32.2756)" class="st1" cx="254.8" cy="276.4" rx="19.1" ry="19.5"/>
<path class="st2" d="M304.5,261.9c-3.7-3.4-5.8-8.2-8.9-12.1s-8-7.2-12.6-5.7c-3.2,1.1-5.4,4.3-6.2,7.6c-0.9,3.4-0.7,6.9-0.5,10.4
	c-0.8-7.1-6.3-13.5-13-15c-7-1.4-14.1,1.9-17.6,8.2c-4.1-3-9.7-2.4-13.1,1.3c-3.2,4-3.3,9.7-0.1,13.8c3.3,3.8,8.9,4.6,13.1,1.9
	l1.7,1.2c-0.4,3.1,1.4,6.2,4.5,7.1c2.3,0.6,5.5,0.1,6.6,2.4c0.8,1.6-0.1,3.4-1.1,4.8c-1,1.4-2.2,2.9-2.2,4.6c0.1,2.7,3,4.2,5.6,4.4
	c6.3,0.5,12.4-2.9,15.2-8.6c0.1-0.1,0.1-0.2,0.2-0.3c3.3-5.4,4.2-12,2.5-18.1c-0.3-1.2-0.3-2.1,0.6-2.5c3.5-1.7,13.9-0.3,17.3,1.7
	c3.4,2,6.2,4.8,9.4,7c3.3,2.2,7.3,3.6,10.9,2.5c3-1.1,5.4-3.3,6.6-6.2c1.3-2.9,2.2-6,2.5-9.2C319.3,267.7,310.4,267.2,304.5,261.9z"
	/>
<path class="st2" d="M307.4,388.9L307.4,388.9L307.4,388.9L307.4,388.9z"/>
<path class="st5" d="M908.2,111.2l-36.7-5.4c-2-0.4-3.9,0.9-4.3,2.9l0,0l-5.4,36.7c-0.2,2.1,1.2,4,3.2,4.3l36.7,5.4
	c2,0.2,3.8-1.2,4.1-3.2l5.4-36.7c0.3-1.9-1-3.6-2.8-3.9l0,0C908.4,111.2,908.3,111.2,908.2,111.2z M876,143.8l-6.3-0.9l2.9-19.6
	l6.3,0.9L876,143.8z M876.4,120.9L876.4,120.9c-1.9-0.3-3.2-2.1-2.9-4c0.3-1.9,2.1-3.2,3.9-2.9c1.9,0.3,3.2,2.1,2.9,3.9
	C880,119.8,878.3,121.1,876.4,120.9z M899,147.2l-6.3-0.9l1.6-10.7c0.4-2.6-0.3-4.4-2.6-4.8c-1.5-0.2-2.9,0.5-3.6,1.8
	c-0.2,0.5-0.4,1-0.4,1.5l-1.6,11.1l-6.3-0.9l2.9-19.6l6.3,0.9l-0.4,2.7c1.5-1.8,3.8-2.7,6.1-2.3c4.1,0.6,6.9,3.8,6,9.7L899,147.2z"
	/>
<polygon class="st0" points="710.5,427.4 720.5,430.1 735.5,392.6 720.7,388.7 "/>
<path class="st2" d="M707.4,437.8l30.9,8.1l0.1-0.4c1.7-6.6-2.2-13.4-8.9-15.2l0,0l-4.5-5.8l-11.6,1.5l-2.7-0.7L707.4,437.8z"/>
<polygon class="st0" points="762,435 772.3,435 777.3,394.9 762,394.9 "/>
<path class="st2" d="M761.6,445.8l31.9,0v-0.4c0-6.9-5.6-12.4-12.4-12.4h0l-5.8-4.4l-10.9,4.4l-2.8,0L761.6,445.8z"/>
<path class="st2" d="M736,243.3c-2.5,3.1-1.3,13.8-1.3,13.8s-4.4,34.5-2.5,37.6c1.9,3.1-1.3,5.6-3.1,10s-3.8,15-3.8,15
	c-10.7,8.8-10,48.9-10,48.9l-3.8,35.7c1.3,3.8,18.8,4.4,21.3,3.8s27-89,27-89s-1.3,85.3-1.3,89s16.9,1.9,20.7,1.9
	s27.6-153.6,27.6-153.6v-8.8l-3.1-4.4C803.7,243.3,738.5,240.2,736,243.3z"/>
<circle class="st0" cx="763.6" cy="109.1" r="19.4"/>
<path class="st5" d="M737.5,257.2l-0.1-0.1c-5.7-7.9,2.9-27,4.1-29.7l0,0c-3.1-1-5.1-4.1-4.7-7.4l0.6-4.7l0.6-4.6l-4.1-4.1l0-0.1
	l-2.4-20.8l-3.5-13.8c-2.7-10.6,0.6-21.9,8.6-29.4l8-1.3l9.7-9.4h15.7l5.4,5.1c10.6,8.7,13.1,4.9,25,21.2l-8.5,22.5l4.8,33.1l0,6
	l2.5,2.8c1.8,2,2.6,4.8,2,7.4l-0.3,1.6l0,0c2.6,1.1,4.4,3.4,5,6.1l0.9,4.1c0.7,1,5.7,7.6,5.7,9.3c0,0.3-0.2,0.5-0.6,0.8
	c-3.4,2.3-21.9,6.9-30.1,3.6c-8.7-3.5-43.5,1.7-43.9,1.8L737.5,257.2z"/>
<path class="st0" d="M727.6,178.3l16.2-3.2c6,8.9,9.2,33.3,9.2,33.3l17.9,37.1c3.4,2.1,4.5,6.6,2.4,10c-2.1,3.4-6.6,4.5-10,2.4
	c-2.3-1.4-3.6-3.9-3.5-6.6l-23.3-43.9L727.6,178.3z"/>
<path class="st5" d="M727.4,180.1l-0.5-24l7.6-10.2c3.1-4.1,8.2-6,13.2-5.1l0,0c6.9,1.3,11.5,7.8,10.7,14.8
	c-1.3,10.2-4.2,22.9-10.9,25.8l-0.1,0l6.9,24l-18.9,1L727.4,180.1z"/>
<path class="st0" d="M831.8,161.9c0,0-24.1-4.9-34.5-2.2L795,176l29.4,2.6l50.2-9.1c3.7,1.5,8-0.4,9.4-4.1c1.5-3.7-0.4-8-4.1-9.4
	c-2.5-1-5.3-0.5-7.3,1.2L831.8,161.9z"/>
<path class="st5" d="M798.6,183l-22.9-2.5c-0.6-0.1-1.2-0.4-1.7-0.8l-8.4-8.2c-3.6-3.6-4.9-8.9-3.4-13.7l0,0
	c2.2-6.7,9.2-10.4,16-8.7c8.9,2.3,17.8,0.6,21,5.3c0.7,1,2,1.5,3.2,1.1l0.5-0.2c0.5-0.2,1-0.2,1.4-0.1l20.4,3.9
	c1.4,0.3,2.3,1.4,2.4,2.8l3.5,15.7c0,1.7-5.3,2.8-7,2.7L798.6,183z"/>
<path class="st6" d="M741.5,96.4c2-3.1,5.7-5.3,9.4-5.1c0.5,0,0.9-0.3,1-0.8c1.5-7.1,8.4-12,15.7-10.9c2.6,0.4,5,1.5,7,3.2
	c0.3,0.3,0.7,0.3,1.1,0.2c1.1-0.6,2.5-0.6,3.7-0.1c1.4,0.6,2.6,1.6,3.5,2.8c4,5,5.3,11.5,3.8,17.6c-0.2,0.8-1.2,1-1.7,0.5
	c-0.6-0.7-1.5-1.2-2.3-1.3c-1.8-0.4-3.7,0-5.5-0.3c-2.3-0.3-4.4-1.6-6.7-2c0,0-0.1,0-0.1,0c-1.9-0.1-3.9,0.1-5.8,0.8
	c-1.9,0.6-3.9,0.9-5.8,0.8c-2-0.2-4.5,7.2-4.4,12.4c0,1-0.2,2.3-1.2,2.5c-1.2,0.3-1.9-1.4-3-1.8c-1.1-0.3-2.2,0.3-2.6,1.4
	c-0.3,1.1,0,2.2,0.7,3.1c0.7,0.8,1.5,1.6,2.5,2.1l-0.5,0.4c-0.9,1-2.4,1.1-3.5,0.4c-1.1-0.7-1.9-1.7-2.5-2.9
	c-2.2-3.4-3.8-7.1-4.6-11.1C738.8,104,739.5,99.8,741.5,96.4z"/>
<path d="M932.2,447.2l-275.8,0.3c-0.7,0-1.2-0.5-1.2-1.2s0.5-1.2,1.2-1.2c0,0,0,0,0,0l275.8-0.3c0.7,0,1.2,0.5,1.2,1.2
	C933.4,446.6,932.8,447.2,932.2,447.2C932.2,447.2,932.2,447.2,932.2,447.2z"/>
<image style="overflow:visible;" width="512" height="512" xlink:href="../../../../smartphone.png"  transform="matrix(8.285934e-02 3.647698e-02 -4.147637e-02 9.421569e-02 172.8177 242.9107)">
</image>
<image style="overflow:visible;" width="512" height="512" xlink:href="../../../../objetivo.png"  transform="matrix(0.1124 0 0 0.1083 361.5294 150.7884)">
</image>
<image style="overflow:visible;" width="512" height="512" xlink:href="../../../../email.png"  transform="matrix(0.105 4.889867e-02 -4.305137e-02 9.245544e-02 612.6168 94.2158)">
</image>
<image style="overflow:visible;" width="512" height="512" xlink:href="../../../../edificio-de-la-ciudad.png"  transform="matrix(0.125 -3.031138e-02 2.827967e-02 0.1166 196.4791 109.5205)">
</image>
<image style="overflow:visible;" width="512" height="512" xlink:href="../../../../ordenador-portatil.png"  transform="matrix(0.1055 -7.521842e-02 8.260395e-02 0.1159 494.2484 217.0298)">
</image>
</svg>
