<?xml version="1.0" encoding="utf-8"?>
<!-- Generator: Adobe Illustrator 26.0.2, SVG Export Plug-In . SVG Version: 6.00 Build 0)  -->
<svg version="1.1" id="Capa_1" xmlns="http://www.w3.org/2000/svg" xmlns:xlink="http://www.w3.org/1999/xlink" x="0px" y="0px"
	 viewBox="0 0 1920 1080" style="enable-background:new 0 0 1920 1080;" xml:space="preserve">
<style type="text/css">
	.st0{fill:#403E56;}
	.st1{opacity:0.8;fill:none;stroke:#585EA7;stroke-width:2;stroke-miterlimit:10;enable-background:new    ;}
	.st2{fill:#174A8F;}
</style>
<g>
	<path class="st0" d="M502.6,160.5c-0.7-5.3-1.8-10.2-3.6-15.1c-0.5-1.9-1.6-3.3-3.3-4.2c-1-0.4-2.1-0.4-3.3,0l-16.5,2.6
		c-1.3,0-2.8,0.7-3.8,1.6c-2.1,2.5,0,6.3-0.2,9.7c0,3.7-3.1,6.8-6.5,7.9c-3.4,0.7-7,0.7-10.4-0.2l-23-3.9
		c6.9-2.3,12.9-6.7,17.5-12.5c3.1-3.9,4.6-11.1,0.3-12.8c-1.3-0.4-2.6-0.5-3.9-0.4c-10.4,0-18.6-9.3-28.4-13.2
		c-12.9-4.9-27.1-0.4-35.4,11.4l12.2,0.7c1.1,0,2.3,0.2,3.3,0.9c2.6,2.5-0.7,7-0.3,10.7c0.5,4.9,6.5,5.8,10.9,6.3s10.1,4.4,8,8.6
		c-22.5,8.4-45.5-16.3-69.4-13.3c-6,0.7-11.8,3.3-17.5,4.9c-35.9,9.8-72.8-16.3-109.5-10.7c-8.2,1.4-16.2,3.7-23.8,6.8
		c-5.1,1.8-10.1,3.7-13.9,7.7c-3.8,4-5.1,11.1-1.6,15.3c-9.5,0.9-18.9-0.2-28.1-2.8c5.1,3,8.2,8.8,8.2,14.9
		c-14.7,2.6-29,7.4-42.8,14c2.6,4.6,5.5,8.8,8.8,12.6l-18.6,13c6.4,1.8,9.6,10.9,5.9,16.7c6.5-3.2,10.6-11.2,17.6-12.8
		c4.6-1.1,9.3,0.9,13.5,2.8c4.2,1.9,9.1,3.7,13.7,2.3c4.6-1.4,7.8-7.7,4.9-11.8c19.3-6,39.2-9.3,59.2-10c1.5-0.2,3.1,0.2,4.4,0.9
		c2.6,1.9,2,6.1,1.8,9.5c-0.2,3.3,2.3,7.9,5.2,6.3c-3.3,3.2-0.5,9,2.8,12.3c3.3,3.3,7,7.7,5.1,12.1c-0.5,1.1-1.3,1.9-1.8,3.2
		c-1.5,3.3,0.8,7.2,3.6,9.3c2.8,2.1,6,3.7,8,6.8c2,3.2,1,8.4-2.3,8.8l-9.6-13.2c-3.3,3.7-5.5,8.3-6.5,13.2
		c10.1,9,11.8,27.2,3.3,37.9c-4.4,5.4-10.6,8.8-16,13.2c-5.4,4.4-10.4,10.4-10.4,17.6c0,12.5-1,24.1,3.4,35.6
		c8,21.4,17.3,42.1,27.7,62.2c2.8,5.3,6.4,11.1,11.9,11.9c-7-18.4-13.4-37-18.9-56c3.6,0,7.8,0.4,10.1,3.5c1.8,2.6,1.5,6.3,2,9.5
		c0.7,3.2,1.8,6.1,3.4,8.8l33.5,64.3c2.8,5.3,6,11.1,11.3,13.2c3.4,1.4,7.3,1.1,10.4,3.2c2.4,1.6,4.1,4.4,6.5,5.8
		c7,4.2,16.8-3.9,23.5,1.2c2,1.4,3.1,3.7,4.9,5.3c6,5.6,16.2,1.9,23.2,6.1c4.6,2.8,6.9,8.3,9.3,13.2c6,12.5,15.8,24.6,28.9,25.5
		c4.1,0.4,8.3-0.5,12.2,0.5c3.9,1.1,7.8,4.7,7.3,9.1c-1.1,7.4,2.3,15.6,1.5,23.2c-1.6,13.7-19.6,19.7-21.2,33.2
		c-0.3,3,0.2,6.1-0.5,9c-0.8,3.5-3.3,6.5-4.2,10c-1.6,6.7,2.8,13.5,7.7,18.1c4.9,4.6,10.8,8.4,13.5,14.7c2.8,6.7,1.5,14.6,2.4,21.9
		c2,16,14.9,27.7,28.1,35.5c4.1,2.3,8.3,4.6,10.9,8.6c3.4,5.3,3.1,12.3,4.2,18.4c2.8,15.5,14.9,28.1,15.2,43.9
		c0.2,11.2-5.5,21.2-9,31.8c-6.5,20.4-4.4,42.8,5.7,61.5c2.6,4.7,5.7,9.1,7.5,14.2c3.3,9.1,2.1,19.3,5.2,28.4
		c3.9,12.1,14.9,22.1,13.9,34.9c4.9,11.1,15.8,16.5,26.9,19.8l19.7,6c3.8,1.1,7.7,2.3,11.6,1.4c3.9-0.9,7.5-4.2,7.3-8.4
		c-9.6-2.3-19.6-4.9-27.6-11.2c-8-6.3-13.4-17.6-10.4-27.7c1.5-4.7,4.4-10.2,1.5-14c-1.6-2.3-4.6-2.8-6.4-4.9
		c-2.8-3.2-1.8-8.4,0.2-12.3c2-3.9,5.1-7.2,5.9-11.6c0.8-4.9-1.3-10-5.2-12.5c3.6-1.4,7-3.7,9.8-6.7c2.6-3.2,3.8-8.1,1.8-11.6
		c6,0.9,13.1,1.2,17-3.7c3.1-3.9,2.9-9.8,1.6-14.7c-1.3-4.9-3.3-9.8-3.4-15.1c13.9,0.7,27.6,0.2,41.5-1.6c-2-7.2-6.5-13.3-12.6-17
		c6.2-1.1,11.9-9.1,13.9-15.6c2-6.5,1.5-13.5,0.3-20.2c-0.5-1.8-0.5-3.5-0.2-5.3c0.7-2.5,2.9-3.9,4.9-5.1l30.8-19.1
		c1.8-1.1,3.6-2.3,4.9-3.9c3.3-4,2.8-10.2,1.1-15.3s-4.2-9.8-4.9-15.1c-2-16,13.9-27.4,19.3-42.3c2.1-5.8,2.4-12.3,2.9-18.6
		c0.5-6.7,0.5-14.6-4.4-19c-4.6-4.2-11.9-3.2-16.6-7.2c-4.4-3.5-6-10.5-10.8-13.3c-4.4-2.6-10-0.9-14.9-2.1
		c-8.6-2.1-14-12.8-22.8-13.9c-4.9-0.5-10.6,2.1-14.7-1.1c-3.6-2.8-3.8-8.3-4.4-13c-2.4-14.9-13.2-26.5-27.1-29.1
		c-5.1-0.9-10.6-0.5-15-3.5c-4.4-3-6.4-8.8-10-13c-5.5-6.8-14.4-9.3-22.5-11.4l-33.5-8.4c-5.9-1.6-13.5-2.3-16.8,3.3
		c-1,2.1-1.6,4.4-2,6.7c-2.4,8.6-9.8,14.6-18.1,14.7c-2.8-5.1-7.3-9-12.7-10.5c-3.4-1.1-7-1.1-10.3-2.6c-7.2-3.7-10.1-13-6.7-20.7
		c0.2-0.2,0.2-0.5,0.3-0.7c3.9-7.5,2.8-17-3.1-23.2c-5.7-5.4-13.9-6.8-21.5-6.3c-2-4.7,1.3-10,4.9-13.3c3.6-3.3,8-6.8,8.8-11.9
		c1.3-8.1-8.3-14-15.5-11.8c-7.2,2.3-11.8,10-14.9,17.4c-1.8,4.2-3.3,8.8-6,12.3c-2.8,3.5-7.2,6.1-11.4,5.1
		c-5.9-1.6-8.2-9.3-9.5-15.6c-1.8-8.6-3.6-17.4-3.1-26.2c0.5-8.8,3.1-17.9,9.1-23.9c9.8-9.8,25-8.8,38.4-7.2
		c-3.1-3.9-2.4-10.2,1-13.9c3.6-3.5,8.6-4.7,13.2-3.5c4.1,0.9,7.7,3.2,10.3,6.7c3.8,4.9,4.9,11.6,7.7,17.4s9.3,10.4,14.5,7.4
		c4.6-2.6,5.2-9.5,4.1-14.7c-1.1-5.3-3.6-10.7-3.1-16.2c0.8-10.5,10.9-16.9,19.9-21.2s19.3-10.2,20.7-20.7c0-2.1,0.5-4,1.1-6
		c1-1.8,2.4-3.2,4.1-4c26.1-18.6,52.9-37.4,82.7-47.6c1.6-0.5,1.8,0,3.3-0.4c2.3-1.4,0.8-5.3-1.3-6.7s-4.9-2.6-5.5-5.4
		c-0.3-1.9,0.7-3.9,1-6c0.7-4.9-4.7-9.5-9-7.6c-2.4-3.5,2.3-7.4,6.2-8.6c11.6-3.3,23.3-5.4,35.4-6.1c1.3-0.2,2.8,0,4.1,0.7
		c2,1.6,1.8,4.9,0.3,7c-1.5,2.1-3.6,3.5-5.4,5.3c-3.9,4.2-5.4,10.4-3.8,16c6.2,3.3,13.1,6.8,19.9,5.8c6.9-1.1,13.1-9.5,9.8-16.2
		c-3.1-6.1-12.1-7.6-13.7-14.4c-1.8-7.9,8.6-15.1,6.4-22.8c-1-3.3-4.2-5.4-6.7-7.9c-5.9-6.1-7.7-15.6-4.4-23.9
		c-8,1.6-16.3-1.2-22-7.4c-5.2-5.8-9.5-14.7-17-14.6c-6.9,0.2-12.7,9-19.3,6.3c-1.6-0.7-3.3-1.9-4.7-1.2c-1,0.7-1.6,1.9-1.8,3.2
		c-1.6,8.4,1.1,17.9-3.1,25.3c-4.6,7.9-15.3,9-21.1,16.2c-3.1,3.9-4.2,9.1-7,13.2c-2.8,4-8.8,6.7-12.1,3.2
		c3.4-7.6,1.5-16.7-4.6-21.8c-3.1-2.1-6.5-4-10-5.3c-3.9-1.8-7.7-4-11.3-6.7c-1.8-1.1-3.1-2.8-4.1-4.7c-0.8-2.5-0.7-5.1,0.3-7.6
		c3.4-10.7,12.2-18.4,22.7-20.2c4.4-0.7,9.6-0.4,12.7-4c1.6-1.9,2.4-4.9,4.7-5.6c1.5-0.4,2.9-0.2,4.2,0.5l16.6,6.3
		c1.8,0.9,3.9,1.2,5.9,1.1c2.1-0.4,3.6-2.3,3.4-4.6c-0.5-3-4.7-4.4-4.4-7.4c0.2-1.1,0.7-1.9,1.5-2.5c12.2-14,29.5-21.4,47.5-20.2
		c2.1,3.7-1.3,8.1-4.1,11.4s-5.1,9-1.6,11.2c1.3,0.7,2.9,1.1,4.4,1.1c4.1,0.5,8.2,1.9,11.9,3.9c5.7,2.6,11.4,5.6,17,9
		c-0.5-3.9-1-8.1,0.5-11.8c1.5-3.7,5.4-6.5,8.8-5.1c3.3,1.4,5.1,6.1,8.5,6.5c4.7,0.5,6.5-6.8,4.6-11.6s-5.9-8.6-6.2-13.7
		c-0.2-3.5,1-7.7-1.6-9.8c-1-0.7-2-1.1-2.9-1.1l-63.8-12.6c-3.8-0.7-9.3-0.2-9.5,4c-0.2,2.3,1.8,4.6,1,6.7c-1,2.3-3.9,2.1-6,2.8
		c-3.4,1.2-5.1,5.6-4.7,9.3c0.7,3.9,2,7.4,3.9,10.5C513,162.7,506.8,162.4,502.6,160.5z"/>
	<path class="st0" d="M451.7,102.2c-8.2-3-17.3,0-22.7,7.4c-1,1.4-2,3.5-1,5.1c1.3,2.3,4.4,1.4,6.9,0.5c3.4-1.4,7.3-1.4,10.8-0.4
		c2.3,0.9,4.2,2.3,6.4,3c2.3,1.1,4.7,0.5,6.7-1.1c1.5-1.8,1.6-4.2,1.6-6.7c0.2-1.6-0.3-3.2-1.3-4.4c-0.8-0.5-2-0.9-2.9-0.9
		c-2.3-0.5-4.4-1.8-5.9-3.7"/>
	<path class="st0" d="M474.7,95.3c-2.9-0.2-5.4,2.3-5.5,5.3c0,0.9,0.2,1.8,0.5,2.6c2.8,0.9,5.7,1.1,8.5,0.5c2.9-0.5,5.2-2.8,5.9-5.8
		c-3.3,0.7-6.9,0-9.6-1.9"/>
	<path class="st0" d="M551.9,83.9c-7.5,1.8-14.9,4.4-21.7,7.9c6.7,2.8,10.9,10,10.4,17.7c-0.3,1.4-0.3,3,0.2,4.4
		c0.8,2.1,3.1,2.8,5.2,3.3c3.6,1.2,7.5,1.8,11.3,1.6c3.9-0.2,7.3-2.5,9.3-6.1c0.5-1.8,1.1-3.3,2-4.9c4.9-8.1,19.4,1.8,24.6-6.1
		c1.8-2.8,1.6-6.8,4.1-9c1.3-0.9,2.6-1.6,4.2-1.8c10.6-2.3,21.2-3.9,31.8-4.9c5.1-0.5,11.8-2.5,11.8-7.9c-19.1-4-39-1.2-56.3,8.1
		c-6.4,3.3-14.5,10.5-20.7,6c-2.3-1.8-2.1-6.1-5.2-8.1C559.5,82.3,555.3,83,551.9,83.9z"/>
	<path class="st0" d="M614.4,96.4l9,1.9c-6.4-0.4-11.9,5.1-12.1,11.9c0,0.5,0,1.1,0,1.6c8.3,3,17.6,0,26.4,0.5
		c8.8,0.5,19.1,7.2,17.6,16.7c-0.5,2.8-2,5.6-1.1,8.4c0.5,1.9,2.1,3.3,3.1,5.1c1.8,3.7,0.3,8.4-2,11.8c-2.3,3.3-5.5,6-7.5,9.7
		c-5.1,9-2.3,20.4,0.8,30.4c0.8,3.7,2.4,7.2,4.7,10.2c4.6,5.1,11.9,5.6,18.4,5.8c4.7,0,10.3-0.2,13.4-4.2c3.9-5.3,1.1-13.3,3.8-19.5
		c2.4-5.6,8.5-7.9,13.9-9.7c10-3.2,20.2-5.8,29.7-10.4c11.8-5.8,22.8-14.9,35.7-15.6c3.6-0.2,7.3,0.2,10.9-0.9
		c3.6-1.1,6.9-4.4,6.5-8.3c-0.2-3.3-2.8-5.8-4.9-8.3s-3.6-6.3-1.8-9l33.9-6.8c-2.4-7-4.2-16.3,1.3-20.9c2-1.6,4.7-2.3,6.4-4.4
		c2.9-3.3,1.5-9.3-2-12.1c-3.4-2.8-7.8-3.5-12.1-4c-14.9-1.4-29.9-0.5-44.7,0.4c-29.2,1.8-58.3,3.5-87.5,5.1
		c-5.9,0.4-12.6-0.2-18,1.9c-4.6,1.8-7.8,5.1-13.1,6.3C633.6,92.2,623.2,90.6,614.4,96.4z"/>
	<path class="st0" d="M775.1,172.7c-1-0.2-1.8,0-2.6,0.7c-0.5,0.5-0.8,1.4-0.8,2.1c-0.7,3.5,0.2,7.2,2,10.2c2,3,5.2,4.7,8.5,4.4
		c4.1-0.5,7-4.2,10.8-6.1c5.7-2.8,30-7.2,13.2-16.9c-5.9-3.3-9.5-0.4-14,1.8C786.7,171.9,781,173.1,775.1,172.7z"/>
	<path class="st0" d="M922.5,90.9c-2,0.9-3.6,2.5-4.7,4.4c-1,2.1-0.3,4.7,1.5,5.8c0.7,0.4,1.5,0.4,2.3,0.4l8,0.2
		c3.4,0.2,7.7,0.9,8.5,4.4c0.7,2.6-0.8,6,1,7.9c0.8,0.7,1.8,1.1,2.8,1.1c2.6,0.7,5.4,0.9,8,0.4c5.9-1.8,2.8-5.4,4.6-9
		c2.8-5.3,2.3-2.1,7.2-5.1c3.6-2.3,8.3-6.1,5.4-11.8C961.7,80,930.2,86.7,922.5,90.9z"/>
	<path class="st0" d="M1080,86l-4.6,0.7c-10.4,1.6-20.9,3-31,6.3c4.4,1.9,9,3,13.5,3.5c2.6,0.2,5.1,0.5,7.7,1.2
		c4.4,1.4,9,5.1,13.2,3.2c2.6-1.2,3.6-4.2,5.7-5.8c1.5-1.1,7.3-2.8,8-4C1097.6,82.5,1084.1,85.5,1080,86z"/>
	<path class="st0" d="M1100.4,108.7c-6.2,3.7-11.9,8.3-17.1,13.5c-2.1,2.3-4.4,4.9-4.2,8.1c0.3,4.2,4.4,6.7,8.2,8.4l14.9,6.7
		c1.8-2.8,0.2-6.5-1.6-9.1c-1.8-2.6-4.1-5.8-3.3-9c1-3.7,5.1-4.9,8.6-5.6c5.7-1.1,21.1-0.9,19.3-10.9
		C1122.7,99.2,1106.1,105.1,1100.4,108.7z"/>
	<path class="st0" d="M1097.4,767.3c-1.5,4.4-1.5,9.7,0.8,13.3c2.8,4.4,8.2,6,12.9,4.7c4.7-1.4,9-4.2,12.1-8.3
		c2.8-3.3,5.2-7.2,6.9-11.4c2.4-6.5,4.2-13.3,5.1-20.2l4.6-26c1-5.8,1-23.7-9-17.7c-2.8,1.6-9,14-11.8,17.7
		c-5.1,6.3-5.9,12.6-8.5,20.4C1107.2,749.5,1100.5,757.6,1097.4,767.3z"/>
	<path class="st0" d="M1628.7,718.6c1-5.6,6.2-10.5,4.6-16c-1.1-3.7-5.2-5.6-8.8-5.6c-3.6,0-7.2,1.1-10.9,1.2
		c-2.4-0.2-4.7-0.2-7.2,0.2c-7.2,1.2-11.8,9.5-18.6,12.3c-4.1,1.8-8.8,1.4-13.2,2.6c-9.8,2.8-16,12.8-22.8,20.7
		c-11.1,13-25.5,21.9-41.5,26c-5.5,1.4-11.6,2.3-16,6.1c-5.9,5.1-7.3,14-8.6,22.1c-3.6,22.1-9.1,43.9-16.5,65.1l23.3,3.2
		c4.4,0.5,9,1.2,13.2-0.2c3.1-1.2,6-3,8.8-5.1c10.4-6.8,22-11.4,34.1-13.2c6-0.9,12.6-1.1,18.3,1.4c5.7,2.5,10.6,7.9,11.1,14.6
		c5.1-1.8,10.6-0.2,14.4,3.7c3.6,4,6,9.1,6.9,14.7c0.7,3.5,1.3,7.6,4.2,9c2.4,1.2,5.2-0.2,7.8-0.4c9-0.7,16.3,10.5,25.1,8.6
		c9.5-2.1,11.8-17.2,20.9-20.4c5.2-1.8,12.7,0.4,15.2-4.9c2.3-4.7-2.3-10-1.8-15.3c0.5-6.5,7.7-9.1,13.1-11.9
		c18.8-9.5,27.6-36.5,18.6-56.5c-5.4-11.9-16-21.2-18-34.2c-1.5-10,2.1-21.8-3.8-29.7c-3.1-4-8.2-6.1-10-11.1
		c-1.1-3-0.7-6.5-1.3-9.7s-3.3-6.5-6-5.6c-8.5,2.5-11.3,30.6-15.7,37.4C1640.7,738.3,1626.5,731.4,1628.7,718.6z"/>
	<path class="st0" d="M1471.8,661.9c-2.9-0.9-6-1.8-8.8-0.5c-2.8,1.2-4.4,5.6-2.1,7.9c17.5-0.7,34.9-1.4,52.2,1.1
		c19.9,3,39.7,10.2,59.7,8.1c-11.4-3.7-23-6.5-34.8-8.6l-19.6-4c-5.2-1.2-10.6-2.1-15.8-2.6C1491.2,662.1,1482.9,665.3,1471.8,661.9
		z"/>
	<path class="st0" d="M1489.3,596.6c-1.5-0.2-3.3-0.2-3.9,1.1c-0.7,1.2,0.2,3-0.3,4.4c-0.5,1.9-2.9,2.5-4.7,2.1
		c-1.8-0.4-3.9-0.9-5.5,0c-1.8,1.2-2.4,3.7-1.8,5.8c0.7,2.1,1.8,4,3.3,5.6c2.4,3.3,5.2,6.3,8.3,9c6,4.7,14.2,7,18,14
		c0.5,1.4,1.3,2.5,2.4,3.5c1.8,1.2,4.2,0.4,6.2-0.7l6.9-3.3c1.3-0.5,2.3-1.2,3.3-2.3c1.6-2.3,0.7-5.4-0.7-7.9s-2.9-4.9-2.8-7.9
		c0.5-5.1,6.5-7,9-11.2c2.4-4.4,0.8-9.8,1.1-14.9c0.3-6,3.8-13.7-1.8-18.1c-4.7-3.9-9.3-0.4-12.7,3.9
		C1505.9,588.3,1502.5,597.8,1489.3,596.6z"/>
	<path class="st0" d="M1530.9,507.8c2.3,4.7,7.2,7.7,9.8,12.3c2.8,5.1,2.4,11.6,5.4,16.5c3.1,5.1,9.3,7.7,10.9,13.5
		c2,6.3-2.4,13.9,1,19.3c2.6,3.5,7.3,4.2,10.6,1.6c0.2-0.2,0.3-0.4,0.5-0.5c2.9-3.5,2.8-9-0.3-12.3c-2-1.9-4.9-2.8-6.5-5.1
		c-0.8-1.4-1.5-2.8-1.6-4.4c-1-4.6-0.8-9.5,0.5-14c0.5-1.2,0.5-2.5,0.3-3.7c-0.8-2.3-3.8-2.5-5.9-3.7c-4.7-2.5-4.6-9.7-3.8-15.3
		c-0.5,3.7-12.9-2.6-14.2-4.7c-2.6-4.2-1.1-12.3-1.6-17C1530.1,493.4,1528,501.8,1530.9,507.8z"/>
	<path class="st0" d="M1406.1,581.9c-2.3-2.8-5.7-5.6-8.8-4c-2.3,1.2-2.9,4.7-2.1,7.4c1.1,2.6,2.8,4.7,5.1,6.3
		c6.4,5.6,13.2,10.7,18.8,17.4c10,11.8,15.2,27.7,26.1,38.6c2.1,2.5,5.1,4.2,8.2,4.7c3.1,0.4,6.7-1.9,7-5.3c0.3-2.8-1.5-5.3-3.3-7.4
		c-4.2-4.9-8.8-9.5-12.7-14.6c-1.8-1.9-2.9-4.6-3.3-7.4c0-2.8,2.3-5.6,4.9-4.9c-3.1-0.9-5.2-6.3-9.8-7.4c-3.8-0.9-4.6,1.6-9.1-0.4
		C1418.6,601.2,1412.1,588.9,1406.1,581.9z"/>
	<path class="st0" d="M1604.8,313.7c-2.4-0.7-4.7-1.8-7.2-2.8c-6.2-2.1-14.5,3-13.7,10c0.5,4.6,4.6,7.7,6.9,11.8
		c3.3,6,2.4,13.5,0.7,20.2c-0.5,2.1-1.3,4-2.4,5.8c-1.6,1.8-3.4,3.3-5.5,4.4c-8.5,5.1-16,11.9-22,20.2c-0.7,0.7-1.1,1.8-1.3,2.6
		c-0.3,2.3,2,4,3.1,6c2.8,4.4,0.8,10.2,1,15.6c-0.2,1.6,0.5,3,1.8,3.9c1.6,0.9,3.6-0.7,4.6-2.5c2.9-5.8,0.8-15.3,6.4-18.1
		c1.1-0.5,2.3-0.7,3.1-1.8c1.1-1.6,0-4,0.7-5.8c0.8-2.8,4.6-3,7.3-2.8c4.9,0.2,9.6-0.5,14.2-2.1c1.8-0.5,3.4-1.4,4.7-3
		c1.6-2.3,1.5-5.4,1.1-8.4c-1.6-14.4-5.9-28.3-12.4-40.7c4.9,0.7,10.3,1.2,14.7-1.6c2.4-1.6,5.2-6.1,4.1-9.3
		C1612.3,310.4,1608.9,314.6,1604.8,313.7z"/>
	<path class="st0" d="M970.1,392.6c0.7,3.3,1.1,7,0.2,10.4c-1,3.3-4.2,6-7.3,5.1c-2.4-0.7-3.8-3.3-5.5-5.4
		c-9.5-11.1-30.8-4.6-36.7-18.3c-2.4-5.6-0.8-12.3-2.4-18.1c-2.1-7-8.3-11.6-15.2-11.1c-2.9,0.5-5.9,1.4-8.6,2.8
		c-18.4,7.9-38,13.2-57.8,15.6c-3.8,0.2-7.5,1.1-11.1,2.1c-8.2,3.2-13.7,11.2-17.6,19.7c-3.9,8.4-6.9,17.2-12.2,24.6
		c-5.5,7.7-13.4,13.2-20.7,19c-2.8,1.9-5.2,4.6-6.9,7.7c-1.6,3.5-1.5,7.5-1.3,11.4l1.5,47.1c0.2,6.1,0.5,12.3,2.9,17.7
		c3.1,6.8,9.3,11.2,13.7,17.2c4.4,6.1,6.7,13.7,6.5,21.6c-0.2,3.2-0.3,6.8,2,8.8c1.3,0.9,2.9,1.4,4.6,1.4l59.2,5.3
		c10.4,0.9,22,2.5,28.7,10.9c3.3,4,5.7,9.8,10.8,10.2c2.1,0.2,4.2-0.7,6.2-0.9c5.4-0.5,10,3.9,12.9,8.6c4.4,7.4,6.5,16,5.7,24.8
		c-0.5,5.4-2.1,10.7-2.4,16.3c-1.3,20.9,15.2,39,15.5,59.9c0.2,12.3-5.2,23.7-10.4,34.6c8.5,13.9,1.5,32.5,4.9,48.6
		c3.3,15.5,15.2,27.6,18.1,43c1.3,7,1.5,15.8,7.2,19.5c2.6,1.4,5.4,1.9,8.2,1.8c17.1,0.2,33.9-3.9,49.3-12.1
		c7.2-3.9,14.7-9.5,15.8-18.1c1-6.8-2.3-14.6,1.1-20.5c3.9-7,13.9-6.5,19.6-11.9c9.3-8.8,2.1-25.6,5.9-38.3
		c3.4-11.4,15-17.4,20.7-27.6c2.3-4.4,3.9-9.1,4.9-14c2.6-11.8,4.2-23.7,4.9-35.8c0.2-7.4,0.7-14.7,1.5-21.9
		c6.2-41.4,44.4-69.4,56.8-109.2c1.1-3.9,1.8-9-1.5-11.1c-1.8-0.9-3.9-1.2-6-0.7l-27.3,3.7c-3.4,0.5-7,0.9-10.1-0.7
		c-3.1-1.6-5.4-5.8-3.8-9c4.6-9-4.9-20.5-9.1-29.7c-11.4-24.9-25-48.6-40.6-70.9c-1-1.1-1.6-2.6-1.8-4.2l7.8,0.4
		c-2.6-10.2-7-21.2-16-24.9c-5.2-2.1-10.8-1.4-16.3-1.1C1002.6,397.7,985.7,395.2,970.1,392.6z"/>
	<path class="st0" d="M1018.3,164.8c4.1,4.7,8.6,9.7,14.7,10.5c10.4,1.4,18.1-10.2,22.8-20.4c0.3,5.4,4.7,9.5,9.6,9.3
		c2.6-0.5,5.1-1.6,7.3-3c20.9-12.3,44.1-18.8,67.9-18.8c-0.5-4,2-7.7,5.5-8.6c4.9-1.1,9.1,3.5,11.4,8.1c2.3,4.6,3.8,10,7.5,13.5
		c3.8,3.5,10.9,3.3,12.2-1.8c1.5-4.9-3.3-9-7.2-11.8c-3.9-2.8-8-8.1-5.4-12.3c19.9-4.7,40-9.5,60.4-10.5c3.4,0.2,6.9-0.5,10.1-1.9
		c3.1-1.6,5.5-5.4,4.7-9c-9.1,2.3-18.6-1.6-24-9.8c28.2-2.5,58.4-4.7,83.6,9.7c2.9,7-12.4,12.8-8.2,19c1.3,1.9,3.9,2.3,6.2,2.3
		c17.5,0.4,34.9,0.7,52.2-2.1c6.4-1.1,12.7-2.5,18.9-1.6c10.6,1.4,19.6,9,29.9,11.4c4.2,1.1,9,1.1,12.6-1.6
		c3.6-2.6,5.1-8.6,2.1-12.1c9.8-10.4,25.9-7.7,38.8-2.8c12.9,4.9,25.1,12.8,38.7,14c9.8,0.7,19.7-2.1,29.4-0.2
		c6,1.1,11.8,4,17.6,5.8c11.3,3.3,23,2.6,34.8,2.8c29.7,0.4,59.1,6.7,86.7,18.6c3.6,1.2,6.9,3.3,9.6,6.1c2.6,3,3.9,7.6,2.1,11.2
		l-28.6-4.6c2.6,5.6,9.6,6.7,15.3,8.6c5.7,1.9,11.4,8.6,8.2,13.9c-6-2.1-11.6,4.6-14.7,10.5s-6.9,13.3-13.2,13.7
		c-5.7,0.4-12.7-4.9-16.5-0.2c5.2,7,9.6,14.6,13.2,22.7c3.8,8.3,6.4,18.8,1.3,26.2c-0.8,1.4-2,2.3-3.4,2.8c-4.1,1.1-6.7-4.2-9.6-7.5
		c-3.8-4-9.3-5.3-14.2-7.2c-4.9-1.9-10.3-5.8-10.6-11.4c-0.2-3.5,1.5-6.8,2.8-10.2c2.1-5.4,3.1-11.4,2.8-17.4
		c-0.3-4.7-1.5-9.8-4.7-13.2c-3.3-3.3-8.8-4.4-12.2-1.4c-1.6,1.4-2.9,3.7-5.1,3.9c-3.8,0.2-6.5-6.8-9.5-4.4c0.3,2.5-0.2,5.1-1.3,7.2
		c-8.8,8.3-22.4,4.7-33.8,7.7c-5.4,1.8-10.6,4-15.5,7.2c-1.8,0.9-3.3,2.3-4.4,4c-1.5,3,0.2,6.8,2.6,8.8c2.6,1.8,5.7,2.8,8.8,3.2
		c13.9,2.8,28.1,7.2,39,16.9c10.9,9.7,18.1,25.5,14.7,40.2l-27.4-28.3c1,11.8,1.6,23.7,1.8,35.6c0.2,2.3-0.2,4.7-0.8,6.8
		c-2,4.6-7.2,6.1-11.9,7.2c-5.1,1.1-8.3,6.3-7.3,11.8c0,0.4,0.2,0.7,0.3,1.1c1.6,5.8,5.7,10.4,9.5,14.7c3.8,4.4,7.5,9.7,8,15.6
		c0.5,6-3.8,12.8-9.3,12.5c-4.2-0.4-7.3-4.4-9.3-8.6c-2-4.2-2.9-8.8-5.5-12.3c-8.3-10.7-26.8-6.1-34.1-17.6
		c-3.8,4.7-5.1,11.1-3.4,17c3.4-2.3,8.2-0.2,10.8,3.2c2.6,3.3,3.8,7.7,5.9,11.4c2.8,5.1,7,9.7,7.5,15.5c-0.2,2.3,0,4.4,0.2,6.7
		c0.7,3.5,3.4,6.1,5.4,9.1c4.6,6.8,4.2,16.5,1.3,24.2c-2.9,7.7-8.2,14.4-13.4,20.7c-9,11.1-18.3,22.1-29,31.4
		c-3.1,2.6-6.4,5.3-8.2,9s-2,8.8,1,11.6c-2.1,0.2-5.9,1.2-8,1.4c-0.8-9-0.8-18.1-0.5-27.2c-8.3-4.2-17.1,7.2-16.2,17
		c1,9.8,7.7,17.7,12.4,26.2c3.4,6.1,6,13.3,4.9,20.5c-1.1,7.2-7,13.7-13.7,13c-10.6-1.1-15-17.4-25.6-19.3c-1-0.2-2-0.2-2.8,0.4
		c-1.6,0.9-1.8,3.2-2,5.1c-0.5,9.3-0.8,19.1,2.6,27.7c5.1,12.6,17.8,23.4,15.2,36.7c-14.5-7.2-22.2-24.8-25.6-41.8
		s-4.1-34.6-10.1-50.6c-4.7,6.5-14.5,1.1-18.8-5.6c-4.1-6.5-6.5-13.9-10.4-20.4c-3.9-6.5-10-12.3-17.1-12.6
		c-7.5-0.4-14,5.3-19.9,10.5c-4.7,4.4-9.6,8.8-12.4,14.7c-4.1,8.8-2.9,19-3.1,28.6c-0.2,10.5-2.3,21.6-9,29.3s-18.9,10.4-26.3,3.5
		c-3.9-3.7-5.7-9-7.3-14.2c-8-25.1-14.7-50.6-19.9-76.4c-1.3,6-6,13.5-10.6,10c-1-0.9-1.8-2.1-2.4-3.3
		c-8.6-15.6-24.5-25.1-40.5-30.7s-33-8.3-48.8-14.4c-9-3.5-17.5-8.1-25.3-13.5c-4.1,6.5-4.6,14.9-1.1,21.9
		c3.6,6.7,11.4,10.5,18.3,8.3c3.6-1.2,6.5-3.9,10-5.1c3.4-1.2,8.2-0.7,9.8,3c1.5,3.5-0.8,7.7,0.3,11.2c1.6,5.4,9.5,6,12.1,10.9
		c2,3.7,0.3,8.8-2.4,11.8s-6.7,4.7-10.3,6.8c-11.4,6.8-19.4,18.4-29.4,27.6c-10,9.1-24,15.6-35.9,9.8c2.8-15.5-14.2-26.7-17.3-42
		c-1-5.1-0.5-10.4-2-15.3c-2.1-7.2-8-11.9-12.9-17.4c-11.8-13.3-18.1-31.3-17.5-49.7c0.3-6.3,1.3-12.8,0-19
		c-1.3-6.1-6-12.1-11.9-11.9c-13.4,0.7-30.4,1.8-37.4-10.5c-2.4-4.4-3.6-10.9,0-14.2c2.6-2.5,6.4-2.1,9.8-1.8l30.4,3.2
		c7,0.7,14.7,1.4,20.9-2.6c6.2-4,8.6-14.6,3.1-19.3c-4.1-3.5-11.4-3.2-12.7-8.6c-1-4.6,3.8-9.7,1.1-13.5c-1.8-2.6-5.9-1.9-8.3,0
		c-2.4,1.9-4.2,5.1-7,6.5c-4.9,2.6-10.6,0.2-15.8-1.6c-5.2-1.8-12.2-1.9-14.7,3.3c-2.8,5.8,2.4,13.3-0.3,19.3
		c-3.8,7.7-16.3,3.3-21.4,10c-6,7.6,4.1,19,2.1,28.6c-5.2,2.8-11.4,2.5-16.3-1.1c-4.9-3.5-7.5-9.7-6.9-16c0.5-4.4,2.6-8.8,1.1-13
		c-1.1-3.3-4.2-5.3-7.2-7l-29.4-17.6c-2.8,5.4,0.7,12.3,5.1,16.3s9.8,7.2,12.6,12.6c3.8,7.7,1.1,17.4-5.7,21.8
		c-0.8,0.7-2,0.9-2.9,0.5c-1-0.5-1.6-1.6-2-2.8c-5.2-14.2-13.1-28.4-25.5-35.8c-12.4-7.4-30.4-6-38.5,6.7c-2,3-3.3,6.3-4.9,9.5
		c-9,16.9-28.2,24.8-46.3,24.2c-1.8,0.2-3.6-0.4-5.1-1.2c-2.9-2.1-2.8-6.7-2.3-10.5l2-16c0.3-3.2,1-6.8,3.3-8.8
		c3.3-2.8,8.2-1.1,12.4-1.1c6.5-0.4,12.2-5.1,14.2-11.8c1.8-6.8-0.2-14-4.9-19c-2-1.9-4.6-4.4-3.6-7c0.8-1.4,2.3-2.5,3.8-2.8
		c7.7-2.5,15.7-3,23.2-5.8c7.5-2.8,14.9-8.6,16.5-16.9c0.5-2.6,0.8-5.6,2.9-6.8c1.1-0.5,2.3-0.7,3.4-0.7c8.5-1.2,14.5-9.3,14-18.4
		c3.6-2.6,8.6-0.7,12.1,2.1c3.4,2.8,6.5,6.7,10.8,7.9c7.8,2.3,15.5-5.3,23.7-5.3c3.4,0,7,1.2,10.3,0c3.3-1.2,5.2-4.7,7.8-7.4
		s6.9-4.2,9.3-1.4l-2-15.8c8,2.1,16.6,0.5,23.5-4.6l-25.6-9.3c-0.8-0.2-1.6-0.7-2.4-1.4c-1.8-2.1,0-5.4,1.5-7.9
		c3.6-5.8,4.2-15.5-1.8-18.4c-4.1-1.9-8.6,0.4-12.6,2.8l-18.6,11.2c-0.7,3.9,3.8,6,6.4,8.6c4.4,4.2,4.9,11.6,0.8,16.3
		c-2,2.5-4.9,3.9-8,3.9c2.4,3.5,3.4,8.1,2.4,12.3l-12.6,1.1c-1.5,0.4-2.9,0-4.1-0.9c-1.3-1.2-1.1-3.5-1.5-5.4
		c-0.8-4.6-4.9-7.9-9.1-8.6s-8.6,0.2-12.9,1.2c-1.8,0.7-3.8,0.7-5.5-0.2c-1-0.7-1.8-1.8-2.1-3c-1.8-4.9-0.2-10.5,2.8-14.6
		c2.9-4,7-7.2,10.8-10.5c8.8-8.3,15.2-19,18.6-30.9c6.9-3.2,14-7.4,21.1-10.5c10.6-5.8,22.7-8.3,34.6-7.2l23.3,0.5
		c6.9,0.2,14,0.4,20.4,3.2c6.4,2.8,12.1,9,12.6,16.5c0.3,1.8-0.3,3.5-1.5,4.6c-1,0.5-2,0.7-2.9,0.7
		C1027.6,162.9,1024.8,164.7,1018.3,164.8z"/>
	<path class="st0" d="M831.6,243.9c1.8-1.9,2.6-4.7,1.8-7.4c-4.6-1.9-9.6-0.9-13.2,2.6c-1.5,1.6-2.6,3.2-3.6,5.1
		c-3.1,5.4-5.9,11.9-4.1,17.9c0.3,1.4,1.1,2.5,2.1,3.2c0.8,0.4,1.6,0.5,2.4,0.4c3.4,0,6.9-0.2,10.1-0.7c2.1-0.4,4.4-0.9,5.2-3
		c1-2.6-1.5-5.8-0.8-8.6c0.5-1.2,1.3-2.5,2.1-3.3c1-0.9,1.5-2.3,1.3-3.7c-0.3-1.4-2.1-2.1-2.9-0.9"/>
	<path class="st0" d="M849.2,219.3c-2.9-0.7-6-0.9-9.1-0.7c-0.7,0-1.3,0.2-2,0.5c-0.7,0.5-1,1.1-1.1,1.9c-1.3,4.6,0.8,9.7,5.1,11.4
		c1.1,0.4,2.1,0.7,3.1,1.4c2.6,2.1,1,6.7,1.5,10.2c0.5,3.9,4.1,7.2,3.4,11.1c-0.5,3.2-3.6,5.4-3.1,8.6c0.5,3.2,4.4,4.2,7.3,4.4
		c1.8,0.4,3.6,0.2,5.2-0.7c1.6-1.2,2.8-3,3.3-5.1c1.3-4,1.8-8.3,1.5-12.5c0-1.9-0.5-3.9-1.3-5.4c-1-1.4-2-2.6-3.1-3.7
		C854.1,233.5,860.3,222.8,849.2,219.3z"/>
	<path class="st1" d="M1614.8,790.1c0,0-445.9-275.3-637.8-223.2c0,0-406.9,47.1-454,150.6c0,0-129.3-434.7-176.4-449.3"/>
	<path class="st1" d="M523,717.6c74.7-214.4,748.3-452.1,748.3-452.1C1175.6,291.6,977,566.9,977,566.9s-420.2-329-630.4-298.5
		c0,0,925.3,32.7,1268.2,521.7"/>
	<ellipse class="st2" cx="346.6" cy="268.3" rx="19.6" ry="21.1"/>
	<ellipse class="st2" cx="523" cy="717.6" rx="19.6" ry="21.1"/>
	<ellipse class="st2" cx="1271.3" cy="265.5" rx="19.6" ry="21.1"/>
	<ellipse class="st2" cx="1614.8" cy="790.1" rx="19.6" ry="21.1"/>
	<ellipse class="st2" cx="977" cy="566.9" rx="19.6" ry="21.1"/>
</g>
</svg>
