<?xml version="1.0" encoding="utf-8"?>
<!-- Generator: Adobe Illustrator 26.0.2, SVG Export Plug-In . SVG Version: 6.00 Build 0)  -->
<svg version="1.1" id="Capa_1" xmlns="http://www.w3.org/2000/svg" xmlns:xlink="http://www.w3.org/1999/xlink" x="0px" y="0px"
	 viewBox="0 0 830.6 711.7" style="enable-background:new 0 0 830.6 711.7;" xml:space="preserve">
<style type="text/css">
	.st0{fill:#E6E6E6;}
	.st1{fill:#FFFFFF;}
	.st2{fill:#FFB8B8;}
	.st3{fill:#15498F;}
	.st4{fill:#2F2E41;}
	.st5{fill:#3F3D56;}
	.st6{fill:#716D7F;}
	.st7{fill:#FFB7B7;}
	.st8{fill:#E6E7E8;}
	.st9{fill:#FFB6B6;}
</style>
<path class="st0" d="M75.7,169.9h372c4,0,7.3,3.3,7.3,7.3v112.3c0,4-3.3,7.3-7.3,7.3l0,0c-4,0-7.3,3.3-7.3,7.3v8.2
	c0,6.5-7.9,9.8-12.5,5.2L409.3,299c-1.4-1.4-3.2-2.1-5.2-2.1H75.7c-4,0-7.3-3.3-7.3-7.3V177.2C68.3,173.2,71.6,169.9,75.7,169.9z"/>
<rect x="78.9" y="179.6" class="st1" width="365.2" height="101.5"/>
<path class="st2" d="M653.9,272.7c-0.2,0.6,3.4,22.2,3.4,22.2l28.9-3.1l-5.4-17.2L653.9,272.7z"/>
<path class="st3" d="M154,230.4h257.9c1.5,0,2.7,1.2,2.7,2.7v0c0,1.5-1.2,2.7-2.7,2.7H154c-1.5,0-2.7-1.2-2.7-2.7v0
	C151.3,231.6,152.5,230.4,154,230.4z"/>
<path class="st0" d="M111,209.8h301.1c1.5,0,2.7,1.2,2.7,2.7v0c0,1.5-1.2,2.7-2.7,2.7H111c-1.5,0-2.7-1.2-2.7-2.7v0
	C108.3,211,109.5,209.8,111,209.8z"/>
<path class="st0" d="M111.1,248.8h300.8c1.5,0,2.7,1.2,2.7,2.7l0,0c0,1.5-1.2,2.7-2.7,2.7H111.1c-1.5,0-2.7-1.2-2.7-2.7l0,0
	C108.5,250,109.6,248.8,111.1,248.8z"/>
<path class="st0" d="M379.3,339.8H7.3c-4,0-7.3,3.3-7.3,7.3v112.3c0,4,3.3,7.3,7.3,7.3h0c4,0,7.3,3.3,7.3,7.3v8.2
	c0,6.5,7.9,9.8,12.5,5.2l18.6-18.6c1.4-1.4,3.2-2.1,5.2-2.1h328.5c4,0,7.3-3.3,7.3-7.3V347.1C386.7,343.1,383.4,339.8,379.3,339.8z"
	/>
<rect x="10.7" y="352.1" class="st1" width="365.2" height="101.5"/>
<path class="st3" d="M45.7,382.8h300.6c1.5,0,2.7,1.2,2.7,2.7v0c0,1.5-1.2,2.7-2.7,2.7H45.7c-1.5,0-2.7-1.2-2.7-2.7v0
	C43,384,44.2,382.8,45.7,382.8z"/>
<path class="st0" d="M45.7,401.2h301.1c1.5,0,2.7,1.2,2.7,2.7v0c0,1.5-1.2,2.7-2.7,2.7H45.7c-1.5,0-2.7-1.2-2.7-2.7v0
	C43,402.4,44.2,401.2,45.7,401.2z"/>
<path class="st0" d="M45.7,419.7h300.8c1.5,0,2.7,1.2,2.7,2.7v0c0,1.5-1.2,2.7-2.7,2.7H45.7c-1.5,0-2.7-1.2-2.7-2.7v0
	C43,420.9,44.2,419.7,45.7,419.7z"/>
<path class="st0" d="M379.3,0H7.3C3.3,0,0,3.3,0,7.3v112.3c0,4,3.3,7.3,7.3,7.3h0c4,0,7.3,3.3,7.3,7.3v8.2c0,6.5,7.9,9.8,12.5,5.2
	l18.6-18.6c1.4-1.4,3.2-2.1,5.2-2.1h328.5c4,0,7.3-3.3,7.3-7.3V7.3C386.7,3.3,383.4,0,379.3,0z"/>
<rect x="10.7" y="12.4" class="st1" width="365.2" height="101.5"/>
<path class="st3" d="M45.7,43h170.5c1.5,0,2.7,1.2,2.7,2.7v0c0,1.5-1.2,2.7-2.7,2.7H45.7c-1.5,0-2.7-1.2-2.7-2.7v0
	C43,44.2,44.2,43,45.7,43z"/>
<path class="st0" d="M45.7,61.4h301.1c1.5,0,2.7,1.2,2.7,2.7v0c0,1.5-1.2,2.7-2.7,2.7H45.7c-1.5,0-2.7-1.2-2.7-2.7v0
	C43,62.6,44.2,61.4,45.7,61.4z"/>
<path class="st0" d="M45.7,79.9h300.8c1.5,0,2.7,1.2,2.7,2.7v0c0,1.5-1.2,2.7-2.7,2.7H45.7c-1.5,0-2.7-1.2-2.7-2.7v0
	C43,81.1,44.2,79.9,45.7,79.9z"/>
<polygon class="st2" points="679.3,695.5 663.4,695.5 655.8,634.1 679.3,634.1 "/>
<path class="st4" d="M683.4,710.9l-51.3,0v-0.6c0-11,8.9-20,20-20h0l31.3,0L683.4,710.9z"/>
<polygon class="st2" points="656.9,649.4 642.1,655.2 612.6,600.8 634.5,592.2 "/>
<path class="st4" d="M666.4,662.2L618.6,681l-0.2-0.6c-4-10.3,1-21.9,11.3-25.9l0,0l29.2-11.5L666.4,662.2z"/>
<path class="st4" d="M652.1,675.6l5.1-186.2l-22.5,79.8l16.3,55.4l-27,23l-27.6-87.9l0-0.2l27.4-144.7l81-3.9l0.6,0l0.1,0.6
	c0.1,0.5,7.7,48.5,1.3,83.3c-6.4,34.6-21.9,181.5-22.1,183l-0.1,0.6L652.1,675.6z"/>
<path class="st3" d="M627.9,426.3l-0.5-0.2l15-137.9l0.4-0.1c15.3-3.8,35.9-3.5,46.8-2.9c3.4,0.2,6.2,2.7,6.7,6.1l18.1,119l-0.1,0.2
	c-12.5,17.8-31.6,22.7-48.6,22.7C652.8,433.1,640,430.7,627.9,426.3z"/>
<path class="st5" d="M613.5,467.9c-2.9-1.3-5-3.8-5.8-6.9c-1.9-7.7,4.5-17.3,5.4-18.6l7.8-73.7l-11.5-68.1c-0.8-4.7,2.4-9.2,7.1-10
	c0.2,0,0.3-0.1,0.5-0.1l32.9-3.7l-1.7,70.1c14.1,47.7-16.6,116.5-16.9,117.2l-0.2,0.4h-0.4C630.5,474.4,626.5,474.3,613.5,467.9z"/>
<circle class="st2" cx="665.6" cy="247.5" r="31.9"/>
<path class="st2" d="M702.3,433.7c-1.1-6.6,3.4-12.9,10.1-14c0.7-0.1,1.4-0.2,2.1-0.2l11-25.5l17.2,2.9l-16.1,35.8
	c-0.5,6.7-6.5,11.8-13.2,11.2C707.8,443.6,703.2,439.3,702.3,433.7L702.3,433.7z"/>
<path class="st5" d="M717.8,410.3l9.1-54.7l-15.6-25.9l4-37l0.9-0.2c6.1-1.5,12.4,1.5,15.1,7.1l25.4,53.1l0.1,0.2l-18.5,72.6
	L717.8,410.3z"/>
<path class="st6" d="M690.4,272.7c0.7,0.2,3.8-3.2,7.1-7.4c7.1-8.7,10.1-20.2,8-31.3c0-0.2-0.1-0.5-0.1-0.7
	c-0.9-4.4-4.6-8.5-8.8-9.1c-1.4-0.2-2.5-1.1-2.7-2.5c-0.7-3.7-3.4-7-6.6-9c-4-2.5-8.7-3.4-13.3-4.3c-5.3-1-10.6-2-15.9-1.7
	c-5.2,0.3-10.1,1.9-14.5,4.6c-8.9,5.8-14,15.7-13.8,26c0,2.8,3.4,4.3,5.4,2.3c5.8-5.8,12.6-10.3,21.7-7.7c2.6,0.8,5,2,7.2,3.7
	c5.7,4.4,9,10.6,11.9,16.9c0.8,1.7,3,2.5,4.6,1.4c2.7-1.8,6.5-1.9,9,0.1c2.3,1.9,3.2,5.1,3.2,8c-0.2,3-0.9,5.9-2,8.7"/>
<path class="st4" d="M682.6,385.7h-1.5v-5.9c0-3.6-3-6.6-6.6-6.6h-18.8c-3.6,0-6.6,3-6.6,6.6v40.8c0,3.6,3,6.6,6.6,6.6h18.8
	c3.6,0,6.6-3,6.6-6.6v-27.9h1.5V385.7z"/>
<circle class="st1" cx="665.6" cy="392.7" r="4"/>
<path class="st2" d="M668.9,408.7c-2.9-6.1-10.1-8.7-16.2-5.8c-0.6,0.3-1.3,0.7-1.9,1.1l-23.6-14.8l-12.5,12.1l33.6,20.4
	c4.3,5.2,12,6,17.2,1.7C669.9,419.9,671.3,413.8,668.9,408.7z"/>
<path class="st5" d="M584.5,380.6l21.6-81.5c1.2-4.4,5.5-7.1,9.9-6.3l7.4,1.3l7.9,43.5l-16.1,36.6l29.1,17.5l-4.1,32.7L584.5,380.6z
	"/>
<path class="st5" d="M829.6,711.7h-381c-0.6,0-1-0.4-1-1s0.4-1,1-1h381c0.6,0,1,0.4,1,1S830.1,711.7,829.6,711.7z"/>
<g>
	<path id="a7c5c542-e960-402d-86b7-e161a3e2924b-136_00000008845425206967419790000015626419968643106184_" class="st7" d="
		M254.2,399.9c-5.5,0.8-10.6-3.2-11.4-9c-0.1-0.6-0.1-1.2-0.1-1.9l-33.4-13.5l15.1-11.4l29.4,14.5c5.6,0.6,9.6,5.8,9.1,11.6
		C262.4,395.4,258.8,399.3,254.2,399.9L254.2,399.9z"/>
	<path id="b1c26e50-8516-4a28-8986-b88082ea0766-137_00000023995548336062429210000017219325695061714867_" class="st8" d="
		M235.1,390.3l5.2-19.3l-0.3-0.2l-48.9-34.8l-42.2-44.5l-24.6,10.3l1.6,8.2l0.1,0.1l56.2,52.8l0.1,0L235.1,390.3z"/>
	<polygon class="st9" points="185,434.4 109.4,423.3 116,374.6 171.7,374.6 	"/>
	<polygon class="st9" points="56.5,672.9 72,676.7 93.3,615.7 70.4,610.1 	"/>
	<path class="st4" d="M42.1,699.1l11.1,2.7l4.4-10.5l2.6,12.3l29.5,7.2c3.7,0.9,7.3-1.5,8.2-5.3c0.5-2.3-0.1-4.7-1.6-6.4l-19.8-22.8
		L79,665l-25.1-4.5L42.1,699.1z"/>
	<polygon class="st9" points="152.2,682 168.1,682 175.7,617.5 152.2,617.5 	"/>
	<path class="st4" d="M143.8,710.9h11.4l2-11.3l5.2,11.3h30.3c3.8,0,6.8-3.2,6.8-7.1c0-2.3-1.1-4.5-2.9-5.9l-24.2-17.5v-11.4
		l-25.4,1.6L143.8,710.9z"/>
	<path class="st4" d="M108.4,415l74-6.2c21.8,53.5,7.9,138.9-8.8,235.1l-23.8,3.2l-1.8-154.5L88.3,636.4l-24.8-1.3L108.4,415z"/>
	<path id="be563295-45cb-4583-a2cc-1b51a6e0af2d-138_00000044862375926992272190000002578846061624758945_" class="st4" d="
		M151.5,274.1v-26.3c0-19.4-15-35.2-33.5-35.2c-18.5,0-33.5,15.7-33.5,35.2c0,0,0,0,0,0c-5.9,12.9-2.2,19.1,0,26.3
		c0,2.6,2,4.7,4.5,4.7H147C149.5,278.8,151.5,276.7,151.5,274.1z"/>
	
		<ellipse id="e6de18e8-d8d7-4938-bc85-74b57e27a471_00000023251735964205844930000013695179887432340911_" class="st7" cx="126.2" cy="252.6" rx="24.6" ry="25.8"/>
	<polygon class="st7" points="116.6,275.4 116.6,295.1 132.9,293.3 132.9,275.4 	"/>
	<path id="b4d76e12-782b-49dd-9dc2-b18e04e0f0ec-139_00000138555539374785931150000009682233495980585384_" class="st4" d="
		M159.4,249.9c0-15.4-11.9-27.8-26.5-27.8h-5c-14.6,0-26.5,12.5-26.5,27.8v0.5c3.7,2.7,7.3,3.1,10.6,0l3.6-10.6l0.7,10.6h5.5
		l1.8-5.3l0.4,5.3c7.4,6.6,21.3,3.4,35.5,0L159.4,249.9z"/>
	<path id="a580674d-06d2-46e1-9b07-6683bd33a718-140_00000134960255706367072400000018042979609373502392_" class="st8" d="
		M111.9,388.8l62.6-2.5l3.5-43c2.7-7.9,2.7-14.6,0.1-20.1c-2.2-4.5-6-7.9-10.6-9.6l-13.7-17.4c-3.6-4.5-8.9-7.1-14.5-7.1l-35.6,0.3
		c-0.9-0.5-6.1-3.3-16.3,1.4c-11.1,5.1-8.5,22.7-8.5,22.8l0,0.2l0.1,0.1l23.7,20.9L111.9,388.8z"/>
	<path id="ba19af05-e5c9-4e56-8465-909fb7fb4880-141_00000085248108332124115240000001460911976974353297_" class="st5" d="
		M-179.7,712h628.4c0.6,0,1.1-0.5,1.1-1.1c0-0.6-0.5-1.1-1.1-1.1h-628.4c-0.6,0-1.1,0.5-1.1,1.1C-180.7,711.5-180.2,712-179.7,712z"
		/>
	<path class="st5" d="M277.9,451.2c-0.1,55.4-43,100.2-95.7,100.1s-95.5-45.1-95.4-100.5c0.1-55.4,43-100.2,95.7-100.1
		c39.8,0.1,75.4,26,89.3,65.2c0.2,0.6,0.4,1.2,0.6,1.8v0c0.9,2.6,1.7,5.3,2.3,8C276.9,434,277.9,442.6,277.9,451.2z"/>
	<path class="st3" d="M176.7,366.3c-8.8-5-19.2-5.4-28.3-1.2c-4,1.8-8.1,5.1-9.5,10.9c5.3-3.3,12.3,1.9,13.6,10.3l-0.3,0.1
		c-0.7,5.8,0.9,12.1,4,15.7c0.5-3.3,2.3-6.2,5.1-7.9c2.3-1.6,4.9-2.7,6.6-5.5c2.1-3.2,2.6-8,3.4-12.3
		C172.2,372.1,173.8,367.5,176.7,366.3z"/>
	<path class="st3" d="M141.3,432.5c-1.5,2.3-3.5,3.8-5.2,5.6c-2,2-3.4,4.6-3.8,7.5c-0.2,2,0.1,4.1,0.1,6.1c0,2.1-0.7,4.4-2,4.9
		c-2.1,0.8-3.7-3.3-5.9-3.6c-1.7-0.2-3.3,2.6-2.8,5.1c0.5,2.5,2.8,3.5,4.2,1.9c1.2,2.1,0.4,6-1.5,6.7c-0.2,1.3-0.4,2.7-0.6,4
		c-4.6-3.4-9.3-6.8-13.2-11.8c-4.4-5.5-7.1-12.2-7.8-19.2c-0.5-5.7,0.2-12.2-2.2-16.6c-2-3.5-5.4-4.3-8.5-4.1
		c-0.6,0-1.1,0.1-1.7,0.2c1.8-5.7,4.1-11.3,6.9-16.5c0.6-0.3,1.2-0.7,1.7-1.1c2.9-2.6,4.1-7.7,6.5-11.3c0.1-0.2,0.3-0.5,0.5-0.7
		c2.4-3.3,5.6-4.9,8.6-6.5c6.8-3.5,13.8-7,21-6.5l-2,0.2c-2.4,7-4.8,14-7.2,21.1c-0.4,1.1-0.7,2.2-1.1,3.2c-1.4,4-2.8,8.2-2.5,12.7
		c0.1,2.6,1,5.5,2.7,6.4c1.6,0.8,3.3-0.2,4.8-1.2c0.6-0.4,1.3-0.9,1.9-1.3c2.3-1.5,4.8-3.1,7.2-2.1c2.2,0.9,3.8,4.1,4.1,7.5
		C143.8,426.4,143,429.7,141.3,432.5z"/>
	<path class="st3" d="M154.9,480.5c-6.7-4.3-13.3-8.6-20-12.9l0.1-0.3c-4.1,1.7-5.9,9.4-5.2,15.7c0.7,6.3,3,12,4.2,18.1
		c1.6,8.4,1,17.1-1.7,25.3c8.8-10.3,16.5-21.5,23.1-33.5c0.9-1.5,1.6-3.1,2.1-4.9c0.5-1.8,0.3-3.8-0.5-5.5
		C156.5,481.6,155.7,480.9,154.9,480.5z"/>
	<path class="st3" d="M135.3,395.8c-0.8,1.8-0.9,3.8-0.3,5.6c0.7,1.5,1.9,2.7,3.3,3.2l3.7,1.9c1.2,0.6,2.5,1.3,3.8,0.8
		c1.5-0.6,2.6-3.1,2.3-5.4c-0.3-2.4-1.8-4.1-3.1-5.6c-1.9-2-3.8-4-5.7-6l-1.1,1.4C137,392.8,136,394.2,135.3,395.8z"/>
	<path class="st3" d="M258.2,428.3c1.7,0.4,3.3,0.8,5,1.2c-0.3,5.9-3.1,11.3-6.8,13.3c-1.5,0.8-3.3,1.1-4.6,2.7
		c-1.2,1.4-1.7,3.6-2.3,5.6c-0.9,3.6-1.9,7.2-2.8,10.8c-1,3.9-2.3,8.2-5,9.6c-2.3,1.2-4.9-0.3-6.6-2.7c-1.7-2.5-2.8-5.8-3.8-9
		c0.1,3.5-1.5,7-3.7,8.2c-2.2,1.2-4.9,0.1-6.4-2.6c-1.1-2-1.5-4.6-2.6-6.6c-1-2-3.2-3.1-4.4-1.3c-0.8,1.2-0.7,3.2-1,4.7
		c-0.4,2.2-2,3.8-4.1,4.1c-1.9,0-3.6-0.9-4.9-2.4c-3.3-3.5-5.4-8-6.1-12.9c-0.5-2.3-0.4-4.7,0.2-7c0.7-2.2,2.2-3.9,3.8-3.4
		c1-2.3-1-5.4-2.9-5.1c-1.8,0.3-3.3,2.3-4.8,3.9c-1.5,1.6-3.6,2.8-5.2,1.2c0.1,1.2-0.8,2.2-2,2.3c-0.1,0-0.1,0-0.2,0
		c-1-0.3-2-0.8-2.8-1.5c-3.5-2.3-7.9-0.8-10.4,3.6c1.5-6.9,3.8-14.9,8.6-16.5c1.9-0.7,4.1-0.1,5.9-1.3c3.3-2,3.9-9.8,1.1-13
		c0.4,3,0.3,6.5-1.2,8.6c-1.5,2.1-4.7,0.7-4.5-2.3c-0.1,1.1-1.1,1.9-2.1,1.8c-0.6-0.1-1.2-0.4-1.5-1c-1-1.6-0.9-4.3-0.2-6.2
		c0.7-1.7,1.8-3.3,3.1-4.6c2.5-2.9,5.1-5.7,8.1-7.5c2.9-1.8,6.3-2.4,9.3-0.6c1.6,0.9,2.9,2.5,4.5,3.3c1.6,1,3.6,0.5,4.6-1.1
		c0,0,0,0,0,0c0,0,0-0.1,0.1-0.1c1.2-2.2,0.6-5.4,1.1-8.1c0.8-4.8,5.4-7.1,7.9-3.9c-1.9-0.5-3.9,1.8-4.1,4.7c-0.2,2.9,1.1,5.7,3,6.6
		c3.1,1.4,6.1-2.2,8.4-5.5c2.4-3.5,4.9-7,7.3-10.5c0.4-0.6,0.8-1.2,1.3-1.7c1.6-1.6,4.1-1.7,5.8-0.1c2.5,2.1,3.6,6.4,5.7,9.4
		c2.9,4.3,7.3,5.4,11.4,6.2c3.1,0.6,6.1,1.2,9.2,1.9c2,4,3.8,8.1,5.3,12.3C266.3,418.5,261.5,422.9,258.2,428.3z"/>
	<path class="st3" d="M274.8,425.6c-0.6,1.9-1,4-1,6c-2.6-3.4-3-9.6-1.3-14C273.4,420.3,274.1,422.9,274.8,425.6z"/>
	<path class="st3" d="M268.1,495.8c-2.3,4.9-5,9.6-8,14c-1.9-0.9-4,0.7-5.8,2.1c-1.9,1.5-4.1,3-6.1,1.6c-2-1.4-2.6-5.4-2-8.5
		c0.7-2.9,2-5.6,3.7-8c1.6-2.5,3.3-5.1,5.5-6.1c2.2-1,5.1,0.4,5.8,3.7l1.6-0.1c-0.9-1.3-0.4-3.9,0.8-4.4c1.4-0.5,2.6,1.4,3.4,3.2
		C267.3,494.2,267.7,495,268.1,495.8z"/>
	<path class="st3" d="M207.5,472.1c-3.4,0.2-6.1-4.2-7.9-8.5c-1.8-4.3-3.4-9.3-6.5-11.5c-1.8-1.3-3.8-1.4-5.7-2
		c-2.2-0.6-4-2.2-4.8-4.4l-2.2-0.9c-3,1.6-5.8,3.7-8.2,6.1c-2.8,3.1-4.5,7-4.9,11.2c-0.4,4.5,1.1,9.6,4,11.3
		c2.2,1.3,4.9,0.5,7.1,1.7c2.8,1.5,4.5,6,5.2,10.4c0.6,4.4,0.5,9,0.9,13.5c0.5,4.5,1.7,9.1,4.3,11.4c3.3,2.9,8,0.5,9.5-4.7
		c0.7-2.6,0.7-5.4,1.2-8.1c0.9-4.7,3.5-8.1,5.5-12C207.2,481.7,208.8,476.5,207.5,472.1z"/>
	<path class="st3" d="M173.9,426.2c0.3,0.3,0.6,0.6,0.9,1c0.6,1,0.6,2.3-0.1,3.3c0.8,0,1.6-0.5,2.1-1.1c0.6-0.7,1.2-1.5,1.6-2.4
		c0.4-0.6,0.6-1.4,0.5-2.1c-0.2-0.5-0.5-0.7-0.8-1c-0.4-0.7-0.6-1.5-0.7-2.3c-0.3-1.5-1.4-2.7-2.8-3.1l0.2,0
		c-0.6,0.4-0.9,1.1-0.8,1.8c0.1,0.7,0.5,1.3,0.5,2c-0.1,1-1,1.5-1.1,2.5C173.4,425.3,173.5,425.8,173.9,426.2z"/>
	<path class="st3" d="M168.1,408.7L168.1,408.7c0.1-0.1,0.2-0.2,0.3-0.3L168.1,408.7z"/>
	<path class="st3" d="M231.2,385.1c0.8-0.8,1.2-2,0.9-3.1c-0.2-1.2-1.1-2-1.9-1.7c-0.5,0.5-1.2,0.7-1.8,0.6c-0.5-0.1-1-0.5-1.5-0.1
		c-0.2,0.3-0.4,0.6-0.5,1c-0.2,0.5-0.3,1-0.5,1.5c-0.1,0.2-0.1,0.4-0.1,0.6c0.1,0.2,0.2,0.3,0.4,0.3c1,0.3,1.9,0.6,2.9,0.9
		C229.8,385.4,230.5,385.4,231.2,385.1z"/>
	<path class="st3" d="M258.9,458.3c0.1-0.9,0.3-1.7,0.4-2.6c0.2-1,0.3-1.9,0.1-2.9c-0.1-0.9-1-1.4-1.8-1.2c0,0,0,0,0,0l0,0l-0.2,0.4
		c0.1,1.8-0.4,3.6-1.3,5.2c-0.4,0.7-1,1.3-1.4,1.9c-0.5,0.6-0.7,1.3-0.6,2c0.2,0.8,1.3,0.8,2.3,0.4c0.8-0.3,1.5-0.8,2-1.5
		C258.7,459.5,258.9,458.9,258.9,458.3z"/>
	<path class="st3" d="M208.4,489.9L208.4,489.9l0.1-0.2L208.4,489.9z"/>
	<path class="st3" d="M206.5,493.7c-0.4,0.8-0.8,1.6-1.1,2.4c-0.4,1.4-0.6,2.8-0.8,4.2c-0.1,0.8-0.1,1.8,0.4,2.2
		c0.3,0.2,0.7,0.1,0.9-0.1c0.3-0.3,0.5-0.6,0.6-1c0.9-1.7,1.7-3.5,2.2-5.4c0.5-2,0.4-4.1-0.4-6.1
		C207.8,491.1,207.2,492.4,206.5,493.7z"/>
	<path class="st3" d="M123.5,471c0.6,0.6,1.5,0.8,2.3,0.5c0.8-0.4,1.5-0.9,2.2-1.5c0.5-0.4,1-0.9,1.3-1.5c0.4-0.7,0.5-1.5,0.3-2.3
		c-0.3-0.8-0.9-1.3-1.7-1.4c-1.1-0.3-2.1-0.7-3.2-1l0.8-0.7c-0.8-0.4-1.7,0.4-2.2,1.4c-0.3,0.7-0.5,1.4-0.7,2.1
		C122.3,468.1,122.6,469.7,123.5,471z"/>
	<path class="st3" d="M207.2,385.2c0.6,0.7,1.7,0.8,2.4,0.2c0.6-0.5,1-1.2,1.1-2c0.1-0.9-0.3-1.9-0.9-1.9l0.1-0.8
		c-1.1-0.2-2.5-0.3-3.2,1.2C206.3,383,206.5,384.3,207.2,385.2z"/>
	<path id="b456961e-c574-43f5-93e7-af00230a566f-142_00000008112448218744091130000007897302360222942347_" class="st7" d="
		M94.9,473.4c-4.1-3.9-4.5-10.6-0.8-14.9c0.4-0.5,0.8-0.9,1.3-1.3l-11.6-35.6l18,4.9l8.2,33c3.1,4.9,1.9,11.5-2.7,14.8
		C103.5,477.1,98.3,476.7,94.9,473.4L94.9,473.4z"/>
	<path id="f9e29824-911d-4b82-8399-58a66d30c3ed-143_00000127031923583802520430000010589963282170930351_" class="st8" d="
		M89.7,451.8l17.5-8.2l-5.9-62l5.5-62.5l-23.3-13.2l-4.9,6.5v0.1l-2.6,79.1l0,0.1L89.7,451.8z"/>
	<ellipse class="st0" cx="28.4" cy="306.5" rx="14.7" ry="15.5"/>
	<ellipse class="st0" cx="262.9" cy="594.6" rx="14.7" ry="15.5"/>
	<path class="st3" d="M254.4,426.1c0.6,0.6,1.5,0.8,2.3,0.5c0.8-0.4,1.5-0.9,2.2-1.5c0.5-0.4,1-0.9,1.3-1.5c0.4-0.7,0.5-1.5,0.3-2.3
		c-0.3-0.8-0.9-1.3-1.7-1.4c-1.1-0.3-2.1-0.7-3.2-1l0.8-0.7c-0.8-0.4-1.7,0.4-2.2,1.4c-0.3,0.7-0.5,1.4-0.7,2.1
		C253.2,423.2,253.5,424.8,254.4,426.1z"/>
	<path class="st3" d="M131.9,474.3c0.9-0.1,1.6-0.6,1.9-1.4c0.2-0.8,0.3-1.7,0.3-2.6c0-0.7-0.1-1.3-0.3-2c-0.3-0.7-0.9-1.4-1.6-1.7
		c-0.8-0.3-3.7-1.1-4.3-0.6c-0.9,0.6,0.2,2.1-0.8,2.7l-0.1-1.1c-0.9,0.3-0.8,1.5-0.3,2.6c0.3,0.7-3.1,0.3-2.6,0.9
		C125.1,472.3,130.3,474.2,131.9,474.3z"/>
</g>
<path class="st5" d="M699.4,466.6l-0.5,0l-9.6-181.7l29.2,6.6c6.6,1.5,11,7.8,10.1,14.5l-3.8,30.2l1.3,53.1
	c0.9,3.3,15.7,57.3,7.5,71.4c-0.8,1.6-2.3,2.8-4.1,3.3c-7.9,1.9-16,2.8-24.1,2.8C701.8,466.8,699.5,466.6,699.4,466.6z"/>
</svg>
