<?xml version="1.0" encoding="utf-8"?>
<!-- Generator: Adobe Illustrator 26.0.2, SVG Export Plug-In . SVG Version: 6.00 Build 0)  -->
<svg version="1.1" id="_x38_13c2686-e70f-4fb0-bf6b-a2eb7b1db384"
	 xmlns="http://www.w3.org/2000/svg" xmlns:xlink="http://www.w3.org/1999/xlink" x="0px" y="0px" viewBox="0 0 1121 851.8"
	 style="enable-background:new 0 0 1121 851.8;" xml:space="preserve">
<style type="text/css">
	.st0{opacity:0.9;}
	.st1{opacity:0.1;fill:#1BB1DC;enable-background:new    ;}
	.st2{fill:#3F3D56;}
	.st3{opacity:0.1;enable-background:new    ;}
	.st4{fill:#FBBEBE;}
	.st5{fill:#65617D;}
	.st6{fill:#1BB1DC;}
	.st7{fill:#B2B1BB;}
	.st8{opacity:0.2;enable-background:new    ;}
	.st9{opacity:0.1;fill:#CCCCCC;enable-background:new    ;}
	.st10{fill:#464353;}
	.st11{fill:#333F4F;}
	.st12{fill:#2D394A;stroke:#40868E;stroke-miterlimit:10;}
	.st13{opacity:0.2;}
	.st14{opacity:0.1;fill:#0098D2;enable-background:new    ;}
	.st15{fill:#A1616A;}
	.st16{fill:#FF748E;}
	.st17{fill:#5E5A6B;}
	.st18{fill:#19181C;}
	.st19{opacity:0.1;}
	.st20{fill:#9F9EFF;}
	.st21{fill:url(#SVGID_1_);}
	.st22{fill:#514E7F;}
	.st23{fill:#FEF3EC;stroke:#FFFFFF;stroke-miterlimit:10;}
	.st24{opacity:0.15;enable-background:new    ;}
	.st25{fill:#555658;}
	.st26{fill:#FFCCC7;}
	.st27{fill:#FF6584;}
	
		.st28{opacity:0.3;fill:none;stroke:#000000;stroke-width:0.75;stroke-miterlimit:10;stroke-dasharray:12;enable-background:new    ;}
	.st29{fill:#15498F;stroke:#F4F4F4;stroke-miterlimit:10;}
	.st30{fill:#474443;stroke:#FFFFFF;stroke-miterlimit:10;}
	.st31{fill:#FFFFFF;}
</style>
<g class="st0">
	<path class="st1" d="M1102.6,440.1v0.1c0,0,0,0,0,0.1c0,0.3-0.1,0.6-0.1,0.9c-0.4,2.4-0.8,4.7-1.3,7.1c-3.6,16.2-11,32.2-20.9,46.7
		c-0.4,0.6-0.8,1.1-1.2,1.7c-0.8,1.1-1.5,2.2-2.3,3.2c-0.6,0.7-1.1,1.5-1.7,2.2c-3.9,5-8.1,9.8-12.5,14.4c-2.4,2.5-5,4.8-7.5,7.1
		l-1.1,1c-1.4,1.2-2.8,2.4-4.2,3.5c-0.6,0.5-1.2,1-1.8,1.5l-1.1,0.8l-0.8,0.6c-0.7,0.5-1.4,1-2.1,1.5l-0.5,0.3
		c-1.7,1.2-3.3,2.3-5.1,3.5c-3.6,2.4-7.4,4.5-11.3,6.5c-1.8,0.9-3.6,1.8-5.4,2.6c-2.2,1-4.4,1.9-6.7,2.7c-0.6,0.2-1.2,0.4-1.8,0.7
		c-1.7,0.6-3.4,1.1-5.2,1.6l-0.9,0.3l-0.4,0.1l0,0l-1.1,0.3c-5.1,1.4-10.4,2.5-15.6,3.3l-0.9,0.1l-0.4,0.1c-6.7,1-13.4,1.5-20,1.8
		c-9.1,0.5-18.3,0.5-27.5,0l-2.5-0.2h-0.5c-1.7-0.1-3.5-0.3-5.2-0.5c-1-0.1-2-0.2-3-0.3c-1.5-0.2-3-0.4-4.5-0.6h-0.1l-1.5-0.2
		c-1.3-0.2-2.6-0.4-3.9-0.7l-1.3-0.2l-2-0.4l-0.4-0.1c-4.2-0.9-8.3-2-12.3-3.3l-0.9-0.3c-2.9-1-5.8-2.1-8.6-3.2
		c-2.1-0.9-4.1-1.9-6.2-2.9c-2.9-1.5-5.7-3-8.4-4.7c-3.8-2.3-7.5-4.9-11.1-7.6c-4.7-3.5-9.2-7.3-13.6-11.2l-0.9-0.8l-1.7-1.5
		c-22.6-20.4-41.6-44.6-56.1-71.4c-1.5-2.8-3-5.7-4.4-8.7c-0.4-0.9-0.9-1.8-1.3-2.7c0-0.1-0.1-0.1-0.1-0.2l-0.7-1.4
		c-1.8-3.9-3.5-7.9-5.1-11.9l-0.7-1.8l-1.1-2.9l-0.5-1.2c-1.4-3.7-2.7-7.5-3.9-11.4c-0.2-0.7-0.4-1.3-0.6-2
		c-0.6-2.1-1.2-4.2-1.8-6.3c-0.5-1.9-1-3.9-1.5-5.9c-0.1-0.3-0.2-0.6-0.2-0.9c-4-16.9-5.7-35.1-1.7-53.6c0.3-1.3,0.6-2.5,0.9-3.8
		c0.5-1.9,1-3.7,1.7-5.6c0.1-0.4,0.3-0.9,0.4-1.3l0.2-0.5c0-0.1,0.1-0.2,0.1-0.3c0-0.1,0.1-0.1,0.1-0.2c0.3-0.9,0.7-1.8,1.1-2.8
		s0.8-1.9,1.2-2.8l0,0l0.1-0.1c0-0.1,0.1-0.2,0.2-0.4c0.3-0.7,0.7-1.4,1-2.1l0.4-0.7l0.1-0.4c0.2-0.4,0.4-0.8,0.6-1.1
		c2.7-5.2,6-10.1,9.7-14.7c2.1-2.5,4.3-5,6.6-7.2c3.5-3.5,7.4-6.6,11.6-9.3c0.7-0.4,1.3-0.8,1.9-1.2c5.3-3.2,19.2-0.4,25.4-1.4
		c7.9-1.1,7.4-4.7,14.6-3l0.7,0.2c1.2,0.3,2.4,0.6,3.7,0.9c4.2,1.1,8.5,2.2,12.8,3.1c4,0.9,8,1.6,12.1,2.2c4.2,0.5,8.4,0.8,12.5,0.7
		c0.6,0,1.3,0,1.9-0.1c7.7-0.4,15.3-2,22.5-4.9c5.5-2.2,30.3,32.2,34.4,28c0.8-0.8-18.2-39.4-17.5-40.3l0,0c1.2-1.6,2.3-3.2,3.2-5
		c0.3-0.5,0.5-1.1,0.8-1.6l0,0c0.1-0.2,0.2-0.4,0.3-0.6l0,0l1.5-3l0,0c0.1-0.1,0.1-0.2,0.2-0.3c0.7-1.4,1.5-2.8,2.2-4.2
		c3-5.7,6.6-11.1,10.8-15.9l0,0c4.4-5,9.9-8.9,16.1-11.5c1-0.4,11.2,55.7,12.3,55.3c4.7-1.6,0.3-59,5.3-59.1c0.6,0,1.2,0,1.7,0
		c4.9,0.1,11.8,43.1,16.4,44.7l25.8,7.5c7.1,2.4,7-11.9,13-7.5c9.2,6.5-3.5-17.6,3.8-9c0.6,0.7,1.2,1.4,1.7,2.1
		c6.2,7.7,11.8,15.9,16.6,24.5c14.5,25.6,23.9,55.6,30.8,86.2l0.3,1.5c0.2,0.7,0.3,1.4,0.5,2.1c0.3,1.5,0.6,3,0.9,4.4
		c0.2,1.1,0.5,2.2,0.7,3.3l0,0c0.2,0.8,0.3,1.6,0.5,2.4c0.1,0.5,0.2,1,0.3,1.5c1.6,8.2,2.9,16.4,3.6,24.8c0,0.3,0,0.6,0.1,0.9
		C1104.2,419.6,1104,429.9,1102.6,440.1z"/>
	<path class="st2" d="M1029.7,521.3c-1.1-0.3-3,1-5.4,3.1c-1.2,1-2.5,2.2-3.9,3.6l-0.7,0.7l-0.3,0.3c-1.9,1.8-3.9,3.8-6.1,5.8
		c-1.4,1.3-2.8,2.5-4.2,3.8c-1.9,1.7-3,6.2-3.5,12.4c-5.1,1.4-10.4,2.5-15.6,3.3l-0.9,0.1l-0.4,0.1c-0.3-1.9-0.5-3.1-0.5-3.1
		s-9-7.5-6.4-16.9c1.5-5.4,16.3-15.5,28.6-23.1c1.5-0.9,3-1.8,4.4-2.7l0.9-0.5c0.6-0.3,1.1-0.7,1.7-1l4.1-2.4
		c2.8-1.6,4.9-2.8,5.6-3.2l0.3-0.2C1027.2,501.4,1032.5,522,1029.7,521.3z"/>
	<path class="st3" d="M1029.7,521.3c-1.1-0.3-3,1-5.4,3.1c-1.2,1-2.5,2.2-3.9,3.6l-0.7,0.7l-0.3,0.3c-1.9,1.8-3.9,3.8-6.1,5.8
		c-1.4,1.3-2.8,2.5-4.2,3.8c-1.9,1.7-3,6.2-3.5,12.4c-5.1,1.4-10.4,2.5-15.6,3.3l-0.9,0.1l-0.4,0.1c-0.3-1.9-0.5-3.1-0.5-3.1
		s-9-7.5-6.4-16.9c1.5-5.4,16.3-15.5,28.6-23.1c1.5-0.9,3-1.8,4.4-2.7l0.9-0.5c0.6-0.3,1.1-0.7,1.7-1l4.1-2.4
		c2.8-1.6,4.9-2.8,5.6-3.2l0.3-0.2C1027.2,501.4,1032.5,522,1029.7,521.3z"/>
	<path class="st2" d="M1027.5,510c0,0-1.8,1.9-4.7,4.9c-1.2,1.2-2.6,2.7-4.1,4.3l-0.1,0.1l-0.8,0.8c-1.8,1.9-3.7,3.9-5.7,6
		c-10.2,10.9-21.8,23.8-21.8,25.8c0,0.8-0.2,1.5-0.5,2.2l-0.9,0.1l-0.4,0.1c-6.7,1-13.4,1.5-20,1.8c-9.1,0.5-18.3,0.5-27.5,0
		l-2.5-0.2H938c-1.7-0.1-3.5-0.3-5.2-0.5c-1-0.1-2-0.2-3-0.3c1.2-1.6,2.4-3.4,3.6-5.1c2.5-3.5,4.9-7.2,6.9-10.5
		c0.1-0.2,0.2-0.4,0.3-0.6c1.2-2,2.3-3.9,3.1-5.5c0.8-1.4,1.3-3,1.6-4.6c0.4-2,1-3.9,1.8-5.7c4.4-11.2,15.9-34,22.4-46.6l0.6-1.1
		l0.6-1.1c2.1-4,3.4-6.6,3.4-6.6l15.8-4.2l1-0.3l3.5-0.9l1.3-0.4l7.4-2h0.1l0.3-0.1l7.9-2.1l2.6-0.7l3-0.8l7.6,13l2.2,32.3
		L1027.5,510z"/>
	<path class="st3" d="M920.1,553.6c-3.1-4-4.9-6.5-4.9-6.5s4.4-1.1,10.1-2.7c2.9-0.8,6.2-1.8,9.4-2.8c2-0.7,4-1.4,5.9-2.1
		c1-0.4,1.9-0.7,2.8-1.1c4.1-1.7,7.2-3.5,7.9-5.1c0.1-0.6,0.1-1.3-0.2-1.9c-1-2.9-2.2-5.7-3.7-8.3c-0.5-1-1.1-2.1-1.7-3.2
		c-2-3.6-4.4-7.8-7-12.2c-2.2-3.7-4.5-7.5-6.9-11.4c-2.1-3.4-4.2-6.8-6.3-10.1c-0.1-0.1-0.1-0.2-0.2-0.3
		c-9.5-15.1-18.1-28-18.4-28.5l0,0l-5.6,13.5l-0.2,0.2l-9.2,8.2l-0.2,0.2c-2.9,2.5-6.2,5.5-9.5,8.5c-2.5,2.2-5,4.5-7.3,6.6
		c-3.4,3.1-6.6,6-9.2,8.3c-2.2,1.9-4.3,3.9-6.2,6c-1.7,3.5-3,7.1-4,10.8c4.4,3.9,8.9,7.7,13.6,11.2c3.6,2.7,7.3,5.2,11.1,7.5
		c2.7,1.7,5.5,3.2,8.4,4.7c2,1,4.1,2,6.2,2.9c2.8,1.2,5.7,2.3,8.6,3.2l0.9,0.3c4,1.3,8.1,2.4,12.3,3.3l0.4,0.1l2,0.4L920.1,553.6z"
		/>
	<path class="st2" d="M996.8,458.8l-0.9,1.4c-0.4,0.6-0.8,1.3-1.4,2.2s-1.4,2.1-2.2,3.5l-0.6,1c-1.5,2.3-3.2,4.9-5,7.8
		c-0.2,0.4-0.5,0.7-0.7,1.1s-0.5,0.7-0.7,1.1c-12,18.8-29.7,46.7-34.2,54.7c-0.4,0.6-0.7,1.2-1,1.9c-0.6,1.4-3.1,3-6.7,4.6
		c-0.8,0.4-1.6,0.7-2.5,1.1c-1.9,0.8-4.1,1.5-6.2,2.2c-3.2,1.1-6.4,2-9.4,2.9c-6.3,1.8-11.2,3-11.2,3s1.7,2.3,4.7,6.2l-2-0.4
		l-0.4-0.1c-4.2-0.9-8.3-2-12.3-3.3l-0.9-0.3c-2.9-1-5.8-2.1-8.6-3.2c-2.1-0.9-4.1-1.9-6.2-2.9c-2.9-1.5-5.7-3-8.4-4.7
		c-3.8-2.3-7.5-4.9-11.1-7.6c-4.7-3.5-9.2-7.3-13.6-11.2l-0.9-0.8c1-3.4,2.3-6.8,3.8-10c0-0.2,2.9-3,7.2-6.9
		c2.7-2.4,5.8-5.3,9.2-8.3l7.3-6.6l8.7-7.8l0.2-0.2l9-8l0.2-0.2l5.6-13.5h1.1l20.5,0.3h0.1h2h1.1l6.4,0.1l7.6,0.1l8.9,0.1l34.9,0.5
		h1.1l6.6,0.1L996.8,458.8z"/>
	<path class="st4" d="M997.4,319.5l-3.4,30.7c0,0-34.6,13.8-35.5,13.5s-23.1-20.3-19.4-33.5c1.8-6.6,2.7-15.8,3.1-23.3
		s0.3-13.2,0.3-13.2s50.4-18,45.9-5.6c-1.6,4.5-0.9,9.9,0.7,14.9C991.1,308.8,993.9,314.4,997.4,319.5z"/>
	<path class="st3" d="M989.1,302.9c-0.3,0.4-0.6,0.7-0.9,1c-12.2,12.9-32.3,14.2-46,2.9c0.4-7.5,0.3-13.2,0.3-13.2s50.4-18,45.9-5.6
		C986.8,292.5,987.5,297.8,989.1,302.9z"/>
	<path class="st4" d="M997.4,279.6c0,18.6-15.1,33.8-33.8,33.7c-18.6,0-33.8-15.1-33.7-33.8c0-18.6,15.1-33.7,33.7-33.7
		c18.5-0.1,33.7,14.8,33.8,33.3C997.4,279.3,997.4,279.5,997.4,279.6z"/>
	<path class="st3" d="M955.7,351.3c0,0-13.2-29.3-17.7-29.3s-11.5,151.6-11.5,151.6l69,1.1l2.8-79.6l-14.1-70.6
		C984.2,324.5,971.5,352.4,955.7,351.3z"/>
	<path class="st3" d="M955.7,353.6c0,0-13.2-29.3-17.7-29.3S926.5,476,926.5,476l78.2,1.2l-6.5-79.7l-14.1-70.6
		C984.2,326.8,971.5,354.7,955.7,353.6z"/>
	<path class="st5" d="M955.7,352.5c0,0-13.2-29.3-17.7-29.3s-11.5,151.6-11.5,151.6l78.2,1.2l-6.5-79.8l-14.1-70.6
		C984.2,325.6,971.5,353.5,955.7,352.5z"/>
	<path class="st3" d="M942.9,313.9c0,0-2.4-3.5-5.7-2.3c-3.3,1.2-5.9-2-9.3,1.1c-3.4,3.1-16.9,7.3-19.4,5.9
		c-2.5-1.4-11.5,4.8-13.5,8.5s-8.5,13.5-8.5,13.5s-5.6,6.8-4.8,10.4s-2,7.9-5.3,9.6s-10.1,18.6-10.1,18.6s1.8,22.6-5.8,26.5
		s-2,21.1-2,21.1l35.9-8.5l10.2-23.1c0,0-3.9,67.5-8.7,73.7s-5.3,10.1-5.3,10.1s18.6,3.9,22.5,7.3s14.4-0.8,14.4-0.8l10.1-89.8
		c0,0,3.7-16.9,3.7-25.6S942.9,313.9,942.9,313.9z"/>
	<path class="st6" d="M942.2,313.8c0,0-2.4-3.5-5.8-2.3s-5.9-2-9.3,1.1s-16.9,7.3-19.4,5.9s-11.5,4.8-13.5,8.4s-8.4,13.5-8.4,13.5
		s-5.6,6.8-4.8,10.4s-2,7.9-5.3,9.6S865.6,379,865.6,379s1.8,22.6-5.8,26.5c-1.9,1-3,3.2-3.5,5.9c-2.2,11,6.9,21.1,18.1,20.8l19.3-8
		l10.1-29.2c0,0-3.9,67.5-8.7,73.7s-5.3,10.1-5.3,10.1s18.6,3.9,22.5,7.3s14.3-0.8,14.3-0.8l10.1-89.8c0,0,3.7-16.9,3.7-25.6
		S942.2,313.8,942.2,313.8z"/>
	<path class="st3" d="M879.7,362.8c0,0,3.4,9.3,12.7,8.5S879.7,362.8,879.7,362.8z"/>
	<path class="st3" d="M888.8,348.8c0,0,6.2,1.1,8.4,6.5S888.8,348.8,888.8,348.8z"/>
	<path class="st3" d="M905.9,343.2c0-0.5,0.8-0.5,0.9,0c0.9,6.4,2.4,19-0.6,25.1c-3.9,8.2-3.4,17.7-3.4,17.7L905.9,343.2z"/>
	<path class="st3" d="M989.3,307.2c0,0,2.2-2.6,4.5-2.3s3.7,1.7,6.5,2.8c2.8,1.1,9.6,1.4,9.6,2.2s5.9,4.2,9.9,5.1
		s16.3,9.3,19.4,25.6s8.4,21.1,8.4,21.1l-29.8,14.6c0,0,23.1,98,25.9,105s3.1,48.7,3.1,48.7s-18.3,8.2-23.1,10.7
		s-2.8-24.2-12.7-39.7c-9.9-15.5-21.1-38-21.1-38l-17.2-48.1c0,0-11-64.2-1.7-76S990.1,311.4,989.3,307.2z"/>
	<path class="st6" d="M1047.8,529.4c0,0.4,0,0.6,0,0.6l-1.1,0.5l-0.8,0.3l-7.6,3.5c-4.2,1.9-8.8,4-11.7,5.5
		c-0.7,0.3-1.3,0.7-1.8,0.9c-0.3,0.2-0.8,0.2-1.1,0c-1.5-1-2.2-6.1-3.2-12.7c-0.4-2.7-0.9-5.7-1.6-8.8c-0.1-0.5-0.2-1-0.3-1.4
		c-0.7-3.3-1.7-6.5-2.9-9.6c-0.9-2.5-2.1-4.9-3.5-7.1c-1.3-2-2.6-4.2-3.9-6.4c-3.5-5.9-7-12.2-9.9-17.6c-0.2-0.4-0.4-0.8-0.6-1.1
		c-0.7-1.4-1.4-2.7-2.1-3.9c-1.3-2.5-2.4-4.6-3.2-6.2l-1.3-2.5c0-0.1-0.1-0.2-0.1-0.3l-1.6-4.3l-3-8.4l-3.5-9.8l-1.7-4.6l-1.2-3.4
		l-0.4-1.1l-5.9-16.6c0,0-0.4-2.4-1-6.4c-1.6-10.4-4.4-31.7-4.4-48.3c0-4.1,0.2-8.1,0.7-12.1c0.1-0.4,0.1-0.9,0.2-1.3
		s0.2-0.9,0.2-1.4c0.4-2.3,1.2-4.6,2.6-6.5c9.3-11.8,19.2-27.5,18.3-31.7l0.2-0.2c0.4-0.4,0.9-0.8,1.4-1.2c0.6-0.4,1.3-0.7,2-0.9
		c0.3,0,0.6,0,0.9,0l0,0c2.2,0.3,3.7,1.7,6.5,2.8s9.6,1.4,9.6,2.2c0,0.8,5.9,4.2,9.8,5.1c3.9,0.9,16.3,9.3,19.4,25.6
		c3,15.7,8.1,20.7,8.4,21.1l0,0l-1.1,0.5l-16.9,8.3l-3.6,1.8l-8.2,4c0,0,2.1,9.1,5.2,21.9c0,0.2,0.1,0.4,0.1,0.5
		c0.1,0.4,0.2,0.8,0.3,1.2c2.2,9.4,4.9,20.6,7.6,31.6l0,0l0.2,1l0.8,3.2c0.2,1,0.5,2,0.7,3l0.4,1.6c0.7,3.1,1.5,6.1,2.2,9
		c1.1,4.3,2.1,8.4,3,12.2c2.6,10.4,4.6,18,5.3,19.7c1,2.6,1.7,9.8,2.2,18C1047.6,511.8,1047.7,526.4,1047.8,529.4z"/>
	<path class="st3" d="M1051.4,430.4c-0.8,0.1-1.9,0.3-3.1,0.4c-9,0.8-26.7,1-26.7,1s-13.2-26.2-24.5-25.3c0,0,10.4-11.8,14.6-10.4
		c0.7,0.2,1.1-0.3,1.4-1.3c1.1-5-2.8-22.4-2.8-22.4L1005,349l31,7.6c2.8,0.6,11.5,5.1,11.5,5.1s0.3,12.1,2.5,14.9s4.8,16.3,4.5,19.7
		s3.1,19.1-0.3,23.4S1058.5,429.2,1051.4,430.4z"/>
	<path class="st6" d="M1052.6,430.4c-0.8,0.1-1.9,0.3-3.1,0.4c-9,0.8-26.7,1-26.7,1s-13.2-26.2-24.5-25.3c0,0,10.4-11.8,14.6-10.4
		c0.7,0.2,1.2-0.3,1.4-1.3c1.1-5-2.8-22.4-2.8-22.4l-5.3-23.4l31,7.6c2.8,0.6,11.5,5.1,11.5,5.1s0.3,12.1,2.5,14.9
		s4.8,16.3,4.5,19.7s3.1,19.1-0.3,23.4S1059.6,429.2,1052.6,430.4z"/>
	<path class="st3" d="M1022.6,370c-0.4-0.2-0.2-0.8,0.3-0.8c6.2,0.8,24,3.7,24.9,9C1048.7,383.8,1028.9,373.4,1022.6,370z"/>
	<path class="st3" d="M997.4,279.6c0,8.6-3.3,16.9-9.2,23.2c0,0-0.1-0.1-0.1-0.2c-1-2.1-2-4.4-1.9-6.7c0.1-2.8,1.7-5.4,2.2-8.2
		c0.7-3.5-0.5-7.1-1.6-10.5c-0.8-2.5-2.4-5.5-5.1-5.2c-0.5,0.1-1,0.2-1.6,0.2c-1.4-0.2-1.7-2-1.8-3.4c-0.9-6.8-6-12.2-12.7-13.4
		c-0.7-0.2-1.5-0.1-2.2,0.1c-1,0.4-1.5,1.5-2.4,2.1c-2.9,2-6.5-1.8-10-1.5c-3,0.2-4.8,3.3-6,6s-2.7,5.8-5.6,6.4
		c-0.5,0.1-1,0.1-1.4-0.1c-0.9-0.7-0.3-2,0.2-3.1c1.2-2.7,0.4-4.8-1.1-6.7c11.6-14.6,32.9-17,47.4-5.3
		C992.7,259.6,997.3,269.4,997.4,279.6L997.4,279.6z"/>
	<path class="st7" d="M888.4,543.2c-2.9-1.5-5.7-3-8.4-4.7c-3.8-2.3-7.5-4.9-11.1-7.6l-3.5-28l-0.1-0.9l-6.5-53.3l-0.4-3.1l10.9-0.3
		l7.7-0.2l0.5,4.5l4.4,37.5l0.1,0.9L888.4,543.2z"/>
	<path class="st3" d="M880,538.5c-3.8-2.3-7.5-4.9-11.1-7.6l-3.5-28l-0.1-0.9l-6.5-53.3l-0.4-3.1l10.9-0.3l-0.5,1.7l0.3,2.2
		l5.5,44.5l0.1,0.9L880,538.5z"/>
	<path class="st7" d="M954.9,446.1l-0.6,4.8l-0.9,7.2l-2,15.9l-0.1,1.1l-0.1,1.1l-5.5,43.6l-1.7,13.6l-0.6,4.5l-0.1,0.5l-2.2,17.7
		l-2.5-0.2h-0.5c-1.7-0.1-3.5-0.3-5.2-0.5c-1-0.1-2-0.2-3-0.3c-1.5-0.2-3-0.4-4.5-0.6h-0.1l-1.5-0.2l1.4-9.9v-0.3l6.4-47.9l2.7-20.3
		l0.2-1.1l0.2-1.1l2.1-15.9l0.9-6.7l0.5-3.9h0.7L954.9,446.1z"/>
	<path class="st8" d="M945.6,448.7l-0.3,2.4l-0.8,6.9l-1.9,15.9l-0.1,1.1l-0.2,1.2l-3.7,31.5l-4,33.6v0.4l-1,8.4l-0.6,5.5
		c-1-0.1-2-0.2-3-0.3c-1.5-0.2-3-0.4-4.5-0.6h-0.1l-1.5-0.2l1.4-9.9v-0.3l6.4-47.9l2.7-20.3l0.2-1.1l0.2-1.1l2.1-15.9l0.9-6.7
		l0.5-3.9h0.7L945.6,448.7z"/>
	<path class="st5" d="M1026.5,539.8l0.4,2.9c-1.8,0.9-3.6,1.8-5.4,2.6c-2.2,1-4.4,1.9-6.7,2.7l-1.7-13.2l-1.1-8.6l-1.9-14.8
		l-1.8-14.3l-0.3-2.4l-4.4-34.8l-0.8-6.1l-0.2-2l-0.2-1.8l-0.5-4.2h0.3h0.1l7.6-0.8l2.4-0.2l0.8,5.1l1.1,7.2l7.1,47.7l1.5,10.1
		l1.4,9.5l2.2,14.9L1026.5,539.8z"/>
	<path class="st9" d="M1026.5,539.8l0.4,2.9c-1.8,0.9-3.6,1.8-5.4,2.6c-2.2,1-4.4,1.9-6.7,2.7l-1.7-13.2l-1.1-8.6l-1.9-14.8
		l-1.8-14.3l-0.3-2.4l-4.4-34.8l-0.8-6.1l-0.2-2l-0.2-1.8l-0.5-4.2h0.3h0.1l7.6-0.8l2.4-0.2l0.8,5.1l1.1,7.2l7.1,47.7l1.5,10.1
		l1.4,9.5l2.2,14.9L1026.5,539.8z"/>
	<path class="st7" d="M1027,542.7c-1.8,0.9-3.6,1.8-5.4,2.6l-1.1-9.9l-0.8-6.7l-1.1-9.3l-0.2-1.6l-1.2-10.6l-5.7-49.4l-0.9-7.9
		l-0.3-2.6l-0.5-2.3l2.4-0.2l0.8,5.1l1.1,7.2l7.1,47.7l1.5,10.1l1.4,9.5l2.2,14.9l0.1,0.5L1027,542.7z"/>
	<path class="st5" d="M1050.9,445.3l-0.1,3.8l-1.2,78.9c-0.6,0.5-1.2,1-1.8,1.5c0,0.4,0,0.6,0,0.6l-1.1,0.5l-0.8,0.3
		c-0.7,0.5-1.4,1-2.1,1.5l-0.5,0.3c-1.7,1.2-3.3,2.3-5.1,3.5v-1.9v-0.5l1-68l0.1-4.2l0.2-12.3l0.1-5.5l7.6,1L1050.9,445.3z"/>
	<path class="st9" d="M1050.9,445.3l-0.1,3.8l-1.2,78.9c-0.6,0.5-1.2,1-1.8,1.5c0,0.4,0,0.6,0,0.6l-1.1,0.5l-0.8,0.3
		c-0.7,0.5-1.4,1-2.1,1.5l-0.5,0.3c-1.7,1.2-3.3,2.3-5.1,3.5v-1.9v-0.5l1-68l0.1-4.2l0.2-12.3l0.1-5.5l7.6,1L1050.9,445.3z"/>
	<path class="st7" d="M1050.9,445.3l-0.1,3.8l-1.2,78.9c-0.6,0.5-1.2,1-1.8,1.5c0,0.4,0,0.6,0,0.6l-1.1,0.5v-0.2l0.2-31l0.3-50.1
		v-4.4L1050.9,445.3z"/>
	<path class="st5" d="M1102.5,440.2C1102.5,440.2,1102.5,440.3,1102.5,440.2c0,0.4-0.1,0.6-0.1,0.9c-0.4,2.4-0.8,4.7-1.3,7.1
		l-50.2,0.9l-3.7,0.1l-7.6,0.1l-3.2,0.1h-1.1l-22.1,0.4h-2.4l-8,0.1h-0.2l-6.1,0.1l-9.9,0.2h-1.1l0,0l-31,0.6l-9,0.2l-7.6,0.1
		l-6.6,0.1H930h-2.4h-0.1l-5,0.1l-22.8-1h-1.1l-21.2-0.9L869,449l-10.3-0.5l-62.2-2.7c-1.5-2.8-3-5.7-4.4-8.7
		c-0.4-0.9-0.9-1.8-1.3-2.7l63.3-1l0,0l39-0.6l0,0l7.4-0.1h1.1l20-0.3l6.8,0.4h0.1l3.4,0.2l1.1,0.1l13.7,0.8l0,0l33.2,1.8l1.2,0.1
		l15.5,0.9l4.7,0.3h0.1l31,1.7l1.1,0.1h0.2L1102.5,440.2z"/>
	<path class="st7" d="M1102.5,440.2C1102.6,440.2,1102.6,440.3,1102.5,440.2c0,0.4-0.1,0.6-0.1,0.9c-0.4,2.4-0.8,4.7-1.3,7.1
		l-50.2,0.9l-3.6,0.1l-7.6,0.1l-3.2,0.1h-1.1l-22.1,0.4h-2.4l-8,0.1h-0.2l-6.1,0.1l-9.9,0.2h-1.1l0,0l-31,0.6l-9,0.2l-7.6,0.1
		l-6.6,0.1H930h-2.4h-0.1l-5,0.1l-22.8-1h-1.1l-21.2-0.9L869,449l-10.3-0.4l-62.2-2.7c-1.5-2.8-3-5.7-4.4-8.7
		c-0.4-0.9-0.9-1.8-1.3-2.7l63.3-1l0,0l39-0.6l0,0l7.4-0.1h1.1l20-0.3l6.8,0.4h0.1l3.4,0.2l1.1,0.1l13.7,0.8l0,0l33.2,1.8l1.1,0.1
		l15.5,0.9l4.7,0.3h0.1l31,1.7l1.1,0.1h0.2L1102.5,440.2z"/>
	<path class="st3" d="M1102.5,440.2C1102.6,440.2,1102.6,440.3,1102.5,440.2l-68.4,0.2h-1.1l-31.2,0.1h-5.2h-13.7h-1.1l-49.4,0.1
		h-4.3l-27.2,0.1h-1.1l-28.5,0.1l-79.2-3.4c-0.4-0.9-0.9-1.8-1.3-2.7l63.3-1l0,0l39-0.6l0,0l7.4-0.1h1.1l20-0.3l6.8,0.4h0.1l3.4,0.2
		l1.1,0.1l13.7,0.8l0,0l33.2,1.8l1.1,0.1l15.5,0.9l4.7,0.3h0.1l31,1.7l1.1,0.1h0.2L1102.5,440.2z"/>
	<path class="st3" d="M1037.3,395.3c-0.3-0.2,0-0.7,0.3-0.6c3.3,1,10.5,3.6,12.1,8.6C1051.4,408.3,1040.7,398.6,1037.3,395.3z"/>
	<path class="st4" d="M1007.2,404.2c0,0-14.3,4.4-20.8,4.4s-31.8-0.1-31.8-0.1s-66.2-22.1-46.3,8.2s51.2,13.4,51.2,13.4
		s2.5,0.6,5.6,1.3c3.1,0.7,62.9,0.1,64.9-2.2S1007.2,404.2,1007.2,404.2z"/>
	<path class="st3" d="M1048.3,430.8c-9,0.8-26.7,1-26.7,1s-13.2-26.2-24.5-25.3c0,0,10.4-11.8,14.6-10.4c0.7,0.2,1.1-0.3,1.4-1.3
		c11,3.4,32,11.6,34.1,26.1C1047.8,424.7,1048.1,428,1048.3,430.8z"/>
	<path class="st10" d="M1049.4,430.8c-9,0.8-26.7,1-26.7,1s-13.2-26.2-24.5-25.3c0,0,10.4-11.8,14.6-10.4c0.7,0.2,1.2-0.3,1.4-1.3
		c11,3.4,32,11.6,34.1,26.1C1048.9,424.7,1049.2,428,1049.4,430.8z"/>
	<path class="st3" d="M1047.9,430.9c-8.4,0.7-23.8,0.9-26,1c-0.2,0-0.3-0.1-0.4-0.2c-1.3-2.5-13-24.5-23.4-25.1
		c-0.4,0-0.6-0.5-0.3-0.7c2.4-2.6,10.4-10.9,14-9.7c0.6,0.2,1-0.1,1.2-0.9c0.1-0.2,0.3-0.4,0.5-0.3c11.1,3.5,31.6,11.7,33.7,25.9
		c0.5,3.7,0.9,6.9,1.1,9.5C1048.3,430.6,1048.1,430.9,1047.9,430.9z"/>
	<path class="st3" d="M970.4,506.1c0,0,25.3-6.2,29.3-2.8S970.4,506.1,970.4,506.1z"/>
	<path class="st3" d="M897.8,530.3c0,0,10.7,6.2,11.8,11.3S897.8,530.3,897.8,530.3z"/>
	<path class="st11" d="M852.5,320.2v110.9c0,1.9,1,2.2,2.7,3.1c5.6,3.1,19.5,8.7,36.1-0.1c1.7-0.9,2.8-1.2,2.8-3.1V320.9
		C894.1,320.9,872.9,329.4,852.5,320.2z"/>
	<ellipse class="st12" cx="873.3" cy="322.1" rx="20.8" ry="6.4"/>
	<g class="st13">
		<circle cx="854.4" cy="366.3" r="0.5"/>
		<circle cx="856.7" cy="366.9" r="0.5"/>
		<circle cx="859.7" cy="367.9" r="0.5"/>
		<circle cx="864.9" cy="369" r="0.5"/>
		<circle cx="870.4" cy="369.7" r="0.5"/>
		<circle cx="876.2" cy="369.9" r="0.5"/>
		<circle cx="884.4" cy="368.8" r="0.5"/>
		<circle cx="881.7" cy="369.5" r="0.5"/>
		<circle cx="889.5" cy="367.9" r="0.5"/>
		<circle cx="887" cy="368.3" r="0.5"/>
		<circle cx="892.2" cy="366.9" r="0.5"/>
		<circle cx="862.3" cy="368.5" r="0.5"/>
		<circle cx="867.8" cy="369.5" r="0.5"/>
		<circle cx="873.6" cy="369.9" r="0.5"/>
		<circle cx="879" cy="369.9" r="0.5"/>
	</g>
	<g class="st13">
		<circle cx="854.4" cy="368.6" r="0.5"/>
		<circle cx="856.7" cy="369.2" r="0.5"/>
		<circle cx="859.7" cy="370.2" r="0.5"/>
		<circle cx="864.9" cy="371.3" r="0.5"/>
		<circle cx="870.4" cy="372" r="0.5"/>
		<circle cx="876.2" cy="372.2" r="0.5"/>
		<circle cx="884.4" cy="371.1" r="0.5"/>
		<circle cx="881.7" cy="371.8" r="0.5"/>
		<circle cx="889.5" cy="370.2" r="0.5"/>
		<circle cx="887" cy="370.6" r="0.5"/>
		<circle cx="892.2" cy="369.2" r="0.5"/>
		<circle cx="862.3" cy="370.8" r="0.5"/>
		<circle cx="867.8" cy="371.8" r="0.5"/>
		<circle cx="873.6" cy="372.2" r="0.5"/>
		<circle cx="879" cy="372.2" r="0.5"/>
	</g>
	<g class="st13">
		<circle cx="854.4" cy="370.9" r="0.5"/>
		<circle cx="856.7" cy="371.5" r="0.5"/>
		<circle cx="859.7" cy="372.5" r="0.5"/>
		<circle cx="864.9" cy="373.6" r="0.5"/>
		<circle cx="870.4" cy="374.3" r="0.5"/>
		<circle cx="876.2" cy="374.5" r="0.5"/>
		<circle cx="884.4" cy="373.4" r="0.5"/>
		<circle cx="881.7" cy="374" r="0.5"/>
		<circle cx="889.5" cy="372.5" r="0.5"/>
		<circle cx="887" cy="372.9" r="0.5"/>
		<circle cx="892.2" cy="371.5" r="0.5"/>
		<circle cx="862.3" cy="373.1" r="0.5"/>
		<circle cx="867.8" cy="374" r="0.5"/>
		<circle cx="873.6" cy="374.5" r="0.5"/>
		<circle cx="879" cy="374.5" r="0.5"/>
	</g>
	<g class="st13">
		<circle cx="854.4" cy="373.2" r="0.5"/>
		<circle cx="856.7" cy="373.8" r="0.5"/>
		<circle cx="859.7" cy="374.7" r="0.5"/>
		<circle cx="864.9" cy="375.9" r="0.5"/>
		<circle cx="870.4" cy="376.5" r="0.5"/>
		<circle cx="876.2" cy="376.8" r="0.5"/>
		<circle cx="884.4" cy="375.7" r="0.5"/>
		<circle cx="881.7" cy="376.3" r="0.5"/>
		<circle cx="889.5" cy="374.7" r="0.5"/>
		<circle cx="887" cy="375.2" r="0.5"/>
		<circle cx="892.2" cy="373.8" r="0.5"/>
		<circle cx="862.3" cy="375.4" r="0.5"/>
		<circle cx="867.8" cy="376.3" r="0.5"/>
		<circle cx="873.6" cy="376.8" r="0.5"/>
		<circle cx="879" cy="376.8" r="0.5"/>
	</g>
	<g class="st13">
		<circle cx="854.4" cy="375.4" r="0.5"/>
		<circle cx="856.7" cy="376.1" r="0.5"/>
		<circle cx="859.7" cy="377" r="0.5"/>
		<circle cx="864.9" cy="378.2" r="0.5"/>
		<circle cx="870.4" cy="378.8" r="0.5"/>
		<circle cx="876.2" cy="379.1" r="0.5"/>
		<circle cx="884.4" cy="378" r="0.5"/>
		<circle cx="881.7" cy="378.6" r="0.5"/>
		<circle cx="889.5" cy="377" r="0.5"/>
		<circle cx="887" cy="377.5" r="0.5"/>
		<circle cx="892.2" cy="376.1" r="0.5"/>
		<circle cx="862.3" cy="377.7" r="0.5"/>
		<circle cx="867.8" cy="378.6" r="0.5"/>
		<circle cx="873.6" cy="379.1" r="0.5"/>
		<circle cx="879" cy="379.1" r="0.5"/>
	</g>
	<g class="st13">
		<circle cx="854.4" cy="377.7" r="0.5"/>
		<circle cx="856.7" cy="378.4" r="0.5"/>
		<circle cx="859.7" cy="379.3" r="0.5"/>
		<circle cx="864.9" cy="380.5" r="0.5"/>
		<circle cx="870.4" cy="381.1" r="0.5"/>
		<circle cx="876.2" cy="381.4" r="0.5"/>
		<circle cx="884.4" cy="380.3" r="0.5"/>
		<circle cx="881.7" cy="380.9" r="0.5"/>
		<circle cx="889.5" cy="379.3" r="0.5"/>
		<circle cx="887" cy="379.8" r="0.5"/>
		<circle cx="892.2" cy="378.4" r="0.5"/>
		<circle cx="862.3" cy="380" r="0.5"/>
		<circle cx="867.8" cy="380.9" r="0.5"/>
		<circle cx="873.6" cy="381.4" r="0.5"/>
		<circle cx="879" cy="381.4" r="0.5"/>
	</g>
	<g class="st13">
		<circle cx="854.4" cy="380" r="0.5"/>
		<circle cx="856.7" cy="380.7" r="0.5"/>
		<circle cx="859.7" cy="381.6" r="0.5"/>
		<circle cx="864.9" cy="382.8" r="0.5"/>
		<circle cx="870.4" cy="383.4" r="0.5"/>
		<circle cx="876.2" cy="383.7" r="0.5"/>
		<circle cx="884.4" cy="382.6" r="0.5"/>
		<circle cx="881.7" cy="383.2" r="0.5"/>
		<circle cx="889.5" cy="381.6" r="0.5"/>
		<circle cx="887" cy="382.1" r="0.5"/>
		<circle cx="892.2" cy="380.7" r="0.5"/>
		<circle cx="862.3" cy="382.3" r="0.5"/>
		<circle cx="867.8" cy="383.2" r="0.5"/>
		<circle cx="873.6" cy="383.7" r="0.5"/>
		<circle cx="879" cy="383.7" r="0.5"/>
	</g>
	<g class="st13">
		<circle cx="854.4" cy="382.3" r="0.5"/>
		<circle cx="856.7" cy="383" r="0.5"/>
		<circle cx="859.7" cy="383.9" r="0.5"/>
		<circle cx="864.9" cy="385.1" r="0.5"/>
		<circle cx="870.4" cy="385.7" r="0.5"/>
		<circle cx="876.2" cy="386" r="0.5"/>
		<circle cx="884.4" cy="384.9" r="0.5"/>
		<circle cx="881.7" cy="385.5" r="0.5"/>
		<circle cx="889.5" cy="383.9" r="0.5"/>
		<circle cx="887" cy="384.4" r="0.5"/>
		<circle cx="892.2" cy="383" r="0.5"/>
		<circle cx="862.3" cy="384.6" r="0.5"/>
		<circle cx="867.8" cy="385.5" r="0.5"/>
		<circle cx="873.6" cy="386" r="0.5"/>
		<circle cx="879" cy="386" r="0.5"/>
	</g>
	<g class="st13">
		<circle cx="854.4" cy="384.6" r="0.5"/>
		<circle cx="856.7" cy="385.3" r="0.5"/>
		<circle cx="859.7" cy="386.2" r="0.5"/>
		<circle cx="864.9" cy="387.4" r="0.5"/>
		<circle cx="870.4" cy="388" r="0.5"/>
		<circle cx="876.2" cy="388.3" r="0.5"/>
		<circle cx="884.4" cy="387.2" r="0.5"/>
		<circle cx="881.7" cy="387.8" r="0.5"/>
		<circle cx="889.5" cy="386.2" r="0.5"/>
		<circle cx="887" cy="386.7" r="0.5"/>
		<circle cx="892.2" cy="385.3" r="0.5"/>
		<circle cx="862.3" cy="386.9" r="0.5"/>
		<circle cx="867.8" cy="387.8" r="0.5"/>
		<circle cx="873.6" cy="388.3" r="0.5"/>
		<circle cx="879" cy="388.3" r="0.5"/>
	</g>
	<g class="st13">
		<circle cx="854.4" cy="386.9" r="0.5"/>
		<circle cx="856.7" cy="387.6" r="0.5"/>
		<circle cx="859.7" cy="388.5" r="0.5"/>
		<circle cx="864.9" cy="389.6" r="0.5"/>
		<circle cx="870.4" cy="390.3" r="0.5"/>
		<circle cx="876.2" cy="390.6" r="0.5"/>
		<circle cx="884.4" cy="389.5" r="0.5"/>
		<circle cx="881.7" cy="390.1" r="0.5"/>
		<circle cx="889.5" cy="388.5" r="0.5"/>
		<circle cx="887" cy="389" r="0.5"/>
		<circle cx="892.2" cy="387.6" r="0.5"/>
		<circle cx="862.3" cy="389.2" r="0.5"/>
		<circle cx="867.8" cy="390.1" r="0.5"/>
		<circle cx="873.6" cy="390.6" r="0.5"/>
		<circle cx="879" cy="390.6" r="0.5"/>
	</g>
	<g class="st13">
		<circle cx="854.4" cy="389.2" r="0.5"/>
		<circle cx="856.7" cy="389.9" r="0.5"/>
		<circle cx="859.7" cy="390.8" r="0.5"/>
		<circle cx="864.9" cy="391.9" r="0.5"/>
		<circle cx="870.4" cy="392.6" r="0.5"/>
		<circle cx="876.2" cy="392.9" r="0.5"/>
		<circle cx="884.4" cy="391.7" r="0.5"/>
		<circle cx="881.7" cy="392.4" r="0.5"/>
		<circle cx="889.5" cy="390.8" r="0.5"/>
		<circle cx="887" cy="391.3" r="0.5"/>
		<circle cx="892.2" cy="389.9" r="0.5"/>
		<circle cx="862.3" cy="391.5" r="0.5"/>
		<circle cx="867.8" cy="392.4" r="0.5"/>
		<circle cx="873.6" cy="392.9" r="0.5"/>
		<circle cx="879" cy="392.9" r="0.5"/>
	</g>
	<g class="st13">
		<circle cx="854.4" cy="391.5" r="0.5"/>
		<circle cx="856.7" cy="392.2" r="0.5"/>
		<circle cx="859.7" cy="393.1" r="0.5"/>
		<circle cx="864.9" cy="394.2" r="0.5"/>
		<circle cx="870.4" cy="394.9" r="0.5"/>
		<circle cx="876.2" cy="395.2" r="0.5"/>
		<circle cx="884.4" cy="394" r="0.5"/>
		<circle cx="881.7" cy="394.7" r="0.5"/>
		<circle cx="889.5" cy="393.1" r="0.5"/>
		<circle cx="887" cy="393.6" r="0.5"/>
		<circle cx="892.2" cy="392.2" r="0.5"/>
		<circle cx="862.3" cy="393.8" r="0.5"/>
		<circle cx="867.8" cy="394.7" r="0.5"/>
		<circle cx="873.6" cy="395.2" r="0.5"/>
		<circle cx="879" cy="395.2" r="0.5"/>
	</g>
	<g class="st13">
		<circle cx="854.4" cy="393.8" r="0.5"/>
		<circle cx="856.7" cy="394.5" r="0.5"/>
		<circle cx="859.7" cy="395.4" r="0.5"/>
		<circle cx="864.9" cy="396.5" r="0.5"/>
		<circle cx="870.4" cy="397.2" r="0.5"/>
		<circle cx="876.2" cy="397.5" r="0.5"/>
		<circle cx="884.4" cy="396.3" r="0.5"/>
		<circle cx="881.7" cy="397" r="0.5"/>
		<circle cx="889.5" cy="395.4" r="0.5"/>
		<circle cx="887" cy="395.9" r="0.5"/>
		<circle cx="892.2" cy="394.5" r="0.5"/>
		<circle cx="862.3" cy="396.1" r="0.5"/>
		<circle cx="867.8" cy="397" r="0.5"/>
		<circle cx="873.6" cy="397.5" r="0.5"/>
		<circle cx="879" cy="397.5" r="0.5"/>
	</g>
	<g class="st13">
		<circle cx="854.4" cy="396.1" r="0.5"/>
		<circle cx="856.7" cy="396.8" r="0.5"/>
		<circle cx="859.7" cy="397.7" r="0.5"/>
		<circle cx="864.9" cy="398.8" r="0.5"/>
		<circle cx="870.4" cy="399.5" r="0.5"/>
		<circle cx="876.2" cy="399.8" r="0.5"/>
		<circle cx="884.4" cy="398.6" r="0.5"/>
		<circle cx="881.7" cy="399.3" r="0.5"/>
		<circle cx="889.5" cy="397.7" r="0.5"/>
		<circle cx="887" cy="398.2" r="0.5"/>
		<circle cx="892.2" cy="396.8" r="0.5"/>
		<circle cx="862.3" cy="398.4" r="0.5"/>
		<circle cx="867.8" cy="399.3" r="0.5"/>
		<circle cx="873.6" cy="399.8" r="0.5"/>
		<circle cx="879" cy="399.8" r="0.5"/>
	</g>
	<g class="st13">
		<circle cx="854.4" cy="398.4" r="0.5"/>
		<circle cx="856.7" cy="399.1" r="0.5"/>
		<circle cx="859.7" cy="400" r="0.5"/>
		<circle cx="864.9" cy="401.1" r="0.5"/>
		<circle cx="870.4" cy="401.8" r="0.5"/>
		<circle cx="876.2" cy="402.1" r="0.5"/>
		<circle cx="884.4" cy="400.9" r="0.5"/>
		<circle cx="881.7" cy="401.6" r="0.5"/>
		<circle cx="889.5" cy="400" r="0.5"/>
		<circle cx="887" cy="400.5" r="0.5"/>
		<circle cx="892.2" cy="399.1" r="0.5"/>
		<circle cx="862.3" cy="400.7" r="0.5"/>
		<circle cx="867.8" cy="401.6" r="0.5"/>
		<circle cx="873.6" cy="402.1" r="0.5"/>
		<circle cx="879" cy="402.1" r="0.5"/>
	</g>
	<g class="st13">
		<circle cx="854.4" cy="400.7" r="0.5"/>
		<circle cx="856.7" cy="401.4" r="0.5"/>
		<circle cx="859.7" cy="402.3" r="0.5"/>
		<circle cx="864.9" cy="403.4" r="0.5"/>
		<circle cx="870.4" cy="404.1" r="0.5"/>
		<circle cx="876.2" cy="404.4" r="0.5"/>
		<circle cx="884.4" cy="403.2" r="0.5"/>
		<circle cx="881.7" cy="403.9" r="0.5"/>
		<circle cx="889.5" cy="402.3" r="0.5"/>
		<circle cx="887" cy="402.8" r="0.5"/>
		<circle cx="892.2" cy="401.4" r="0.5"/>
		<circle cx="862.3" cy="403" r="0.5"/>
		<circle cx="867.8" cy="403.9" r="0.5"/>
		<circle cx="873.6" cy="404.4" r="0.5"/>
		<circle cx="879" cy="404.4" r="0.5"/>
	</g>
	<g class="st13">
		<circle cx="854.4" cy="403" r="0.5"/>
		<circle cx="856.7" cy="403.7" r="0.5"/>
		<circle cx="859.7" cy="404.6" r="0.5"/>
		<circle cx="864.9" cy="405.7" r="0.5"/>
		<circle cx="870.4" cy="406.4" r="0.5"/>
		<circle cx="876.2" cy="406.7" r="0.5"/>
		<circle cx="884.4" cy="405.5" r="0.5"/>
		<circle cx="881.7" cy="406.2" r="0.5"/>
		<circle cx="889.5" cy="404.6" r="0.5"/>
		<circle cx="887" cy="405.1" r="0.5"/>
		<circle cx="892.2" cy="403.7" r="0.5"/>
		<circle cx="862.3" cy="405.3" r="0.5"/>
		<circle cx="867.8" cy="406.2" r="0.5"/>
		<circle cx="873.6" cy="406.7" r="0.5"/>
		<circle cx="879" cy="406.7" r="0.5"/>
	</g>
	<g class="st13">
		<circle cx="854.4" cy="405.3" r="0.5"/>
		<circle cx="856.7" cy="406" r="0.5"/>
		<circle cx="859.7" cy="406.9" r="0.5"/>
		<circle cx="864.9" cy="408" r="0.5"/>
		<circle cx="870.4" cy="408.7" r="0.5"/>
		<circle cx="876.2" cy="408.9" r="0.5"/>
		<circle cx="884.4" cy="407.8" r="0.5"/>
		<circle cx="881.7" cy="408.5" r="0.5"/>
		<circle cx="889.5" cy="406.9" r="0.5"/>
		<circle cx="887" cy="407.4" r="0.5"/>
		<circle cx="892.2" cy="406" r="0.5"/>
		<circle cx="862.3" cy="407.5" r="0.5"/>
		<circle cx="867.8" cy="408.5" r="0.5"/>
		<circle cx="873.6" cy="408.9" r="0.5"/>
		<circle cx="879" cy="408.9" r="0.5"/>
	</g>
	<g class="st13">
		<circle cx="854.4" cy="407.6" r="0.5"/>
		<circle cx="856.7" cy="408.2" r="0.5"/>
		<circle cx="859.7" cy="409.2" r="0.5"/>
		<circle cx="864.9" cy="410.3" r="0.5"/>
		<circle cx="870.4" cy="411" r="0.5"/>
		<circle cx="876.2" cy="411.2" r="0.5"/>
		<circle cx="884.4" cy="410.1" r="0.5"/>
		<circle cx="881.7" cy="410.8" r="0.5"/>
		<circle cx="889.5" cy="409.2" r="0.5"/>
		<circle cx="887" cy="409.6" r="0.5"/>
		<circle cx="892.2" cy="408.2" r="0.5"/>
		<circle cx="862.3" cy="409.8" r="0.5"/>
		<circle cx="867.8" cy="410.8" r="0.5"/>
		<circle cx="873.6" cy="411.2" r="0.5"/>
		<circle cx="879" cy="411.2" r="0.5"/>
	</g>
	<g class="st13">
		<circle cx="854.4" cy="409.9" r="0.5"/>
		<circle cx="856.7" cy="410.5" r="0.5"/>
		<circle cx="859.7" cy="411.5" r="0.5"/>
		<circle cx="864.9" cy="412.6" r="0.5"/>
		<circle cx="870.4" cy="413.3" r="0.5"/>
		<circle cx="876.2" cy="413.5" r="0.5"/>
		<circle cx="884.4" cy="412.4" r="0.5"/>
		<circle cx="881.7" cy="413.1" r="0.5"/>
		<circle cx="889.5" cy="411.5" r="0.5"/>
		<circle cx="887" cy="411.9" r="0.5"/>
		<circle cx="892.2" cy="410.5" r="0.5"/>
		<circle cx="862.3" cy="412.1" r="0.5"/>
		<circle cx="867.8" cy="413.1" r="0.5"/>
		<circle cx="873.6" cy="413.5" r="0.5"/>
		<circle cx="879" cy="413.5" r="0.5"/>
	</g>
	<g class="st13">
		<circle cx="854.4" cy="412.2" r="0.5"/>
		<circle cx="856.7" cy="412.8" r="0.5"/>
		<circle cx="859.7" cy="413.8" r="0.5"/>
		<circle cx="864.9" cy="414.9" r="0.5"/>
		<circle cx="870.4" cy="415.6" r="0.5"/>
		<circle cx="876.2" cy="415.8" r="0.5"/>
		<circle cx="884.4" cy="414.7" r="0.5"/>
		<circle cx="881.7" cy="415.4" r="0.5"/>
		<circle cx="889.5" cy="413.8" r="0.5"/>
		<circle cx="887" cy="414.2" r="0.5"/>
		<circle cx="892.2" cy="412.8" r="0.5"/>
		<circle cx="862.3" cy="414.4" r="0.5"/>
		<circle cx="867.8" cy="415.4" r="0.5"/>
		<circle cx="873.6" cy="415.8" r="0.5"/>
		<circle cx="879" cy="415.8" r="0.5"/>
	</g>
	<g class="st13">
		<circle cx="854.4" cy="414.5" r="0.5"/>
		<circle cx="856.7" cy="415.1" r="0.5"/>
		<circle cx="859.7" cy="416.1" r="0.5"/>
		<circle cx="864.9" cy="417.2" r="0.5"/>
		<circle cx="870.4" cy="417.9" r="0.5"/>
		<circle cx="876.2" cy="418.1" r="0.5"/>
		<circle cx="884.4" cy="417" r="0.5"/>
		<circle cx="881.7" cy="417.7" r="0.5"/>
		<circle cx="889.5" cy="416.1" r="0.5"/>
		<circle cx="887" cy="416.5" r="0.5"/>
		<circle cx="892.2" cy="415.1" r="0.5"/>
		<circle cx="862.3" cy="416.7" r="0.5"/>
		<circle cx="867.8" cy="417.7" r="0.5"/>
		<circle cx="873.6" cy="418.1" r="0.5"/>
		<circle cx="879" cy="418.1" r="0.5"/>
	</g>
	<g class="st13">
		<circle cx="854.4" cy="416.8" r="0.5"/>
		<circle cx="856.7" cy="417.4" r="0.5"/>
		<circle cx="859.7" cy="418.4" r="0.5"/>
		<circle cx="864.9" cy="419.5" r="0.5"/>
		<circle cx="870.4" cy="420.2" r="0.5"/>
		<circle cx="876.2" cy="420.4" r="0.5"/>
		<circle cx="884.4" cy="419.3" r="0.5"/>
		<circle cx="881.7" cy="420" r="0.5"/>
		<circle cx="889.5" cy="418.4" r="0.5"/>
		<circle cx="887" cy="418.8" r="0.5"/>
		<circle cx="892.2" cy="417.4" r="0.5"/>
		<circle cx="862.3" cy="419" r="0.5"/>
		<circle cx="867.8" cy="420" r="0.5"/>
		<circle cx="873.6" cy="420.4" r="0.5"/>
		<circle cx="879" cy="420.4" r="0.5"/>
	</g>
	<g class="st13">
		<circle cx="854.4" cy="419.1" r="0.5"/>
		<circle cx="856.7" cy="419.7" r="0.5"/>
		<circle cx="859.7" cy="420.7" r="0.5"/>
		<circle cx="864.9" cy="421.8" r="0.5"/>
		<circle cx="870.4" cy="422.5" r="0.5"/>
		<circle cx="876.2" cy="422.7" r="0.5"/>
		<circle cx="884.4" cy="421.6" r="0.5"/>
		<circle cx="881.7" cy="422.3" r="0.5"/>
		<circle cx="889.5" cy="420.7" r="0.5"/>
		<circle cx="887" cy="421.1" r="0.5"/>
		<circle cx="892.2" cy="419.7" r="0.5"/>
		<circle cx="862.3" cy="421.3" r="0.5"/>
		<circle cx="867.8" cy="422.3" r="0.5"/>
		<circle cx="873.6" cy="422.7" r="0.5"/>
		<circle cx="879" cy="422.7" r="0.5"/>
	</g>
	<path class="st2" d="M928.6,264c0,0,13.7-5.1,18.2,5.4l1.3,0.3l2.9,0.7c7.2-10.8,26.3,0,26.3,0l26.8,11.9l-1,1.7l-26.9-9.4
		c0,0-3.6,11-8.2,13.6c-4.6,2.6-12.2-1.5-12.2-1.5c-4.7-1.9-5.1-10.2-5-14.2l-4.1-0.8c-0.3,4-1.8,11.7-9,12.6
		c-9.8,1.2-10.5-7.5-10.5-7.5S926.9,265.9,928.6,264z"/>
	<path class="st10" d="M933.3,264.2c-0.5,1-1.1,2.4-0.2,3.1c0.4,0.2,1,0.3,1.4,0.2c3.1-0.6,4.7-3.7,6-6.4s3.2-5.7,6.4-6
		c3.7-0.3,7.5,3.5,10.6,1.5c0.9-0.6,1.5-1.7,2.5-2.1c0.8-0.3,1.6-0.3,2.4-0.1c7.1,1.2,12.6,6.6,13.5,13.4c0.2,1.4,0.5,3.2,1.9,3.4
		c0.6,0,1.1-0.1,1.6-0.2c2.8-0.3,4.5,2.7,5.4,5.2c1.2,3.4,2.4,7,1.7,10.6c-0.6,2.8-2.3,5.4-2.4,8.2c-0.1,2.3,1,4.6,2,6.7
		s2.7,4.6,5.2,4.3c2-0.3,3.1-2.3,4.1-4c1-1.7,2.7-3.5,4.7-3c0.9,0.2,1.8,0.9,2.6,0.5c0.4-0.3,0.7-0.7,0.8-1.2
		c1-3.9-0.4-8.4,1.6-11.9c1.6-2.7,4.7-4.2,7.3-6.2c9-6.8,10.5-19.2,3.3-27.7c-0.2-0.2-0.3-0.4-0.5-0.5c-2.7-3-6.7-5.7-6.9-9.7
		c-0.2-3,2-5.8,2-8.9c0-3-2-5.6-4.2-7.6c-6.8-5.8-16.1-8.2-25-6.2c-2.3,0.5-4.6,1.3-7,1.1c-2.7-0.3-5-2-7.5-3.2
		c-8.1-3.9-19-1.1-23.9,6.1c-2.8,4.2-3.9,9.6-8.2,12.5c-2.8,1.9-6.7,2.6-8.3,5.5c-0.9,1.7-0.7,3.8-0.4,5.7c0.4,3.2,2,6.1,4.5,8.2
		C932.8,257.9,935,260.5,933.3,264.2z"/>
</g>
<g class="st0">
	<path class="st14" d="M24,217.8c0,0.9,0,1.9,0.1,2.8c0.4,10.2,1.6,20.3,3.5,30.4c5.7,29.8,17.7,59.6,31.9,88
		c0.2,0.5,0.5,0.9,0.7,1.4c0.3,0.7,0.7,1.3,1,2c0.7,1.4,1.4,2.7,2.1,4.1l1.6,3l0,0c0.4,0.7,0.8,1.4,1.1,2.2c0.2,0.4,0.5,0.9,0.7,1.3
		c3.9,7.5,8.2,14.7,12.9,21.8l0.5,0.8c5.8,8.8,12.7,16.8,20.4,24c13.5,12.5,30.7,21.5,49.1,26.6c0.6,0.2,1.2,0.3,1.9,0.5
		c1.2,0.3,2.4,0.6,3.6,0.9c0.8,0.2,1.7,0.4,2.5,0.6c5.9,1.3,11.8,2.1,17.8,2.6c3.2,0.2,6.5,0.4,9.7,0.4h1.4c4,0,8-0.3,11.9-0.7
		l0.6-0.1c10.8-1.2,21.3-4,31.2-8.4c1.6-0.7,3.1-1.5,4.6-2.2l0.8-0.4l0.4-0.2l0,0c5.1-2.7,10-5.8,14.7-9.2
		c5.4-3.9,10.6-8.1,15.6-12.5c7.4-6.5,14.4-13.4,21-20.7l0.3-0.3c2.8-3.2,5.5-6.4,8.1-9.8v-0.1c1.8-2.3,3.5-4.7,5.1-7.1
		c0.1-0.1,0.1-0.2,0.2-0.3c2.4-3.6,4.6-7.2,6.6-11l0.5-0.9c1.5-2.8,2.8-5.6,4-8.4c6.9-16.1,10-33.5,11.7-50.9
		c3.5-35.3,1.4-71.6-7.9-106.9c-1.3-4.8-2.7-9.5-4.2-14.2c-0.2-0.6-0.4-1.3-0.6-1.9c-0.3-1-0.7-2-1-3.1c-0.1-0.4-0.3-0.9-0.4-1.3
		c-1.3-3.8-2.8-7.7-4.3-11.4l-0.8-2c-0.9-2-1.7-4.1-2.6-6.1c-0.8-1.9-1.7-3.8-2.6-5.6c-0.1-0.3-0.3-0.6-0.4-0.9
		c-7.7-15.8-17.8-31.2-32.2-42.8c-1-0.8-2-1.6-3-2.3c-1.5-1.1-3-2.2-4.6-3.2l-1.1-0.7l-0.4-0.3l-0.3-0.2l-0.2-0.1
		c-0.8-0.5-1.6-1-2.5-1.4s-1.7-0.9-2.6-1.3l0,0H252l-0.3-0.2c-0.7-0.3-1.4-0.7-2-1l-0.7-0.3l-0.3-0.1l-1.1-0.5
		c-5.1-2.1-10.5-3.7-15.9-4.8c-3-0.6-0.8,3.3-3.9,3.1c-4.7-0.3-1.7,4.8-6.3,5.6c-0.7,0.1-4.1-2-4.8-1.8c-5.8,1.2,32.8,68.7,28,72.1
		c-6.3,4.6-35.1-22.8-39.2-16.5l-7.8-1c-0.7,1.1-9-0.3-9.7,0.8c-2.3,3.7-5.5-4.4-8-0.7c-2.3,3.4-14.7-7.1-17.3-3.9
		c-2.6,3.2-9.1-2.3-12.1,0.5c-0.4,0.4-0.9,0.8-1.4,1.2c-5.6,5-12,8.9-18.9,11.6c-6.3,2.4-13,3.4-19.5,2.1l0,0
		c-1.9-0.4-3.7-1-5.4-1.7c-3.3-1.4-6.4-2.9-9.6-4.1c-5.6-2.4-11.5-4.1-17.5-5l0,0c-6.2-0.8-12.6-0.1-18.5,2c-1,0.4-1.9,0.8-2.9,1.2
		c-4.4,1.9-8.4,4.6-11.8,7.9c-0.4,0.4-0.8,0.8-1.2,1.2c-8.8,8.9-13.6,21.3-16.2,33.4C24.9,194.5,23.8,206.2,24,217.8z"/>
	<path class="st15" d="M306.3,170c-1.1,0.7-2.4,1.2-3.7,1.4c-4.8,0.1-8.8-12.9-8.8-12.9s1.4-1.4,3.6-3.3c6.5-5.8,20-16.4,26.4-10.4
		C330.9,151.4,314.6,165.5,306.3,170z"/>
	<path class="st15" d="M157.5,428c5.9,1.3,11.8,2.1,17.8,2.6c-2.5-4.5-19-9.8-19-9.8l-2.2,2.6l-1.1,1.2l-1.6,1.9
		c1.2,0.3,2.4,0.6,3.6,0.9C155.8,427.6,156.7,427.8,157.5,428z"/>
	<path class="st3" d="M306.3,170c-1.1,0.7-2.4,1.2-3.7,1.4c-4.8,0.1-8.8-12.9-8.8-12.9s1.4-1.4,3.6-3.3
		C298.9,158.7,303.2,168.2,306.3,170z"/>
	<path class="st16" d="M275.3,165.3c0,0,4,0.3,6.5-1.4s13.5-6.4,13.8-9.5c0,0,6.5,15.9,10.2,16.5c0,0-11.4,8.9-12.2,11.8
		s-23,9.8-23,9.8L275.3,165.3z"/>
	<path class="st17" d="M275.3,165.3c0,0,4,0.3,6.5-1.4s13.5-6.4,13.8-9.5c0,0,6.5,15.9,10.2,16.5c0,0-11.4,8.9-12.2,11.8
		s-23,9.8-23,9.8L275.3,165.3z"/>
	<path class="st3" d="M153,424.6c0.5,0.8,1.2,1.7,2,2.8c0.8,0.2,1.7,0.4,2.5,0.6c5.9,1.3,11.8,2.1,17.8,2.6c-2.5-4.5-19-9.8-19-9.8
		l-2.2,2.6L153,424.6z"/>
	<path class="st17" d="M153.2,421.9c0,0,0.3,0.6,0.9,1.5c1.1,1.6,2.2,3.2,3.5,4.6c5.9,1.3,11.8,2.1,17.8,2.6
		c3.2,0.2,6.5,0.4,9.7,0.4h1.4c0.4-0.6,0.7-1.3,1-2c1.2-2.9,5.9-8,11-13c0.2-0.2,0.5-0.5,0.7-0.7c7.3-7.1,15.2-13.8,15.2-13.8
		l0.8-48.7c0,0-1.7,2.3-4.2,5.4c-4.5,5.6-11.5,13.9-14.8,15.2C191,375.5,153.2,421.9,153.2,421.9z"/>
	<path class="st3" d="M153.2,421.9c0,0,0.3,0.6,0.9,1.5c1.1,1.6,2.2,3.2,3.5,4.6c5.9,1.3,11.8,2.1,17.8,2.6c3.2,0.2,6.5,0.4,9.7,0.4
		h1.4c0.4-0.6,0.7-1.3,1-2c1.2-2.9,5.9-8,11-13c0.2-0.2,0.5-0.5,0.7-0.7c7.3-7.1,15.2-13.8,15.2-13.8l0.8-48.7c0,0-1.7,2.3-4.2,5.4
		c-4.5,5.6-11.5,13.9-14.8,15.2C191,375.5,153.2,421.9,153.2,421.9z"/>
	<path class="st3" d="M173,415c4.2,0.4,8.4,0.4,12.6,0C193.2,414.3,187.5,418.8,173,415z"/>
	<path class="st3" d="M169.6,419.8c0,0,9.9,5.7,13.8,2.8S179.7,425.4,169.6,419.8z"/>
	<path class="st17" d="M209.7,300.2c0.4,0.9,0.5,1.9,0.2,2.8c-0.4,1-0.6,2.1-0.4,3.2c0.1,0.6,0.2,1.3,0.3,1.9
		c0.2,0.7,0.3,1.1,0.3,1.1l1.7,37.5c0,3.8-0.3,7.7-0.8,11.5c-0.5,4-1.5,8.1-3,10.5c-3.4,5.2-7.8,39.2-8.7,46.5l-0.2,1.4l-0.1,13.5
		c10.8-1.2,21.3-4,31.2-8.4c1.6-0.7,3.1-1.5,4.6-2.2l0.8-0.4l0.4-0.2l0,0c0.7-3.5,1.3-6.8,1.8-9.4l0.1-0.4c0.1-0.4,0.1-0.7,0.2-1
		s0.1-0.6,0.2-0.9s0.1-0.4,0.1-0.6c0.2-1.1,0.3-1.8,0.3-1.8c0.1-0.9,0.2-1.9,0.4-2.8l0,0c0.5-2.6,1.7-5,3.6-6.9
		c1.1-1.2,1.9-2.8,2.2-4.4l0,0c0.6-3.2,0.7-6.4,0.3-9.6c0.2-0.1,0.4-0.2,0.5-0.4c1.2-0.8,4.3-3.5,6-9.3c0.2-0.8,0.4-1.7,0.6-2.5
		c1.7-9.3,7.2-29.6,7.2-29.6s0.2-0.5,0.6-1.5l0,0c0.1-0.3,0.3-0.7,0.4-1.1c0-0.1,0-0.1,0.1-0.2l0.1-0.2l0,0
		c2.9-8.2,10.1-30.5,9.5-45.7c-0.8-18.9,1.1-28.8,1.1-28.8l2.4-44v-0.7v-0.4l0.2-4.1l-21.8-0.6h-1.3l-5.2-0.2h-0.2h-0.6l-7-0.2
		l-3.1-0.1l-5.6-0.2H228h-1.1l-4.4-0.1l-12.7,7.4c0,0-0.5,1.2-1.3,3.2c-0.2,0.4-0.4,0.9-0.6,1.4s-0.4,1.1-0.7,1.7l-1.8,4.3
		c-0.2,0.5-0.4,1-0.6,1.5c-2.7,6.4-5.7,13.4-7.3,16.3c-1.9,3.5-2,16,0.6,28c1.6,7.4,4.4,14.7,8.4,19.6
		C207.8,296.3,208.8,298.2,209.7,300.2z"/>
	<path class="st3" d="M223.9,401.3c0,0,7.8,6.1,11,6.1S223.9,401.3,223.9,401.3z"/>
	<path class="st15" d="M270.6,144.9v12.5l-8.3-3.6l-8.2-3.6l-17.9-17.6c0,0-14.2-9.2-21.8-17.6c-4.3-4.8-6.5-9.3-2.7-11.7
		c1.8-1.2,3.5-2.7,4.9-4.3c3.8-4.5,7.1-9.4,9.9-14.6c0.1-0.2,0.2-0.4,0.4-0.6c3.7-6.8,6.1-12.6,6.1-12.6s10.4,3.3,17.1,8
		c0.5,0.4,1,0.8,1.5,1.2c3.7,3.1,5.6,6.6,2.1,10.1c-0.9,0.9-1.7,1.9-2.5,2.9l0,0c-0.6,0.8-1.1,1.6-1.5,2.4c-0.2,0.4-0.4,0.7-0.6,1.1
		c-2.3,4.7-3.1,10-2.3,15.2L270.6,144.9z"/>
	<path class="st10" d="M269.1,55.6c0.4,0.7,1,1.4,1.4,2.2c0.8,1.6,0.7,3.5,0.6,5.3c-0.2,2.8,0,5.7,0.5,8.5c0.6,2.5,1.7,4.9,1.8,7.5
		c0.1,3.6-1.8,7-3.6,10.1c2-0.1,3.9-0.9,5.2-2.4c0.5,1.6,0.1,3.4-1,4.7c3-0.1,5.5-2.5,6.6-5.2c1-2.8,1.3-5.8,0.9-8.8
		c-0.4-2.9-0.7-5.9-0.6-8.9c0.2-1.6,0.3-3.2,0.3-4.8c-0.3-3.2-2.3-6-4.2-8.6l-3.9-5.3c-0.3-0.4-0.6-0.8-1.1-1
		C268.5,47.1,268.1,53.8,269.1,55.6z"/>
	<path class="st3" d="M253.8,90.6c-0.9,0.9-1.7,1.9-2.5,2.9l0,0c-0.6,0.8-1.1,1.6-1.5,2.4c-0.2,0.4-0.4,0.7-0.6,1.1
		c-5-0.3-9.9-1.8-14.2-4.5c-3.2-2-5.9-4.6-8.1-7.6c-0.1-0.2-0.2-0.3-0.4-0.5c0.1-0.2,0.2-0.4,0.4-0.6c3.7-6.8,6.1-12.6,6.1-12.6
		s10.4,3.3,17.1,8c0.5,0.4,1,0.8,1.5,1.2C255.4,83.5,257.3,87,253.8,90.6z"/>
	<path class="st15" d="M280.8,66.1c0,14.4-10.3,26.7-24.4,29.4c-1.8,0.3-3.6,0.5-5.4,0.5h-0.1c-0.3,0-0.6,0-1,0
		c-5.2-0.2-10.3-1.7-14.8-4.5c-3.2-2-5.9-4.5-8.1-7.6c-9.7-13.3-6.8-31.9,6.4-41.7c13.3-9.7,31.9-6.8,41.7,6.4
		C278.8,53.7,280.8,59.8,280.8,66.1z"/>
	<path class="st3" d="M254.9,139.8c0,0,15,8.5,11.2,1.3l-19.6-29l0,0l22.3,28.6c0,0,14.2,19.5,6.4,33c0,0-1.1,11.2,0.2,13.8
		s-0.4,30.9-0.4,30.9s-5.3-4.9-8.1-4S244,217,244,217L254.9,139.8z"/>
	<path class="st3" d="M273.6,212.6l-0.3,5.2c-1.8-1.3-4.3-2.8-6-2.2c-2.8,0.9-22.9,2.7-22.9,2.7l0.9-6.5L273.6,212.6z"/>
	<path class="st10" d="M255.5,139.8c0,0,15,8.5,11.2,1.3l-19.6-29l0,0l22.3,28.6c0,0,14.2,19.5,6.4,33c0,0-1.1,11.2,0.2,13.8
		s-0.4,30.9-0.4,30.9s-5.3-4.9-8.1-4s-22.9,2.6-22.9,2.6L255.5,139.8z"/>
	<path class="st3" d="M263.5,154.4c-0.9,9.1-4.6,19.9-4.6,19.9s-2.6,26.9-6,34.9s-1.9,18.9-3.8,39.2c-0.7,7.3-3,12.3-6.2,15.7
		c-5.2,5.6-12.7,6.7-18.6,6.4c-0.5,0-0.9-0.1-1.4-0.1c-9.5-1-18.6-46.6-18.6-46.6s-4.4-38.8-2.6-44.1s-1.7-35.6-2.8-42.2
		c-0.7-4.2,1.4-11.1,3.1-15.5c1-2.6,1.8-4.4,1.8-4.4s3.2-10.2,8.5-15.5c1.5-1.5,3.5-2.4,5.6-2.4c2.5,0.1,4.9,0.9,7,2.2l0.2,0.2
		c0,0,34.5,35.2,37.7,43.4C263.7,147.6,263.8,150.9,263.5,154.4z"/>
	<path class="st17" d="M262.3,153.8c-0.9,9.1-4.6,19.9-4.6,19.9s-2.6,26.9-6.1,34.9s-1.9,18.9-3.8,39.2c-0.7,7.3-3,12.3-6.2,15.7
		c-5.2,5.6-12.7,6.7-18.6,6.4l-1.4-0.1c-9.5-0.9-18.6-46.6-18.6-46.6s-4.4-38.8-2.6-44.1s-1.7-35.6-2.8-42.2
		c-0.7-4.2,1.4-11.1,3.1-15.5c1-2.6,1.8-4.4,1.8-4.4s3.2-10.2,8.5-15.5c1.5-1.5,3.5-2.4,5.6-2.4c2.5,0.1,4.9,0.9,7,2.2l0.2,0.2
		c0,0,34.5,35.2,37.7,43.4C262.6,147,262.7,150.3,262.3,153.8z"/>
	<path class="st3" d="M223.7,292.5c0,0-7.8,7-10.5,6.7S223.7,292.5,223.7,292.5z"/>
	<path class="st3" d="M225.8,299.2c0,0-8.2,3.8-10.7,4.4S222.6,298.2,225.8,299.2z"/>
	<path class="st3" d="M257.7,194.6c0,0,12.2,0.1,14.1,4S261.7,193,257.7,194.6z"/>
	<path class="st3" d="M256,201.3c0,0,9.4,2,12.2,4.3S256,201.3,256,201.3z"/>
	<path class="st3" d="M238.4,187.8c0.2-0.9,1.5-0.7,1.4,0.2c-0.6,11.8-2.1,30.2-4.9,33.6C231.9,225.1,235.8,201.7,238.4,187.8z"/>
	<path class="st3" d="M229.7,286.9c0,0-7.8,34,7.9,36.1s10.9-38.6,10.9-38.6L229.7,286.9z"/>
	<path class="st15" d="M229.1,286.4c0,0-7.8,34,7.9,36.1s10.9-38.6,10.9-38.6L229.1,286.4z"/>
	<path class="st3" d="M280.6,62.8c-0.4-0.6-0.8-1.3-1.1-2.1c-2.1-4.3-7.5-2.2-11.4-0.1l-2.1,2.7c-1,1.1-1.8,2.4-2.4,3.7
		c-0.4,1.1-0.7,2.2-1,3.3c-0.5,1.9-1.3,3.8-2.1,5.6c-2.4,6.2-3.8,12.8-4.2,19.5c-1.8,0.3-3.6,0.5-5.4,0.5h-0.1v-0.1
		c0.2-0.8,0.4-1.5,0.5-2.3l0,0c0.8-4.3,0.9-8.7,0.3-13c0-0.1,0-0.2,0-0.3c-0.1-1-0.3-1.9-0.4-2.9c-0.4,0.7-0.7,1.3-1.1,2
		c-2.4,4.5-4.9,8.8-9.4,10.8c-1.8,0.7-3.7,1.1-5.7,1.3c-2.4,0.1-4.8,0.5-7.1,1.2c-0.8,0.2-1.5,0.7-2.1,1.2c-0.6,0.9-1,2-1,3.1
		c-0.2,1.5-0.6,2.9-1.1,4.3c-2,5.2-5.2,9.9-9.2,13.8l-1,1c-1.7,1.8-3.8,3.2-6.1,4.2c-2.1,0.7-4.3,1.1-6.5,1c1-2.6,1.8-4.4,1.8-4.4
		s3.2-10.2,8.5-15.5c1.5-1.5,3.5-2.4,5.6-2.4c3.9-4.7,7.3-9.8,10.2-15.2c-9.8-13.3-7-31.9,6.3-41.7s31.9-7,41.7,6.3
		C278.1,52.6,280.1,57.6,280.6,62.8L280.6,62.8z"/>
	<path class="st18" d="M282.5,41.7c-1.8-2-4.2-3.1-6.6-4.2c-0.7-0.3-1.4-0.8-1.9-1.4c-0.1-0.1-0.2-0.3-0.3-0.5
		c-0.3-0.8-0.5-1.6-0.6-2.4c-0.9-5.6-1.8-7.6-11.2-12c-0.2-0.1-0.5-0.2-0.7-0.2c-4.3-0.4-11.2-0.2-18,1.9c-0.1,0-0.2,0.1-0.3,0.1
		c-3.2,1.6-8.7,1.9-11.5,4.1c-3.7,2.8-7.9,4.8-11.8,7.2s-7.6,5.5-9.5,9.8c-2.9,6.5-0.7,14-0.4,21.1c0.6,11.2-4,22.9-13.1,29.6
		c-1.1,0.7-2.1,1.5-2.9,2.5c-0.8,1-0.9,2.4-0.2,3.6c0.4,0.6,1.2,1,1.7,1.6c1,1.2,0.8,3,0.4,4.5c-1.1,4.2-3.2,8.1-6.1,11.4
		c-1.1,1.2-0.4,3.1,1.2,3.4l0,0c3.1,0.5,6.2,0.7,9.3,0.7c4.9,0.4,9.7-1.5,13-5.2c5.5-5.2,10.2-11.7,11.4-19.1c0.1-1,0.3-2,0.8-2.8
		c0.1-0.2,0.3-0.3,0.4-0.5c0.5-0.5,1.2-0.8,1.9-1c4.1-1.4,8.8-0.7,12.8-2.5c5.2-2.2,7.7-7.7,10.4-12.8c0.1,1,0.3,1.9,0.4,2.9
		c0.8,5.2,0.5,10.5-0.8,15.6c-0.7,2.9-1.8,5.8-1.7,8.7c0.1,2.2,2.3,13.8,5.2,10.3s1.9-11.1,1.9-15.4c0-8,1.5-16,4.3-23.5
		c0.7-1.9,1.5-3.7,2.1-5.6c0.3-1.1,0.6-2.1,1-3.2c0-0.1,0.1-0.2,0.1-0.3c0.6-1.3,1.4-2.5,2.3-3.6l1.8-2.3c0.2-0.2,0.4-0.4,0.7-0.6
		c3.9-2,9-3.8,11,0.3c0.8,1.7,1.2,3.5,3.3,1.9c1.2-1,1.6-2.8,2-4.3C285.6,53.4,286.7,46.3,282.5,41.7z"/>
	<path class="st3" d="M242.5,143.8c-0.8-20.4-29.4-24.6-36-5.3c-0.1,0.1-0.1,0.3-0.1,0.4c-4.4,13.1-2.5,46.2-2.5,46.2
		s0.6,22.2,2.7,29.6s7.9,28.6,7.9,32s5.4,16.5,7.7,17.4s3.5,8.3,4,9.7s2.2,18.6,2.2,18.6s21.4-1.3,21.8-4.7s-4.7-20.1-4.7-20.1
		s-3.8-6.8-4.2-12.3s-3.5-8-2.9-11.7s-1.7-5.7-1.7-8.1s-1.7-9.1-1.7-9.1s-3.6-2.8-3-6.2s-5.1-10.2-3.6-12.7s1.9-8.5,1.9-8.5
		s1.9-27.3,3.2-34.7s9.1-19.3,9.1-19.3S242.6,144.4,242.5,143.8z"/>
	<path class="st3" d="M241.7,263.5c-5.2,5.6-12.7,6.7-18.6,6.4c-0.7-2.6-1.7-5.8-3.1-6.4c-2.3-1-7.7-14-7.7-17.4s-5.9-24.6-8-32
		s-2.6-29.6-2.6-29.6s-1.9-33.1,2.5-46.2c0-0.1,0.1-0.3,0.1-0.4c6.7-19.3,35.2-15.1,36,5.3c0,0.6,0,0.9,0,0.9s-7.8,11.9-9.1,19.3
		s-3.2,34.7-3.2,34.7s-0.4,6.1-1.9,8.5s4.2,9.3,3.6,12.7s3,6.2,3,6.2s1.7,6.6,1.7,9.1s2.3,4.4,1.7,8.1c-0.6,3.8,2.5,6.2,2.9,11.8
		C239.4,257.7,240.3,260.7,241.7,263.5z"/>
	<path class="st17" d="M241.4,143.2c-0.8-20.4-29.4-24.6-36-5.3c0,0.1-0.1,0.3-0.1,0.4c-4.4,13.1-2.5,46.2-2.5,46.2
		s0.6,22.2,2.6,29.6s8,28.6,8,32s5.4,16.5,7.7,17.4s3.4,8.3,4,9.7s2.3,18.6,2.3,18.6s21.4-1.3,21.8-4.7s-4.7-20.1-4.7-20.1
		s-3.8-6.8-4.3-12.3s-3.5-8-2.9-11.7s-1.7-5.7-1.7-8.1s-1.7-9.1-1.7-9.1s-3.6-2.9-3-6.3s-5.1-10.2-3.6-12.7s1.9-8.5,1.9-8.5
		s1.9-27.3,3.2-34.7s9.1-19.3,9.1-19.3S241.4,143.9,241.4,143.2z"/>
	<path class="st3" d="M206.2,195.7c0.6-0.6,11.4-12.5,14.8-8.2S206.2,195.7,206.2,195.7z"/>
	<path class="st3" d="M207.2,205c0.4-0.4,10.8-0.9,13.4-6.7S207.2,205,207.2,205z"/>
	<g class="st19">
		<path d="M195.4,100.2c0.3,0.3,0.5,0.6,0.6,1c0.4-1.3,0.2-2.7-0.6-3.9c-0.5-0.6-1.2-0.9-1.7-1.5l-0.1-0.2c-0.5,0.9-0.5,2.1,0.1,3
			C194.2,99.3,194.9,99.6,195.4,100.2z"/>
		<path d="M209.9,63.4c0-1.1,0-2.2,0-3.2c-0.2-3.9-0.9-7.8-1.1-11.7c-0.2,4.7,0.8,9.7,1.1,14.6C209.9,63.1,209.9,63.2,209.9,63.4z"
			/>
		<path d="M254.2,110.8c-2.6,3.1-4.7-5.8-5.1-9.3c-0.1,0.6-0.1,1.2-0.1,1.8c0.1,2.2,2.3,13.8,5.2,10.3c2-2.3,2.2-6.3,2.1-10
			C256.1,106.4,255.7,109.1,254.2,110.8z"/>
		<path d="M251.4,79c0.2,1.5,0.4,3,0.4,4.5c0.1-2.5,0-4.9-0.4-7.3c-0.1-1-0.3-1.9-0.4-2.9c-2.7,5.1-5.3,10.6-10.4,12.8
			c-4,1.7-8.7,1-12.8,2.5c-0.8,0.2-1.5,0.7-2.1,1.2c-0.6,0.9-1,2-1,3.1c-1.2,7.5-5.9,14-11.4,19.1c-3.3,3.7-8.1,5.6-13,5.2
			c-3.1,0-6.2-0.2-9.3-0.7c-0.5-0.1-0.9-0.2-1.4-0.4c-0.4,0.5-0.9,1-1.4,1.4c0.2,1.2,1.6,1.6,2.7,1.8c3.1,0.5,6.2,0.7,9.3,0.7
			c4.9,0.4,9.7-1.5,13-5.2c5.5-5.2,10.2-11.7,11.4-19.1c0-1.1,0.4-2.2,1-3.1c0.6-0.6,1.3-1,2.1-1.2c4.1-1.4,8.8-0.7,12.8-2.5
			c5.2-2.2,7.7-7.7,10.4-12.8C251.1,77.1,251.3,78.1,251.4,79z"/>
		<path d="M284.6,54.3c-0.3,1.4-0.7,3.3-2,4.3c-2.1,1.6-2.5-0.2-3.3-1.9c-2.1-4.3-7.5-2.2-11.4-0.1l-2.1,2.7c-1,1.1-1.8,2.4-2.4,3.7
			c-0.4,1.1-0.7,2.2-1,3.3c-0.5,1.9-1.3,3.8-2.1,5.6c-2.9,7.5-4.3,15.5-4.3,23.5c0,0.4,0,0.8,0,1.2c0.2-7.5,1.7-14.8,4.3-21.8
			c0.7-1.9,1.5-3.7,2.1-5.6c0.3-1.1,0.6-2.2,1-3.3c0.6-1.3,1.4-2.6,2.4-3.7l2.1-2.7c3.9-2.1,9.3-4.2,11.4,0.1
			c0.8,1.7,1.2,3.5,3.3,1.9c1.2-1,1.6-2.8,2-4.3c0.9-3.3,1.2-6.8,1.1-10.2C285.5,49.5,285.1,51.9,284.6,54.3z"/>
	</g>
	<path class="st10" d="M310.4,161.9l0.6,0.4c-1.1-0.7-1.3-2.2-0.6-3.3l0,0l26.3-38.2c0.7-1.1,2.2-1.3,3.3-0.6l-0.6-0.4
		c1.7,1.2,2.2,3.5,1,5.2l0,0l-24.8,35.8C314.5,162.6,312.1,163.1,310.4,161.9L310.4,161.9z"/>
	<path class="st20" d="M339.5,119.9l0.6,0.4l0,0l-29,42.1l0,0l-0.6-0.4c-0.8-0.5-1-1.6-0.4-2.4l27-39.2
		C337.6,119.5,338.7,119.3,339.5,119.9z"/>
	<path class="st10" d="M336.3,125.7l0.1,0.1c0.1,0.1,0.1,0.2,0,0.2l-2.2,3.2c-0.1,0.1-0.2,0.1-0.2,0l-0.1-0.1
		c-0.1-0.1-0.1-0.2,0-0.2l2.2-3.2C336.1,125.6,336.3,125.6,336.3,125.7z"/>
</g>
<linearGradient id="SVGID_1_" gradientUnits="userSpaceOnUse" x1="424.9074" y1="1056.8999" x2="424.9074" y2="912.4" gradientTransform="matrix(1 0 0 1 -39.48 -250.1)">
	<stop  offset="0" style="stop-color:#808080;stop-opacity:0.25"/>
	<stop  offset="0.54" style="stop-color:#808080;stop-opacity:0.12"/>
	<stop  offset="1" style="stop-color:#808080;stop-opacity:0.1"/>
</linearGradient>
<path class="st21" d="M211,740l-12.9,0.4l-12-78.1C195,690.9,203.7,718,211,740z M543.2,787.5l-8.4-17.1c1.9,0.1,3.8-0.4,5.4-1.5
	c5.4-3.9,8.7-13.1,8.7-13.1l14.5-17.2l1.2-1.4c2.9,8.2,6.4,14.7,9.2,17.8c6.9,7.8,7.8,30.5,9.9,38.7s0.5,4.8,0,9.6
	c-0.1,1.2,0,2.3,0.3,3.5C574.5,796.5,560.9,787.2,543.2,787.5z"/>
<polygon class="st22" points="93.8,835 179.2,742.5 518.2,731.6 577.4,851.6 93.8,851.6 "/>
<polygon class="st8" points="93.8,835 179.2,742.5 518.2,731.6 577.4,851.6 93.8,851.6 "/>
<path class="st22" d="M535.4,827.3v3.2c0,3.4-2.8,6.2-6.2,6.2H347c-3.5,0,0-6.9,0-6.9l-2.1-45.1c-0.2-3.5,2.2-6.7,5.6-7.6
	c10.1-2.6,17.1,1.5,17.1,1.5l112.9-2.9c2.3-0.1,4.7,0,7,0.3c8.3,1.1,15.8,5.5,20.7,12.3l25.9,35.2
	C535,824.6,535.4,825.9,535.4,827.3z"/>
<path class="st3" d="M535.4,830.5L535.4,830.5c0,3.4-2.8,6.2-6.2,6.2H347c-3.5,0,0-6.9,0-6.9s10.1-4.9,25-4l133-2.9
	c0,0,15.7,0.4,24.9,1.4C533,824.6,535.4,827.3,535.4,830.5z"/>
<path class="st23" d="M379.7,782.8h101.5c5.2,0,9.6,0.8,10.5,1.8l23.3,28.2c1.1,1.3-3.9,2.6-10.5,2.6H397.6c-5.3,0-9.9-0.8-10.6-1.9
	l-17.9-28.2C368.3,783.9,373.3,782.8,379.7,782.8z"/>
<path class="st22" d="M289.8,808v12L170,824.9c0,0-27.4-1.9-30.8-18.7c-0.3-1.8-0.2-3.6,0.1-5.3c1.2-7.1,7.3-19.5,34.1-25.2l33-3.4
	H280C280,772.3,289.5,781.8,289.8,808z"/>
<path class="st3" d="M289.8,808.4V820L170,824.9c0,0-27.4-1.9-30.8-18.7c-0.3-1.8-0.2-3.6,0.1-5.3c0,0,16.6,15.7,39,13.4l105.4-4.6
	C285.8,809.3,287.8,808.9,289.8,808.4z"/>
<ellipse transform="matrix(0.9955 -9.463064e-02 9.463064e-02 0.9955 -73.6907 22.2551)" class="st3" cx="197.8" cy="788.1" rx="36.9" ry="10.9"/>
<path class="st22" d="M211.1,784.7l-19.4,9.6l-20.6-4.9l-0.1-33.6c1.3-24.5-10-73.6-15.6-95.9c-2.2-8.6-4-17.3-5.6-26l-6.3-34.2
	L133.2,511h24.6l14.4,20.7L211.1,784.7z"/>
<path class="st22" d="M209.5,786.9l-19.4,9.6l-12.4-71.8c0.2-12.2-15.1-70.3-16.1-72.7C149.5,622.9,139,513.3,139,513.3h17.1
	l14.4,20.6L209.5,786.9z"/>
<path class="st24" d="M210.5,786.9l-19.4,9.6l-12.4-71.8c0.2-12.2-15.1-70.3-16.1-72.7C150.5,622.9,140,513.3,140,513.3h17.1
	l14.4,20.6L210.5,786.9z"/>
<path class="st22" d="M325,720.3l-66,69.5l-7.7,0.5l-9.4,0.7c-4.5,0.3-8.7-2.2-10.5-6.3c-20-45-83.9-262.6-97.4-308.7
	c-1.4-4.6,1.3-9.5,5.9-10.8c0.1,0,0.1,0,0.2-0.1l9-2.4l0.7,0.1l96.2,12.9c5.6,0.8,10.3,4.7,12,10.1l70.4,219.9
	C330,710.9,328.7,716.4,325,720.3z"/>
<path class="st3" d="M325,720.3l-66,69.5l-7.7,0.5l-9.4,0.7c-4.5,0.3-8.7-2.2-10.5-6.3c-20-45-83.9-262.6-97.4-308.7
	c-1.4-4.6,1.3-9.5,5.9-10.8c0.1,0,0.1,0,0.2-0.1l9-2.4l0.7,0.1l96.2,12.9c5.6,0.8,10.3,4.7,12,10.1l70.4,219.9
	C330,710.9,328.7,716.4,325,720.3z"/>
<path class="st22" d="M324.8,720.6L259,789.9l-7.7,0.5l-98.7-316c-1.7-3.6-2.6-7.6-2.8-11.5l97.8,13.1c4.6,0.6,8.5,3.9,9.9,8.3
	l70.8,221.1C330,710.8,328.6,716.5,324.8,720.6z"/>
<path class="st6" d="M317.4,708.9c-0.7,1.2-1.6,2.3-2.7,3.3L250,772.4l-88.3-292.8l84.8,8.4c6,0.6,11.1,4.8,12.8,10.5L318.9,697
	C320.1,701,319.6,705.3,317.4,708.9z"/>
<path class="st3" d="M316,708.9L245.1,488c6,0.6,11.1,4.8,12.8,10.5L317.5,697C318.7,701,318.1,705.3,316,708.9z"/>
<circle class="st25" cx="700.3" cy="344.1" r="37.5"/>
<path class="st25" d="M660.2,344.2c0-19.9,15.5-36.3,35.3-37.5c-0.7,0-1.5-0.1-2.2-0.1c-20.7-0.3-37.8,16.2-38.2,36.9
	s16.2,37.8,36.9,38.2c0.4,0,0.8,0,1.2,0c0.8,0,1.5,0,2.2-0.1C675.6,380.5,660.2,364,660.2,344.2z"/>
<path class="st3" d="M667.2,344.1c0-19.9,15.5-36.3,35.3-37.5c-0.7,0-1.5-0.1-2.2-0.1c-20.7,0.3-37.3,17.4-36.9,38.2
	c0.3,20.3,16.7,36.6,36.9,36.9c0.8,0,1.5,0,2.2-0.1C682.7,380.5,667.2,364,667.2,344.1z"/>
<path class="st3" d="M693.6,350.9c13.7,14.4,13.8,37,0.2,51.5c0.5-0.5,1.2-1,1.7-1.4c14.8-14.5,15.1-38.3,0.4-53.1
	c-14.2-14.5-37.3-15-52.2-1.3c-0.6,0.6-1.1,1-1.5,1.6C657.3,335.2,679.9,336.5,693.6,350.9z"/>
<path class="st26" d="M507,765.2c-3.5,1.9-7.1,3.5-10.8,4.9c-9.7,3.8-24.4,8.2-38.1,6.5c-23-2.8-36.8,4.7-36.8,4.7l-5.2-38.3
	c0,0,17-5,23.9-6.2c5.2-1,23.9-9.6,32.8-13.8c3-1.4,4.9-2.3,4.9-2.3h17.2L507,765.2z"/>
<path class="st3" d="M507,765.2c-3.5,1.9-7.1,3.5-10.8,4.9c-1.2-34.2-14.3-44.3-23.3-47.2c3-1.4,4.9-2.3,4.9-2.3H495L507,765.2z"/>
<path class="st27" d="M570.8,650.6v84l-4.5,5.3L551.8,757c0,0-3.2,9-8.6,12.9s-17.7-1.3-17.7-1.3l-3.5,5.6c0,0-7.8,1.5-11.4,0
	c-3.7-1.5-12.7,4.3-12.7,4.3c1.3-61.6-32.1-56.7-32.1-56.7c23.1-24.8,37.3-16.8,37.3-16.8l9.9-9.5l12.3-12.4
	c-2.8-9.6,7.3-11.7,9.7-12.8s8.6-11.4,8.4-12.7s1.9-9.7,5.4-9.4c1.9,0.2,4.5-3.2,6.5-6.2c1.6-2.4,2.7-4.7,2.7-4.7L570.8,650.6z"/>
<path class="st27" d="M600.6,566.6l25.4-13l-1.4,15.2l5,15.3c0,0-4.6,11.8-5.2,13.1s-11.5,28.3-11.5,28.3l-8.8-11.1L600.6,566.6z"/>
<polyline class="st3" points="604.2,614.5 600.6,566.6 626,553.6 "/>
<path class="st26" d="M709.8,552.3c0,0-8.4,12.1-20,27.6c-26.9,36-70.7,90-64,50.8c0.2-1.3,0.4-2.6,0.5-3.8
	c-1.6,1.1-5.4,0.1-9.5-1.8l-0.3-0.1c-2-1-4-2.1-5.8-3.4c-0.2-0.1-0.4-0.3-0.6-0.4c-4.5-3.2-8.2-6.9-8-9.4
	c3.2-56.2,16.3-29.4,20-23.2c0.2,0.4,0.5,0.8,0.8,1.2c-0.2-0.4-0.3-0.9-0.5-1.4c-2.6-6.3-7.5-15.8-13.1-25.9v-0.1l-0.8-1.3
	c-4.7-8.3-9.8-17.1-14.3-24.7l-1.2-2.1c-7.2-12.1-12.8-21.1-12.8-21.1s32.7-29.9,60.3-48.1c23-15.2,42.5-22.2,36.2,3.3
	c-4,16.4-2.8,30.4,0.9,42c0.1,0.4,0.3,0.9,0.4,1.3c0.7,2.2,1.6,4.4,2.6,6.5c1.3,2.9,2.8,5.8,4.5,8.5
	C691.3,536.9,699.7,545.6,709.8,552.3z"/>
<path class="st24" d="M658.9,506.9c-15.5,16.9-18.8,33-43.5,33c-7.2,0-14.3-0.9-21.3-2.7c-7.8-13.1-14-23.2-14-23.2
	s110.2-100.8,96.5-44.8C672.4,486.1,654.9,495,658.9,506.9z"/>
<path class="st26" d="M700.3,452.3c0,46.9-38,84.9-84.9,84.9s-84.9-38-84.9-84.9s38-84.9,84.9-84.9l0,0
	c46.7-0.2,84.7,37.5,84.9,84.1C700.3,451.8,700.3,452.1,700.3,452.3z"/>
<path class="st3" d="M613.4,599.3c0,0,1.5,24.1,16.8,22.2s3.7,51.3,3.7,51.3l-17,15.5l-18.3,5.6c0,0-16.2-4.7-15.9-5.6
	s6.5-51.3,6.5-51.3l9.5-26.9L613.4,599.3z"/>
<path class="st22" d="M613.4,601c0,0,1.5,24.1,16.8,22.2s3.7,51.3,3.7,51.3l-17,15.5l-18.3,5.6c0,0-16.2-4.7-15.9-5.6
	s6.5-51.3,6.5-51.3l9.5-26.9L613.4,601z"/>
<path class="st3" d="M570.8,650.6v84l-4.5,5.3c-4.7-12.3-8.2-29.1-6-44.1c2.8-19.9-2.8-45.5-4.9-53.7c1.6-2.4,2.7-4.7,2.7-4.7
	L570.8,650.6z"/>
<path class="st3" d="M615.4,603.6c-0.5,4.7-1.8,9.4-3.7,13.7c-0.6,1.3-1.1,2.6-1.7,3.8c-4.5-3.2-8.2-6.9-8-9.4
	c3.2-56.2,16.3-29.4,20-23.2C620.2,589.9,616.2,593.9,615.4,603.6z"/>
<path class="st3" d="M622.3,588.3c-2.7-6.6-8-16.7-13.9-27.3l0.8-0.4l13.7,27.4C622.7,588.1,622.5,588.2,622.3,588.3z"/>
<path class="st3" d="M709.8,552.3c0,0-93.5,134.5-84,78.4c0.2-1.3,0.4-2.6,0.5-3.8c-1.7,1.1-5.6,0.1-9.8-1.9c0.6-3.7,1-6.3,1-6.3
	l10.3-29.3c0,0,6-23.3,5.2-28l0.3-0.2l51.5-34.5l0,0l0,0C691.1,536.9,699.7,545.7,709.8,552.3z"/>
<path class="st27" d="M806.5,654l-7.3,37.9l-22,159.9H586.3c0,0,3.4-28,3.4-32.3s-3.9-10.8-3.4-15.5s2.1-1.3,0-9.5s-3-30.6-9.9-38.3
	s-18.1-36.2-14.7-60.3s-5.6-56.5-5.6-56.5s-7.8-11.2,0-11.6s10.8,0.4,10.3-7.3s3.4-22.4,8.2-25.4s11.6-14.2,12.9-18.5
	c0.4-1.1,1.1-2,2-2.8c3.9-3.7,11.8-7.5,11.8-7.5l7.5-3.8v0.1l13.7,27.3c0,0-6.4,3.1-7.5,15.6c-0.5,4.7-1.8,9.4-3.7,13.7
	c-0.4,0.9-0.7,1.7-1.1,2.5c-1.1,2.4-2.2,4.6-3.2,6.3l0,0c-1.4,2.5-2.4,4.1-2.4,4.1s-0.4,2.9-0.9,7l0,0c-1.2,8.4-3.1,21.7-4.2,24.8
	c-1,2.8-3,7.7-4.1,12c-0.7,2.7-1.1,5.2-0.7,6.9c0,0.1,0.1,0.3,0.1,0.4c1.3,4,7.8-13.2,7.8-13.2s4.7-14.7,6.9-14.7
	c1.7,0,5.4-20.7,7-30.2c0.5-2.8,0.8-4.7,0.8-4.7l10.3-29.3c0,0,1.4-5.5,2.8-11.8c1.4-6.5,2.8-13.8,2.4-16.3l0.3-0.2l51.5-34.5l0,0
	l0.8-0.5h-0.1c-0.4,0-1.4-0.6-3.4-5.3c-0.5-1.2-1.1-2.6-1.7-4.4c0,0,16.5-6.6,22.3-1.8c0.4,0.3,0.7,0.7,1,1.1
	c0.2,0.2,0.3,0.5,0.4,0.7c3.9,8,5.6,14,9.5,19.2c0.4,0.6,0.9,1.1,1.4,1.6c4.7,4.9,14,10.7,12.4,12.2c-1.7,1.7,12.9,9,12.9,9
	s8.6,4.9,11.3,9c0.5,0.6,0.7,1.4,0.8,2.2c0,4.3,12.5,6.9,16.4,6.9s22.4,40.1,31.5,44.8S806.5,654,806.5,654z"/>
<g class="st19">
	<path d="M613.4,589.7c0,0-6.4,3.1-7.5,15.6c-0.5,4.7-1.8,9.4-3.7,13.7c-1.3,3-2.7,6-4.2,8.8l0,0c-1.4,2.5-2.4,4.1-2.4,4.1
		s-0.4,2.9-0.9,7l0,0c-1.1,8.5-3.1,21.7-4.3,24.9c-1,2.8-3,7.7-4.1,12c-0.7,2.7-1.1,5.2-0.7,6.9c0,0.1,0.1,0.3,0.1,0.4
		c1.3,4,7.8-13.2,7.8-13.2s4.7-14.7,6.9-14.7c0.6,0,1.5-2.9,2.5-6.9c0.5-3.3,1-6.5,1.3-9.3l0,0c0.6-4.1,0.9-7,0.9-7s0.6-0.9,1.5-2.4
		c0.9-5.3,1.6-9.2,1.6-9.2l10.3-29.3c0,0,0.8-2.9,1.7-6.9l-11-21.9l-7.5,3.8l0,0L613.4,589.7z"/>
	<path d="M800.2,623c-9-4.7-27.6-44.8-31.5-44.8s-16.4-2.6-16.4-6.9s-12.1-11.2-12.1-11.2s-14.7-7.3-12.9-9
		c1.5-1.6-7.7-7.3-12.4-12.2c-0.5-0.5-0.9-1-1.4-1.6c-3.9-5.2-5.6-11.2-9.5-19.2c-0.1-0.3-0.3-0.5-0.4-0.7c-0.3-0.4-0.6-0.7-1-1.1
		c-2.6-2.2-7.4-2-11.9-1.2c0.9,0.3,1.7,0.7,2.4,1.2c0.4,0.3,0.7,0.7,1,1.1c0.2,0.2,0.3,0.5,0.4,0.7c3.9,8,5.6,14,9.5,19.2
		c0.4,0.5,0.9,1,1.4,1.5c4.7,4.9,14,10.7,12.4,12.2c-1.7,1.7,12.9,9,12.9,9s12.1,6.9,12.1,11.2s12.5,6.9,16.4,6.9
		s22.4,40.1,31.5,44.8s6.5,31,6.5,31l-7.3,38l-22,159.9h9.5l22-159.9l7.3-37.9C806.7,654,809.3,627.7,800.2,623z"/>
</g>
<path class="st26" d="M423.9,743.8c0,0-54.8-15.9-58.7,8.5s22.4,38.3,39.2,37.9s24.1-16.4,24.1-16.4L423.9,743.8z"/>
<path class="st26" d="M698.8,818.6c0,0-12.3,8.8-38.3,8.8S604,833,604,833s-38.8-91.3-116.6-13.1c0,0-14,18.1,58.6,20
	c0,0,25.6-0.9,31.2,11.8h145l19.8-14.8L698.8,818.6z"/>
<path class="st22" d="M407,704.4c0,0-3.7-8.6-8,0l-2.4,66.8l5.2,15.7l5.2-14L407,704.4z"/>
<path class="st3" d="M703.7,517.3c-7.5,2.6-15.8,8.6-18.2,10.4c-0.5,0-2-1-5.1-9.7C680.4,518.1,699,510.6,703.7,517.3z"/>
<path class="st27" d="M622.9,589.7c0,0-6.4,3.1-7.5,15.6c-0.5,4.7-1.8,9.4-3.7,13.7l-4.2,8.9l0,0l-3.3,11.1l0,0l0.3,22.7l-8.8,14.2
	l-0.7,6.9l-2.3,21.2l-11.6-5.6c0,0,4.8-34.2,8.4-41.2s8.4-43.6,8.4-43.6s-0.2-13.5,1.5-15.8s-3-1.9-3.5-6.9
	c-0.3-2.9-3.5-11.1-6.2-17.2c3.9-3.7,11.8-7.5,11.8-7.5l7.5-3.8L622.9,589.7z"/>
<path class="st3" d="M622.4,588.8c0.3,0.5,0.1,1.1-0.3,1.5c-1.8,1.3-5.8,5.3-6.7,15.1c-0.5,4.7-1.8,9.4-3.7,13.7l-4.2,8.9l0,0
	l-3.3,11.1l0,0l0.3,22.3c0,0.2-0.1,0.4-0.2,0.6l-8.4,13.7c-0.1,0.2-0.2,0.3-0.2,0.5l-0.7,6.6l-2.1,19.6c-0.1,0.8-1,1.3-1.7,0.9
	l-9.4-4.5c-0.5-0.2-0.7-0.7-0.7-1.2c0.8-5.3,5-34,8.3-40.3c3.5-6.7,8.2-41.7,8.4-43.6c0-0.1,0-0.1,0-0.2c0-1.1-0.1-13.5,1.5-15.8
	c1.7-2.4-3-1.9-3.5-6.9c-0.2-2.8-3.3-10.4-5.8-16.5c-0.2-0.5-0.1-1,0.3-1.4c4-3.5,11.1-6.9,11.1-6.9l6.5-3.2
	c0.6-0.3,1.3-0.1,1.6,0.5L622.4,588.8z"/>
<path class="st3" d="M715,540.5c-9.6,7.9-35.5,30.2-38.4,45.3c-3.7,18.7-14.7,16.9-14.7,16.9c-13.7-29.8-23.2-37.1-28.6-38.1
	l51.5-34.6l0,0l0.8-0.5h-0.1c-0.4,0-1.4-0.6-3.4-5.3l20.6-6.2c0.4,0.3,0.7,0.7,1,1.1c0.2,0.2,0.3,0.5,0.4,0.7c3.9,8,5.6,14,9.5,19.2
	C714.1,539.5,714.5,540,715,540.5z"/>
<path class="st27" d="M715,538.8c-9.6,7.9-35.5,30.2-38.4,45.3c-3.7,18.7-14.7,16.9-14.7,16.9c-13.7-29.8-23.2-37.1-28.6-38.1
	l51.5-34.5l0,0l0.8-0.5h-0.1c-0.4,0-1.4-0.6-3.4-5.3l20.6-6.2c0.4,0.3,0.7,0.7,1,1.1c0.2,0.2,0.3,0.5,0.4,0.7c3.9,8,5.6,14,9.5,19.2
	C714.1,537.8,714.5,538.3,715,538.8z"/>
<path class="st3" d="M657.9,690.1c-0.4-0.1-0.5-0.7-0.1-0.9c5.7-3,32.8-17.3,29.3-4.2C683.7,697.7,662.9,691.8,657.9,690.1z"/>
<path class="st3" d="M516.3,712.2c-0.7-0.7-1.8,0.3-1.2,1.1c5.5,7.9,15.9,22,20.4,21.3C540.1,733.9,524.5,719.5,516.3,712.2z"/>
<path class="st3" d="M536.2,701.2c-0.8-1-2.4-0.4-2.2,0.9c0.9,6.3,3.3,17.4,9.9,18.4C550.9,721.7,541.2,707.9,536.2,701.2z"/>
<path class="st3" d="M635,772.3c5.6,10.2,15.9,30.6,14.7,41c-0.1,0.6-0.9,0.7-1.2,0.1l-14.6-40.6C633.6,772.1,634.6,771.7,635,772.3
	z"/>
<path class="st3" d="M659.1,775.4c-0.3-0.7,0.6-1.2,1-0.6c7.5,10.2,25.4,35.4,21.4,38C677.4,815.4,664.3,787.1,659.1,775.4z"/>
<path class="st3" d="M589.9,716.8c0.1,7.4,1.1,17.8,5.7,24c0.8,1,2.4,0.2,2.1-1l-5.5-23.3C591.9,715.1,589.9,715.3,589.9,716.8z"/>
<path class="st3" d="M723.3,584.6c0,0-50.8,39.4-42.7,80.4s16,44,16,44s3,16.4,8.6,23.3s4.7,11.4,4.7,11.4s5.2-2.4,6.9,9.5
	s10.8,20.2,10.8,20.2s3,9.5-4.7,14.7s-6,10.8-6,10.8l-31.5,18.3l35,34.7H811c0,0-2.6-4.5,3-11s2.8-32.1,2.8-32.1s-3.1-4.1,0.7-13.2
	s-3.3-34.9-3.3-34.9l-8-25.2c0,0-6.7-17.9-5.6-27.5s-2.2-20.1-2.2-20.1L781,633.1C781.1,633.1,781.9,578.4,723.3,584.6z"/>
<path class="st27" d="M725.1,584.6c0,0-50.8,39.4-42.7,80.4s15.9,44,15.9,44s3,16.4,8.6,23.3s4.7,11.4,4.7,11.4s5.2-2.4,6.9,9.5
	s10.8,20.2,10.8,20.2s3,9.5-4.7,14.7s-6,10.8-6,10.8l-31.5,18.3l35.1,34.7h90.5c0,0-2.6-4.5,3-11s2.8-32.1,2.8-32.1
	s-3.1-4.1,0.7-13.2s-3.3-34.9-3.3-34.9l-8-25.2c0,0-6.7-17.9-5.6-27.5s-2.2-20.1-2.2-20.1l-17.4-54.8
	C782.8,633.1,783.7,578.4,725.1,584.6z"/>
<path class="st3" d="M747.6,611.8c-1.4,0.1-1.6,2-0.4,2.4c10.4,3.6,33.3,11.9,40.7,16.5C797.1,636.4,776.4,610.2,747.6,611.8z"/>
<path class="st3" d="M766.5,801.9c-1.2-0.6-0.6-2.4,0.7-2.2c13.6,2.1,44.7,7.8,42.3,15.7C807.2,823.3,778.6,808.6,766.5,801.9z"/>
<path class="st3" d="M752.2,811.4c-0.4-0.5,0.1-1.2,0.7-1c7.6,2.7,34.8,12.8,29,21.3C776.2,840.3,757.3,817.8,752.2,811.4z"/>
<path class="st3" d="M751.6,569.1c-20.5,4-41.2,7.4-61.9,10.8l-5.4,0.9c-11.4,1.9-22.8,3.8-34.3,3.7c-5.6,0-11.4-0.6-16.4-3.2
	c-1.1-0.6-2.1-1.2-3-2c-3.5-2.8-6-6.9-5.9-11.3c0.1-8.1,7.7-13.7,14.3-18.3c9.6-6.8,19.1-15.5,22.9-26.4c0.7-2,1.2-4.2,1.5-6.3
	c1.1-9.3-2.3-18.4-5.9-27c-3.9-9.4-9.3-19.4-17.2-25.1c-3.2-2.3-6.9-3.8-10.8-4.4c-12.1-1.6-23.5,7-35.7,6.5
	c-9.9-0.4-18.3-6.8-24.2-14.2c-4.3-5.4-7.1-12.7-13.6-16c-7.1-3.5-15.1-4.3-22.9-5.5c11.6-45.4,57.8-72.9,103.2-61.3
	s72.9,57.8,61.3,103.2c-3.5,13.8-10.5,26.6-20.2,37c0.1,0.4,0.3,0.9,0.4,1.3c0.7,2.2,1.6,4.4,2.6,6.5c0,0,16.5-6.6,22.3-1.8
	c0.4,0.3,0.7,0.7,1,1.1c0.2,0.2,0.3,0.5,0.4,0.7c3.9,8,5.6,14,9.5,19.2c0.4,0.6,0.9,1.1,1.4,1.6c4.7,4.9,14,10.7,12.4,12.2
	c-1.7,1.7,12.9,9,12.9,9S748.9,565,751.6,569.1z"/>
<path class="st25" d="M508.5,416c-7.4-9.9-6.6-23.8-3.9-36c1.7-7.7,4.2-15.4,8.9-21.5c4.8-6.1,12.3-10.4,19.9-9.3
	c4.4,0.6,8.4,2.9,12.6,4.6c18.6,7.6,41.7,1.3,54.3-14.9c2.8-3.7,5.2-7.8,8.5-11c3.8-3.4,8.3-5.7,13.1-6.8c21-5.5,42.6,5.3,60.5,17.8
	c15.3,10.7,29.9,23.1,39.9,39.2c9.1,14.6,14.1,31.6,14.5,49c0.5,27.6-10.7,55.4-4.3,82.2c5.3,22,23.5,39.9,44.7,45.3
	c2.5,0.7,2.5,4.3,0,4.9c-31.9,7.5-64.3,13.1-96.7,18.5c-11,1.9-22,3.8-33.1,3.7c-5.4,0-11-0.6-15.8-3.2c-4.8-2.6-8.7-7.6-8.7-13.3
	c0.1-8.1,7.5-13.6,13.8-18.3c11-8.1,21.9-18.8,23.5-32.7c1.1-9.2-2.2-18.4-5.7-27c-5.3-13.1-13.4-27.6-27-29.5
	c-11.7-1.6-22.7,7-34.4,6.5c-9.5-0.4-17.7-6.8-23.4-14.2c-4.2-5.4-6.8-12.7-13.1-15.9C541.1,426.2,520.6,432.2,508.5,416z"/>
<g class="st19">
	<path d="M609.8,334.4c2.9-3.7,5.4-7.8,8.8-11c0.6-0.5,1.2-1,1.8-1.5c-2.9,1.2-5.5,2.8-7.8,4.9c-3.5,3.2-5.9,7.3-8.8,11
		c-3,3.7-6.5,6.9-10.5,9.5C599.6,344.3,605.3,339.9,609.8,334.4z"/>
</g>
<path class="st3" d="M396,757c-1.5,0-2.1,2-0.7,2.7c6.7,3.7,19.1,9.4,24.8,3.9C426.3,757.9,406.1,757.1,396,757z"/>
<ellipse class="st26" cx="411.4" cy="755.5" rx="16.4" ry="9"/>
<path class="st28" d="M681.7,89.1c-18.2-4.9-36.7-9.8-55.6-10.5s-38.5,2.9-53.9,13.8c-7.7,5.5-14.1,12.5-20.6,19.4
	c-34.5,36.5-72.9,69-114.7,96.9c-16.8,11.2-34.8,21.9-54.8,24.7s-42.7-4.1-53-21.5l6.2-3.2"/>
<path class="st29" d="M827.6,77.1H706.9c-4.8,0-8.6-3.8-8.6-8.4V51.9c0-4.6,3.8-8.4,8.6-8.4l0,0h120.7c4.8,0,8.6,3.8,8.6,8.4v16.8
	C836.2,73.4,832.4,77.1,827.6,77.1z M814.7,56c-3.6,0-6.5,2.8-6.5,6.3c0,3.5,2.9,6.3,6.5,6.3s6.5-2.8,6.5-6.3
	C821.1,58.8,818.3,56,814.7,56L814.7,56z M827.6,113.2H706.9c-4.8,0-8.6-3.8-8.6-8.4V87.9c0-4.6,3.9-8.4,8.6-8.4h120.7
	c4.8,0,8.6,3.8,8.6,8.4v16.8C836.2,109.4,832.4,113.2,827.6,113.2z M814.7,90c-3.6,0-6.5,2.8-6.5,6.3s2.9,6.3,6.5,6.3
	s6.5-2.8,6.5-6.3l0,0C821.1,92.9,818.3,90,814.7,90L814.7,90z M827.6,149.2H706.9c-4.8,0-8.6-3.8-8.6-8.4V124c0-4.6,3.9-8.4,8.6-8.4
	h120.7c4.8,0,8.6,3.8,8.6,8.4v16.8C836.2,145.4,832.4,149.2,827.6,149.2L827.6,149.2z M814.7,125.1c-3.6,0-6.5,2.8-6.5,6.3
	s2.9,6.3,6.5,6.3s6.5-2.8,6.5-6.3l0,0C821.1,128,818.3,125.1,814.7,125.1L814.7,125.1z"/>
<path class="st28" d="M845.8,77c10.6-1.3,21.9-0.8,31,5.3c9.6,6.6,15.2,18.9,17,31.3c1.9,12.5,0.6,25.1-0.8,37.6l-7.2,67.3
	c-1,9.4-2,19.2,0.8,28.2c2.7,9,10.3,17,18.8,16.1"/>
<path class="st28" d="M274.6,490c24.4,1.2,51.9,1.5,69.3-14.3c13.2-12,16.7-29.9,21.5-46.4c8.6-29.7,23.6-58.1,45.8-81.1
	c22.2-23,51.7-40.3,84.4-46.8c26.3-5.2,53.7-3.3,80.1-7.8c26.4-4.6,207-17.6,192.6-130.3"/>
<script  type="text/javascript">//<![CDATA[  <-- For SVG support
	if ('WebSocket' in window) {
		(function () {
			function refreshCSS() {
				var sheets = [].slice.call(document.getElementsByTagName("link"));
				var head = document.getElementsByTagName("head")[0];
				for (var i = 0; i < sheets.length; ++i) {
					var elem = sheets[i];
					var parent = elem.parentElement || head;
					parent.removeChild(elem);
					var rel = elem.rel;
					if (elem.href && typeof rel != "string" || rel.length == 0 || rel.toLowerCase() == "stylesheet") {
						var url = elem.href.replace(/(&|\?)_cacheOverride=\d+/, '');
						elem.href = url + (url.indexOf('?') >= 0 ? '&' : '?') + '_cacheOverride=' + (new Date().valueOf());
					}
					parent.appendChild(elem);
				}
			}
			var protocol = window.location.protocol === 'http:' ? 'ws://' : 'wss://';
			var address = protocol + window.location.host + window.location.pathname + '/ws';
			var socket = new WebSocket(address);
			socket.onmessage = function (msg) {
				if (msg.data == 'reload') window.location.reload();
				else if (msg.data == 'refreshcss') refreshCSS();
			};
			if (sessionStorage && !sessionStorage.getItem('IsThisFirstTime_Log_From_LiveServer')) {
				console.log('Live reload enabled.');
				sessionStorage.setItem('IsThisFirstTime_Log_From_LiveServer', true);
			}
		})();
	}
	else {
		console.error('Upgrade your browser. This Browser is NOT supported WebSocket for Live-Reloading.');
	}
	// 
	
	]]>
</script>
<path class="st30" d="M395.8,794.4l5,13.9c0.1,0.4,0.5,0.6,0.9,0.6h6.6c0.7,0,1.1-0.6,0.9-1.3l-4.7-15.8c-0.1-0.4-0.5-0.7-0.9-0.7
	h-5.5C396.4,791.1,395.3,792.8,395.8,794.4z"/>
<path class="st30" d="M407.8,793.4l5,13.9c0.1,0.4,0.5,0.6,0.9,0.6h6.6c0.7,0,1.1-0.6,0.9-1.3l-4.7-15.8c-0.1-0.4-0.5-0.7-0.9-0.7
	h-5.5C408.4,790.2,407.3,791.9,407.8,793.4z"/>
<path class="st30" d="M420.4,792.6l5,13.9c0.1,0.4,0.5,0.6,0.9,0.6h6.6c0.7,0,1.1-0.6,0.9-1.3l-4.7-15.8c-0.1-0.4-0.5-0.7-0.9-0.7
	h-5.5C421,789.4,419.9,791,420.4,792.6z"/>
<path class="st30" d="M432.1,792.6l5,13.9c0.1,0.4,0.5,0.6,0.9,0.6h6.6c0.7,0,1.1-0.6,0.9-1.3l-4.7-15.8c-0.1-0.4-0.5-0.7-0.9-0.7
	h-5.5C432.7,789.4,431.6,791,432.1,792.6z"/>
<path class="st30" d="M445.1,792.6l5,13.9c0.1,0.4,0.5,0.6,0.9,0.6h6.6c0.7,0,1.1-0.6,0.9-1.3l-4.7-15.8c-0.1-0.4-0.5-0.7-0.9-0.7
	h-5.5C445.7,789.4,444.5,791,445.1,792.6z"/>
<circle class="st31" cx="969.1" cy="211.1" r="1.2"/>
<circle class="st31" cx="940.8" cy="207.4" r="1"/>
<ellipse transform="matrix(0.9955 -9.463064e-02 9.463064e-02 0.9955 -73.9647 44.4779)" class="st3" cx="432" cy="802.1" rx="36.9" ry="10.9"/>
</svg>
