<?xml version="1.0" encoding="utf-8"?>
<!-- Generator: Adobe Illustrator 26.0.2, SVG Export Plug-In . SVG Version: 6.00 Build 0)  -->
<svg version="1.1" id="Isolation_Mode" xmlns="http://www.w3.org/2000/svg" xmlns:xlink="http://www.w3.org/1999/xlink" x="0px"
	 y="0px" viewBox="0 0 1044.2 336.3" style="enable-background:new 0 0 1044.2 336.3;" xml:space="preserve">
<style type="text/css">
	.st0{fill:#15498F;}
</style>
<g>
	<g>
		<path class="st0" d="M21.4,104.7h22.2l24.6,43l24.6-43H115v101.7H94.5V140l-26.4,43.3h-0.2l-26.1-43v65.9H21.5V104.7H21.4z"/>
		<path class="st0" d="M151.4,104.7h70.7v19.8h-50.2v20.6h44.3V165h-44.3v21.3h50.9v19.8h-71.4V104.7z"/>
		<path class="st0" d="M280.5,154.6l-31.4-49.9h24.1l19.5,33l20-33h23.4l-31.4,49.7l32.8,52h-24.1l-21-34.8l-21.2,34.8h-23.4
			L280.5,154.6z"/>
		<path class="st0" d="M364.8,104.7h20.6v101.7h-20.6V104.7z"/>
		<path class="st0" d="M416.8,155.8v-0.3c0-28.9,20.1-52.5,48.9-52.5c17.7,0,28.3,6.4,37,15.6L489.6,135c-7.3-7.1-14.6-11.4-24-11.4
			c-15.8,0-27.2,14.2-27.2,31.7v0.3c0,17.5,11.2,31.9,27.2,31.9c10.7,0,17.3-4.6,24.6-12l13.1,14.3c-9.7,11.2-20.4,18.1-38.5,18.1
			C437.3,208.1,416.8,185,416.8,155.8z"/>
		<path class="st0" d="M518.3,155.8v-0.3c0-28.9,21-52.5,50-52.5c29,0,49.7,23.4,49.7,52.3v0.3c0,28.9-21,52.5-50,52.5
			C539.1,208.1,518.3,184.7,518.3,155.8z M596.5,155.8v-0.3c0-17.5-11.8-31.9-28.4-31.9c-16.6,0-28.1,14.2-28.1,31.7v0.3
			c0,17.5,11.8,31.9,28.4,31.9C585,187.4,596.5,173.1,596.5,155.8z"/>
		<path d="M642,106.9h11.5l32.6,85.5l32.8-85.5H730l-39.4,100h-9.2L642,106.9z"/>
		<path d="M759.7,106.9H770v99.3h-10.3V106.9z"/>
		<path d="M809.1,106.9h66.2v10.2h-55.9v33.9h50.1v10.2h-50.1v34.8h56.6v10.2h-67V106.9z"/>
		<path d="M903,106.9h11.3l26.2,82.8l25.1-83h8.5l25.1,83l26.2-82.8h10.9l-32.8,100h-8.7l-25.1-80.5l-25.2,80.5h-8.6L903,106.9z"/>
	</g>
</g>
</svg>
