<?xml version="1.0" encoding="utf-8"?>
<!-- Generator: Adobe Illustrator 26.0.2, SVG Export Plug-In . SVG Version: 6.00 Build 0)  -->
<svg version="1.1" id="Isolation_Mode" xmlns="http://www.w3.org/2000/svg" xmlns:xlink="http://www.w3.org/1999/xlink" x="0px"
	 y="0px" viewBox="0 0 1044.2 336.3" style="enable-background:new 0 0 1044.2 336.3;" xml:space="preserve">
<style type="text/css">
	.st0{fill:#15498F;}
</style>
<g>
	<g>
		<path class="st0" d="M103.7,129.5h18.3l20.3,32.7l20.3-32.7h18.3v77.4h-16.9v-50.5l-21.8,33H142l-21.5-32.7v50.2h-16.7V129.5z"/>
		<path class="st0" d="M210.9,129.5h58.3v15.1h-41.4v15.7h36.5v15.1h-36.5v16.2h42v15.1h-58.9V129.5z"/>
		<path class="st0" d="M317.3,167.5l-25.9-38h19.9l16.1,25.1l16.5-25.1h19.3l-25.9,37.8l27,39.6h-19.9l-17.3-26.5l-17.5,26.5h-19.3
			L317.3,167.5z"/>
		<path class="st0" d="M386.8,129.5h17v77.4h-17V129.5z"/>
		<path class="st0" d="M429.7,168.4v-0.2c0-22,16.6-40,40.3-40c14.6,0,23.3,4.9,30.5,11.9l-10.8,12.5c-6-5.4-12-8.7-19.8-8.7
			c-13,0-22.4,10.8-22.4,24.1v0.2c0,13.3,9.2,24.3,22.4,24.3c8.8,0,14.3-3.5,20.3-9.1l10.8,10.9c-8,8.5-16.8,13.8-31.7,13.8
			C446.6,208.2,429.7,190.6,429.7,168.4z"/>
		<path class="st0" d="M518.3,168.4v-0.2c0-22,17.3-40,41.2-40c23.9,0,41,17.8,41,39.8v0.2c0,22-17.3,40-41.2,40
			C535.5,208.2,518.3,190.4,518.3,168.4z M582.8,168.4v-0.2c0-13.3-9.7-24.3-23.4-24.3c-13.7,0-23.2,10.8-23.2,24.1v0.2
			c0,13.3,9.7,24.3,23.4,24.3C573.3,192.5,582.8,181.6,582.8,168.4z"/>
		<path d="M615.3,131.2h9.5l26.9,65.1l27-65.1h9.2l-32.5,76.1h-7.6L615.3,131.2z"/>
		<path d="M712.4,131.2h8.5v75.6h-8.5V131.2z"/>
		<path d="M753.1,131.2h54.6v7.8h-46.1v25.8h41.3v7.8h-41.3v26.5h46.7v7.8h-55.2V131.2z"/>
		<path d="M830.5,131.2h9.3l21.6,63l20.7-63.2h7l20.7,63.2l21.6-63h9l-27,76.1h-7.2L885.5,146l-20.8,61.3h-7.1L830.5,131.2z"/>
	</g>
</g>
</svg>
