<?xml version="1.0" encoding="utf-8"?>
<!-- Generator: Adobe Illustrator 26.0.2, SVG Export Plug-In . SVG Version: 6.00 Build 0)  -->
<svg version="1.1" id="Capa_1" xmlns="http://www.w3.org/2000/svg" xmlns:xlink="http://www.w3.org/1999/xlink" x="0px" y="0px"
	 viewBox="0 0 933.4 538" style="enable-background:new 0 0 933.4 538;" xml:space="preserve">
<style type="text/css">
	.st0{fill:#F2F2F2;}
	.st1{fill:#CCCCCC;}
	.st2{fill:#A0616A;}
	.st3{fill:#2F2E41;}
	.st4{fill:#15498F;}
	.st5{fill:#3F3D56;}
	.st6{fill-rule:evenodd;clip-rule:evenodd;fill:#3F3D56;}
	.st7{fill:#FFB6B6;}
	.st8{fill:#F0F0F0;}
	.st9{fill:#CACACA;}
</style>
<path class="st0" d="M86.4,420.3c-2,0.1-3.7-1.5-3.8-3.4c0-1.1,0.4-2.1,1.2-2.8c0.1-0.4,0.2-0.6,0.2-1c0-0.1-0.1-0.2-0.1-0.2
	c-2.1-4.9-7.8-7.2-12.7-5.2c-2.3,1-4.2,2.9-5.2,5.2c-2.9,7.1-6.7,14.1-7.6,21.6c-0.4,3.3-0.2,6.6,0.5,9.9
	c-6.9-15-10.4-31.3-10.5-47.8c0-4.1,0.2-8.3,0.7-12.4c0.4-3.4,0.9-6.7,1.6-10c3.7-18,11.6-35,23.1-49.3c5.6-3,10.1-7.7,12.9-13.4
	c1-2,1.7-4.2,2.1-6.5c-0.6,0.1-1.3,0.1-1.9,0.2c-0.2,0-0.4,0-0.6,0l-0.1,0c-2,0.1-3.6-1.4-3.7-3.4c0-0.9,0.2-1.7,0.8-2.4
	c0.3-0.3,0.5-0.7,0.8-1c0.4-0.5,0.8-1,1.2-1.5c0,0,0.1-0.1,0.1-0.2c0.5-0.6,0.9-1.2,1.4-1.7c-0.9-1.3-2-2.5-3.4-3.3
	c-4.7-2.8-11.3-0.9-14.7,3.4c-3.4,4.3-4.1,10.3-2.9,15.7c1.2,4.6,3.1,8.9,5.7,12.8c-0.3,0.3-0.5,0.6-0.8,1
	c-4.7,6-8.8,12.5-12.2,19.4c0.8-7.7-0.2-15.4-2.9-22.6c-2.8-6.7-8-12.4-12.6-18.2c-5.5-7-16.8-3.9-17.8,4.9c0,0.1,0,0.2,0,0.3
	c0.7,0.4,1.4,0.8,2,1.2c2.3,1.5,2.9,4.5,1.4,6.8c-0.8,1.1-2,1.9-3.3,2.1l-0.1,0c0.2,2.5,0.7,4.9,1.3,7.3c3.6,13.5,12.6,24.9,25,31.5
	c0.4,0.2,0.8,0.4,1.2,0.6c-3.4,9.8-5.6,20-6.4,30.3c-0.5,6.1-0.4,12.2,0.1,18.3l0-0.2c-1.3-6.8-4.9-12.9-10.2-17.3
	c-7.9-6.5-19-8.9-27.5-14c-2.6-1.7-6.1-0.9-7.8,1.7c-0.7,1.1-1,2.5-0.8,3.8c0,0.1,0,0.2,0,0.2c1.3,0.5,2.5,1.1,3.7,1.8
	c0.7,0.4,1.4,0.8,2,1.2c2.3,1.5,2.9,4.5,1.4,6.8c-0.8,1.1-2,1.9-3.3,2.1l-0.1,0c-0.1,0-0.1,0-0.2,0c2.2,5.2,5.2,9.9,9,14.1
	c9.4,10.1,22.6,15.9,36.4,16h0c1.9,8.1,4.5,15.9,8,23.4h28.7c0.1-0.3,0.2-0.6,0.3-1c-2.7,0.2-5.3,0-7.9-0.5c2.1-2.6,4.3-5.2,6.4-7.9
	c0,0,0.1-0.1,0.1-0.2c1.1-1.3,2.2-2.7,3.2-4l0,0C87.8,428.3,87.4,424.3,86.4,420.3L86.4,420.3z"/>
<path class="st1" d="M439.8,446.3c0,0.7-0.5,1.2-1.2,1.2c0,0,0,0,0,0H1.3c-0.7,0-1.2-0.5-1.2-1.2s0.5-1.2,1.2-1.2h437.3
	C439.2,445.1,439.8,445.6,439.8,446.3C439.8,446.3,439.8,446.3,439.8,446.3z"/>
<path class="st2" d="M206.4,289.3c3.8,1.3,5.9,5.4,4.6,9.3c-0.1,0.4-0.3,0.8-0.5,1.2l10.5,13.1l-6.4,8.3L200,302.5
	c-3.4-2.2-4.5-6.7-2.3-10.2C199.6,289.5,203.1,288.2,206.4,289.3L206.4,289.3z"/>
<path class="st3" d="M211.1,324.9l-5.9-14.8l11-7.8l5.1,9.2l7.5,5.1l10,8.9c2.7-2.2,23.4-18.8,30.1-11.8c1.6,1.6,2.5,3.8,2.3,6.1
	c-0.4,5.4-6.1,9.9-6.3,10.1l-12.6,11.8c-0.5,0.8-5.4,9-11.1,10.5c-1.6,0.4-3.4,0.2-4.8-0.7c-12.9-7.9-21.1-15.7-24.1-22.7
	C211.7,327.5,211.3,326.2,211.1,324.9z"/>
<polygon class="st2" points="204.8,518.4 195.2,518.9 188.8,481.8 203.1,481.1 "/>
<path class="st3" d="M210,536.6l-6.9,0.3l-1.5-6.4l-2.8,6.6l-18.2,0.9c-2.3,0.1-4.2-1.6-4.3-3.9c-0.1-1.3,0.5-2.6,1.6-3.5l14.1-10.7
	l-0.3-6.6l15.4,0.2L210,536.6z"/>
<polygon class="st2" points="103.7,438.7 100.2,429.7 133.4,411.8 150.1,422.3 "/>
<path class="st3" d="M88.2,449.4l-2.5-6.4l5.6-3.5l-7.2-0.6l-6.6-17c-0.8-2.1,0.2-4.5,2.3-5.3c1.3-0.5,2.7-0.3,3.8,0.4l14.7,9.9
	l6.1-2.4l4.7,14.6L88.2,449.4z"/>
<path class="st3" d="M294.2,411.8c0,0-4,25.7-23,27.6s-36.5-6.7-36.5-6.7l-53.2-16.4c0,0-56.6,16.1-66.1,18.6c0,0-6.6-14.9-6.3-15.8
	c2-8.8,4.7-2.9,4.7-2.9l60.2-26.6c0,0,9.5-2.5,26,4.4s60.6,23.8,60.6,23.8L294.2,411.8z"/>
<path class="st3" d="M294,410.3c0,0,3.2,30.8-15.3,35.5c-17.6,4.5-41.9-0.1-41.9-0.1l-28.9-3c0,0-1.3,37.2-1.3,55.6
	c-5.9,0.8-11.8,1.2-17.7,1.3c-1.3,0-1.4-0.7-1.4-0.7l-2.5-64.3c-0.7-11.1,7.7-20.6,18.8-21.3c0.7,0,1.3,0,2,0
	c1.4,0.1,2.8,0.1,4.3,0.3c17.8,1.7,39.9-1.9,39.9-1.9L294,410.3z"/>
<path class="st3" d="M242.6,365.6c0,0-7.5,45.5-2.4,49.1s12,3.6,12,3.6l1.6-25.1L242.6,365.6z"/>
<path class="st3" d="M255.1,309.8l-10.1,9.6c-9.6,9.1-12,23.5-5.8,35.2l4.8,9.2L255.1,309.8z"/>
<path class="st4" d="M257.4,311.4l-13.6,15.5c-3,3.4-4.8,7.7-5.3,12.2l0,0c-0.2,2-0.1,4.1,0.2,6.1l5.1,27.9l3.9,40.3
	c0,0,29.8,9,32.8-4.9S257.4,311.4,257.4,311.4z"/>
<path class="st3" d="M249.6,400.2l-4.4-10l-3.7-26.1c-0.2-1.5,3.9-26.4,9.9-53.1l7.3-10.2l4.2-3.8l12,7.8
	c4.3,2.3,13.7,32.1,7.9,53.1c-2,7.2,1.5,16.3,2,22.9l8.3,20.4l2,11.8l-0.3,0.1c-0.3,0.1-5.1,0.8-24.7,4
	C253.9,419.9,262.8,406.6,249.6,400.2z"/>
<path class="st2" d="M211.3,389.3c2.2-3.4,6.8-4.3,10.2-2c0.4,0.2,0.7,0.5,1,0.8l15.4-6.7l6.4,8.3l-21.8,9.2
	c-3,2.7-7.7,2.5-10.4-0.5C209.6,395.9,209.4,392.1,211.3,389.3L211.3,389.3z"/>
<path class="st3" d="M246.8,394.1l-15.8,1.9l-4.7-12.7l10.2-2.5l6.9-5.9l11.2-7.3c-1.4-3.2-12-27.6-3.5-32.1c2-1.2,4.4-1.4,6.5-0.6
	c5.1,1.8,7.9,8.5,8,8.7l8.1,15.2c0.6,0.7,7.3,7.6,7.2,13.4c0,1.7-0.7,3.3-1.9,4.5c-11,10.3-20.7,16.3-28.3,17.3
	C249.5,394.2,248.2,394.2,246.8,394.1z"/>
<ellipse transform="matrix(0.9929 -0.119 0.119 0.9929 -31.0681 32.2756)" class="st2" cx="254.8" cy="276.4" rx="19.1" ry="19.5"/>
<path class="st3" d="M304.5,261.9c-3.7-3.4-5.8-8.2-8.9-12.1s-8-7.2-12.6-5.7c-3.2,1.1-5.4,4.3-6.2,7.6c-0.9,3.4-0.7,6.9-0.5,10.4
	c-0.8-7.1-6.3-13.5-13-15c-7-1.4-14.1,1.9-17.6,8.2c-4.1-3-9.7-2.4-13.1,1.3c-3.2,4-3.3,9.7-0.1,13.8c3.3,3.8,8.9,4.6,13.1,1.9
	l1.7,1.2c-0.4,3.1,1.4,6.2,4.5,7.1c2.3,0.6,5.5,0.1,6.6,2.4c0.8,1.6-0.1,3.4-1.1,4.8c-1,1.4-2.2,2.9-2.2,4.6c0.1,2.7,3,4.2,5.6,4.4
	c6.3,0.5,12.4-2.9,15.2-8.6c0.1-0.1,0.1-0.2,0.2-0.3c3.3-5.4,4.2-12,2.5-18.1c-0.3-1.2-0.3-2.1,0.6-2.5c3.5-1.7,13.9-0.3,17.3,1.7
	c3.4,2,6.2,4.8,9.4,7c3.3,2.2,7.3,3.6,10.9,2.5c3-1.1,5.4-3.3,6.6-6.2c1.3-2.9,2.2-6,2.5-9.2C319.3,267.7,310.4,267.2,304.5,261.9z"
	/>
<path class="st3" d="M307.4,388.9L307.4,388.9L307.4,388.9L307.4,388.9z"/>
<path class="st5" d="M183.3,297.7c-22.9,3.5-44.4-12.2-47.9-35.1c-3.5-22.9,12.2-44.4,35.1-47.9c22.9-3.5,44.4,12.2,47.9,35.1
	S206.2,294.2,183.3,297.7C183.3,297.7,183.3,297.7,183.3,297.7z M170.8,216.7c-21.8,3.3-36.8,23.8-33.5,45.6s23.8,36.8,45.6,33.5
	s36.8-23.8,33.5-45.6S192.7,213.3,170.8,216.7L170.8,216.7z"/>
<path class="st5" d="M330.8,138.5c-22.9,3.5-44.4-12.2-47.9-35.1c-3.5-22.9,12.2-44.4,35.1-47.9s44.4,12.2,47.9,35.1
	S353.8,135,330.8,138.5C330.8,138.5,330.8,138.5,330.8,138.5z M318.4,57.5c-21.8,3.3-36.8,23.8-33.5,45.6s23.8,36.8,45.6,33.5
	S367.4,112.8,364,91S340.2,54.1,318.4,57.5L318.4,57.5z"/>
<path class="st5" d="M501,233.7c-22.9,3.5-44.4-12.2-47.9-35.1s12.2-44.4,35.1-47.9c22.9-3.5,44.4,12.2,47.9,35.1
	S524,230.2,501,233.7L501,233.7z M488.6,152.6c-21.8,3.3-36.8,23.8-33.5,45.6c3.3,21.8,23.8,36.8,45.6,33.5s36.8-23.8,33.5-45.6v0
	C530.9,164.3,510.4,149.3,488.6,152.6L488.6,152.6z"/>
<path class="st5" d="M702.8,83.5c-22.9,3.5-44.4-12.2-47.9-35.1S667.1,4,690.1,0.5s44.4,12.2,47.9,35.1S725.7,80,702.8,83.5
	L702.8,83.5z M690.4,2.5c-21.8,3.3-36.8,23.8-33.5,45.6s23.8,36.8,45.6,33.5s36.8-23.8,33.5-45.6c0,0,0,0,0,0
	C732.6,14.1,712.2-0.9,690.4,2.5L690.4,2.5z"/>
<path class="st5" d="M894,156.4c-22.9,3.5-44.4-12.2-47.9-35.1s12.2-44.4,35.1-47.9c22.9-3.5,44.4,12.2,47.9,35.1c0,0,0,0,0,0
	C932.7,131.4,917,152.9,894,156.4z M881.6,75.3c-21.8,3.3-36.8,23.8-33.5,45.6c3.3,21.8,23.8,36.8,45.6,33.5
	c21.8-3.3,36.8-23.8,33.5-45.6v0C923.9,87,903.5,72,881.6,75.3C881.6,75.3,881.6,75.3,881.6,75.3L881.6,75.3z"/>
<path class="st5" d="M346.4,82l4.8-1.7c0,0-3.4,5.3-4.2,5.7l0,0c0.1,1,0.2,2,0.5,3c-3.2,42.2-41,29.6-41,29.6
	c12.8-1.7,13.1-7.1,13.1-7.1c-7.6,0-9.8-4.6-9.8-4.6c1.5,0.5,3.1-0.2,3.8-1.6c-8.3-0.8-8.4-8.8-8.4-8.8c1.6,0.8,3.4,1.2,5.1,1.1
	c-1.1-1-9.9-8.8-6.1-14.1c0,0,7.1,9,21.7,7.7l1-0.3c-0.3-0.7-0.5-1.4-0.5-2.1c-0.9-5.7,3.1-11.1,8.8-12l0,0c6.9-1.1,9,2.7,9,2.7
	l4.5-3.7C348.5,75.6,348.8,80.6,346.4,82z"/>
<path class="st5" d="M502.8,169.9c5.8-0.9,11.1,3.1,12,8.8l3.2,20.9c0.9,5.8-3.1,11.1-8.8,12l-20.9,3.2c-5.8,0.9-11.1-3.1-12-8.8
	l-3.2-20.9c-0.9-5.8,3.1-11.1,8.8-12L502.8,169.9 M502.2,165.7l-20.9,3.2c-8.1,1.3-13.6,8.8-12.4,16.9l3.2,20.9
	c1.3,8.1,8.8,13.6,16.9,12.4l20.9-3.2c8.1-1.3,13.6-8.8,12.4-16.9l-3.2-20.9C517.8,170,510.2,164.5,502.2,165.7z"/>
<path class="st5" d="M507.6,179.9c-1.7,0.3-3.3-0.9-3.6-2.6c-0.3-1.7,0.9-3.3,2.6-3.6c1.7-0.3,3.3,0.9,3.6,2.6
	C510.5,178,509.3,179.6,507.6,179.9L507.6,179.9z"/>
<path class="st5" d="M494.3,184c4.6-0.7,8.9,2.5,9.6,7.1c0.7,4.6-2.5,8.9-7.1,9.6s-8.9-2.5-9.6-7.1C486.5,189,489.7,184.7,494.3,184
	L494.3,184L494.3,184 M493.7,179.9c-6.9,1.1-11.7,7.5-10.6,14.4s7.5,11.7,14.4,10.6s11.7-7.5,10.6-14.4l0,0l0,0
	C507,183.5,500.6,178.8,493.7,179.9L493.7,179.9z"/>
<path class="st5" d="M885,87.7c-15,2.3-25.4,16.4-23,31.4c1.7,10.8,9.6,19.6,20.1,22.4c-0.4-2.1-0.6-4.2-0.5-6.3
	c0.2-2.3,1.2-15.4,1.2-15.4c-0.8-1.3-1.3-2.7-1.5-4.2c-0.6-4,1.3-7.4,4.2-7.9c2.5-0.4,4,1.3,4.3,3.5c0.4,2.5-0.6,6.5-0.9,10
	c-0.2,2.3,1.5,4.4,3.8,4.6c0.4,0,0.9,0,1.3-0.1c5.2-0.8,7.6-7.9,6.4-15.8c-0.9-6-5.6-9.8-12.9-8.7c-8.3,1.3-12.5,8.2-11.4,15.1
	c0.2,2,1.1,3.8,2.6,5.1c0.5,0.3,0.8,0.9,0.6,1.5c-0.1,0.5-0.2,1.8-0.2,2.3c0,0.5-0.4,0.9-1,0.9c-0.1,0-0.2,0-0.3-0.1
	c-4-1-6.5-4.9-7.2-9.5c-1.2-7.7,3.9-18,16.8-20c10.4-1.6,18.4,4.9,19.6,12.9c1.6,10.7-3.1,19.6-11.8,20.9c-2.9,0.5-5.9-0.7-7.2-2.4
	c0,0-0.6,6.5-0.8,7.8c-0.3,2.2-0.9,4.3-1.8,6.3c15.1,2,29-8.5,31-23.6c2-15.1-8.5-29-23.6-31C890.3,87.3,887.6,87.3,885,87.7
	L885,87.7z"/>
<path class="st5" d="M718,22l-36.7-5.4c-2-0.4-3.9,0.9-4.3,2.9l0,0l-5.4,36.7c-0.2,2.1,1.2,4,3.2,4.3l36.7,5.4
	c2,0.2,3.8-1.2,4.1-3.2l5.4-36.7c0.3-1.9-1-3.6-2.8-3.9l0,0C718.1,22,718.1,22,718,22z M685.8,54.6l-6.3-0.9l2.9-19.6l6.3,0.9
	L685.8,54.6z M686.2,31.7L686.2,31.7c-1.9-0.3-3.2-2.1-2.9-4c0.3-1.9,2.1-3.2,3.9-2.9c1.9,0.3,3.2,2.1,2.9,3.9
	C689.8,30.6,688.1,31.9,686.2,31.7z M708.8,58l-6.3-0.9l1.6-10.7c0.4-2.6-0.3-4.4-2.6-4.8c-1.5-0.2-2.9,0.5-3.6,1.8
	c-0.2,0.5-0.4,1-0.4,1.5l-1.6,11.1l-6.3-0.9l2.9-19.6l6.3,0.9l-0.4,2.7c1.5-1.8,3.8-2.7,6.1-2.3c4.1,0.6,6.9,3.8,6,9.7L708.8,58z"/>
<path class="st6" d="M204.1,252.2c-2.3-15-16.3-25.3-31.3-23c-15,2.3-25.3,16.3-23,31.3c2,13.3,13.5,23.2,27,23.3l-2.9-19L167,266
	l-1.2-7.8l6.9-1.1l-0.9-6c-1-6.8,2.4-11.2,8.6-12.1c2-0.3,4.1-0.4,6.2-0.4l1,6.7l-3.4,0.5c-3.4,0.5-4.1,2.8-3.8,4.9l0.8,5.1l7.5-1.2
	l0,8l-6.3,1l2.9,19C198.1,278.4,206.1,265.6,204.1,252.2L204.1,252.2z"/>
<polygon class="st7" points="710.5,427.4 720.5,430.1 735.5,392.6 720.7,388.7 "/>
<path class="st3" d="M707.4,437.8l30.9,8.1l0.1-0.4c1.7-6.6-2.2-13.4-8.9-15.2l0,0l-4.5-5.8l-11.6,1.5l-2.7-0.7L707.4,437.8z"/>
<polygon class="st7" points="762,435 772.3,435 777.3,394.9 762,394.9 "/>
<path class="st3" d="M761.6,445.8l31.9,0v-0.4c0-6.9-5.6-12.4-12.4-12.4h0l-5.8-4.4l-10.9,4.4l-2.8,0L761.6,445.8z"/>
<path class="st3" d="M736,243.3c-2.5,3.1-1.3,13.8-1.3,13.8s-4.4,34.5-2.5,37.6c1.9,3.1-1.3,5.6-3.1,10s-3.8,15-3.8,15
	c-10.7,8.8-10,48.9-10,48.9l-3.8,35.7c1.3,3.8,18.8,4.4,21.3,3.8s27-89,27-89s-1.3,85.3-1.3,89s16.9,1.9,20.7,1.9
	s27.6-153.6,27.6-153.6v-8.8l-3.1-4.4C803.7,243.3,738.5,240.2,736,243.3z"/>
<circle class="st7" cx="763.6" cy="109.1" r="19.4"/>
<path class="st5" d="M737.5,257.2l-0.1-0.1c-5.7-7.9,2.9-27,4.1-29.7l0,0c-3.1-1-5.1-4.1-4.7-7.4l0.6-4.7l0.6-4.6l-4.1-4.1l0-0.1
	l-2.4-20.8l-3.5-13.8c-2.7-10.6,0.6-21.9,8.6-29.4l8-1.3l9.7-9.4h15.7l5.4,5.1c10.6,8.7,13.1,4.9,25,21.2l-8.5,22.5l4.8,33.1l0,6
	l2.5,2.8c1.8,2,2.6,4.8,2,7.4l-0.3,1.6l0,0c2.6,1.1,4.4,3.4,5,6.1l0.9,4.1c0.7,1,5.7,7.6,5.7,9.3c0,0.3-0.2,0.5-0.6,0.8
	c-3.4,2.3-21.9,6.9-30.1,3.6c-8.7-3.5-43.5,1.7-43.9,1.8L737.5,257.2z"/>
<path class="st7" d="M727.6,178.3l16.2-3.2c6,8.9,9.2,33.3,9.2,33.3l17.9,37.1c3.4,2.1,4.5,6.6,2.4,10c-2.1,3.4-6.6,4.5-10,2.4
	c-2.3-1.4-3.6-3.9-3.5-6.6l-23.3-43.9L727.6,178.3z"/>
<path class="st5" d="M727.5,182.2l-0.5-24l7.6-10.2c3.1-4.1,8.2-6,13.2-5.1l0,0c6.9,1.3,11.5,7.8,10.7,14.8
	c-1.3,10.2-4.2,22.9-10.9,25.8l-0.1,0l6.9,24l-25.5,3.6L727.5,182.2z"/>
<path class="st7" d="M831.8,161.9c0,0-24.1-4.9-34.5-2.2L795,176l29.4,2.6l50.2-9.1c3.7,1.5,8-0.4,9.4-4.1c1.5-3.7-0.4-8-4.1-9.4
	c-2.5-1-5.3-0.5-7.3,1.2L831.8,161.9z"/>
<path class="st5" d="M802.6,179.8l-23.9-2.6l-9.1-8.9c-3.6-3.6-4.9-8.9-3.4-13.7l0,0c2.2-6.7,9.2-10.4,16-8.7
	c9.9,2.6,19.8,0.2,21.9,7.1l3.6-1.2l23.5,4.5l0.3,25.7L802.6,179.8z"/>
<path class="st3" d="M741.5,96.4c2.2-3.4,6.3-5.6,10.2-5c1.1-7.6,8.2-12.9,15.9-11.8c2.8,0.4,5.5,1.7,7.6,3.7c1.2-0.9,2.9-1,4.3-0.4
	c1.4,0.6,2.6,1.6,3.5,2.8c4.6,5.8,5.7,13.7,2.8,20.5c0.5-1.8-1.3-3.4-3.1-3.8c-1.8-0.4-3.7,0-5.5-0.3c-2.3-0.3-4.4-1.7-6.7-2
	c-2-0.1-4,0.1-5.8,0.7c-1.9,0.6-3.9,0.9-5.8,0.8c-2-0.2-4.5,7.2-4.4,12.4c0,1-0.2,2.3-1.2,2.5c-1.2,0.3-1.9-1.4-3-1.8
	c-1.1-0.3-2.2,0.3-2.6,1.4c-0.3,1.1,0,2.2,0.7,3.1c0.7,0.8,1.5,1.6,2.5,2.1l-0.5,0.4c-0.9,1-2.4,1.1-3.5,0.4
	c-1.1-0.7-1.9-1.7-2.5-2.9c-2.2-3.4-3.8-7.1-4.6-11.1C738.8,104,739.5,99.8,741.5,96.4z"/>
<path class="st8" d="M904.6,430l-7.7-12.4l-1.5,7.1c-0.3,1.2-0.5,2.5-0.8,3.8c-2.2-1.9-4.5-3.6-6.8-5.3c-7-5.1-14-10.2-21-15.3
	l2.2,12.7c1.4,7.8,2.8,15.8,6.1,23c0.4,0.8,0.8,1.6,1.2,2.4h32.5c0.3-0.7,0.4-1.5,0.5-2.2c0,0,0-0.1,0-0.2
	C909.9,438.7,907.2,434.1,904.6,430z"/>
<path class="st9" d="M932.2,447.2l-275.8,0.3c-0.7,0-1.2-0.5-1.2-1.2s0.5-1.2,1.2-1.2c0,0,0,0,0,0l275.8-0.3c0.7,0,1.2,0.5,1.2,1.2
	C933.4,446.6,932.8,447.2,932.2,447.2C932.2,447.2,932.2,447.2,932.2,447.2z"/>
</svg>
