<?xml version="1.0" encoding="utf-8"?>
<!-- Generator: Adobe Illustrator 26.0.2, SVG Export Plug-In . SVG Version: 6.00 Build 0)  -->
<svg version="1.1" id="Capa_1" xmlns="http://www.w3.org/2000/svg" xmlns:xlink="http://www.w3.org/1999/xlink" x="0px" y="0px"
	 viewBox="0 0 751.4 542.5" style="enable-background:new 0 0 751.4 542.5;" xml:space="preserve">
<style type="text/css">
	.st0{fill:#CACACA;}
	.st1{fill:#FFB6B6;}
	.st2{fill:#2F2E41;}
	.st3{fill:#E6E6E6;}
	.st4{fill:#3F3D56;}
	.st5{fill:#15498F;}
	.st6{fill:#FFFFFF;}
</style>
<path class="st0" d="M750.2,379.9L1.4,380.3c-0.7,0-1.2-0.5-1.2-1.2c0-0.7,0.5-1.2,1.2-1.2l748.8-0.3c0.7,0,1.2,0.5,1.2,1.2
	S750.9,379.9,750.2,379.9C750.2,379.9,750.2,379.9,750.2,379.9z"/>
<polygon class="st1" points="570,95.7 571.2,104.7 601.2,104.1 600.8,94.1 "/>
<path class="st2" d="M634.8,379.2c-34.1,1.4-53.4,0.4-78.2-21.2c-16.9-0.5-30.4-12.7-30-27.3s14.5-26.1,31.4-25.6l61.4,2.9
	c16.9,0.5,48.4-0.6,48,14c-0.2,7.2-0.2,16.5-0.9,26.2C665.4,365.1,651.8,378.5,634.8,379.2z"/>
<polygon class="st1" points="525.3,515.8 507.7,518.6 488.2,452.1 514.2,447.9 "/>
<path class="st2" d="M518.3,377c32.8,8.1,57.1-1,77,0.2c11.3-19.1,47.6-43.5,27.8-53.7c-11-5.7-122.9-18.8-137.6-3.7
	c-37.8,39,9.1,162.2,9.1,162.2l26.1-0.3l8.3-11.9l-6.7-13l6.3-10.6l-7.3-10.9L518.3,377z"/>
<path class="st2" d="M537.4,529.1l-11.5,3.1l-5-10.3l-2.4,12.3l-30.6,8.2c-3.8,1-7.7-1.2-8.7-5c-0.6-2.3-0.1-4.7,1.5-6.5l19.9-23.4
	l-2.9-11l26.1-5.3L537.4,529.1z"/>
<polygon class="st1" points="669.6,494.1 656.7,506.5 602.9,462.8 621.8,444.5 "/>
<path class="st2" d="M566,356.5c30.1,11.6,56.4-1.3,82.4-16.2c-1.5-22.2-2.4-54.2-24.5-51.4c-12.3,1.6-113.9,18.4-117.4,39.2
	c-8.9,53.6,118.6,155.6,118.6,155.6l21.3-15.1l0.1-14.5l-12.9-6.8l-0.8-12.3l-12.2-4.9L566,356.5z"/>
<path class="st2" d="M687.1,498.1l-7.7,9.1l-10-5.7l5.1,11.5l-20.5,24.1c-2.5,3-7,3.4-10,0.8c-1.8-1.5-2.7-3.8-2.5-6.1l3.1-30.6
	l-8.7-7.4l18.4-19.2L687.1,498.1z"/>
<path class="st3" d="M550.1,312.4c-2.1,0-3.3-0.4-3.8-1.3c-0.7-1.3-5.1-3-3.7-5c1-1.4,3.3-3.2,2.4-4.3c-3.4-4.1-12-121.6-14-137.6
	c-0.5-5,0.2-10,2-14.6c5.7-16,13.4-20.9,28.7-30.8c1.2-0.8,2.5-1.6,3.9-2.5c1.7-1.1,1.7,1.5,1.5-2.4c-0.1-4.4-0.2-8.9,1.9-11.7
	l0.1-0.2l0.2-0.1c5.2-1.2,22.7-3.4,33,0l0.1,0l0.1,0.1c2.5,2.5,2.7,7.2,2.9,11.8c0.2,3.8,0.3,1,1.7,2.5c5.3,5.9,13.3,9.3,20,11.3
	c8.6,2.5,14.4,10.5,14.2,19.4c-0.7,21.9-0.2,56.6-3.9,81c-6.2,40.7,50.6,99.4,18.1,100.6c0.2,0.3,0.2,0.6,0,0.9
	C653.4,334,558.1,312.4,550.1,312.4z"/>
<circle class="st2" cx="583.1" cy="59.7" r="38.8"/>
<ellipse transform="matrix(0.9996 -2.832292e-02 2.832292e-02 0.9996 -1.8574 16.611)" class="st1" cx="585.4" cy="73.9" rx="27.9" ry="27.9"/>
<path class="st2" d="M585.7,31.3l-11.3,0.3c-14.8,0.4-26.5,12.8-26.1,27.6l0,0.3l0.2,0.1c6.1,4.1,13.4,6.1,20.8,5.9l0.6,0l6.3-0.3
	c1.1-2.7,1.4-5.6,1-8.5c0.9,2.7,1.7,5.5,2.2,8.4l28-1.3c3.4-0.2,6-3,6-6.4C612.9,42.6,600.6,30.9,585.7,31.3z"/>
<path class="st2" d="M575,35.5c-1.8,3.6-5.5,5.8-8.7,8.3c-11.4,9.1-17.7,23.2-16.7,37.7c0.5,5.8,2.1,11.6,1.9,17.4
	c-0.1,5.8-2.6,12.2-7.9,14.6c-3.6,1.6-7.8,1.2-11.7,0.7c-1.7-0.2-3.4-0.4-5.2-0.7c-0.7-0.1-1.2-0.7-1.1-1.5c0.3-2.1,0.5-4.1,0.8-6.2
	c0.2-1.5-1.8-2.1-2.5-0.7c-1.1,2.3-2.4,4.6-3.8,6.8c-0.3,0.4-0.8,0.7-1.3,0.6c-5.7-0.7-11.5-1.5-17.2-2.2c-1.2-0.2-1.6-1.8-0.5-2.4
	c11.1-6,5.2-20.5,4.7-36.4c-0.3-9.8,16.1-20.7,17.3-30.4c1.9-15.2,15.8-25.9,31-24c6.4,0.8,12.3,3.8,16.7,8.5
	c0.2,0.2,0.4,0.3,0.7,0.4C575.3,26.8,576.7,32,575,35.5z"/>
<path class="st4" d="M616.3,244.5h-66.8c-4.8,0-8.6-3.9-8.6-8.6v-71.8c0-4.8,3.9-8.6,8.6-8.6h66.8c4.8,0,8.6,3.9,8.6,8.6v71.8
	C624.9,240.6,621.1,244.5,616.3,244.5z"/>
<circle class="st3" cx="551.4" cy="166" r="5"/>
<circle class="st4" cx="551.4" cy="166" r="3"/>
<path class="st1" d="M572.4,241l-45.9-11.6l-7.1,23.6c0,0,49.3,3.7,51.2,3.7c3.8,5.3,11.1,6.6,16.4,2.8c5.3-3.8,6.6-11.1,2.8-16.4
	c-3.8-5.3-11.1-6.6-16.4-2.8C573.1,240.5,572.7,240.7,572.4,241L572.4,241z"/>
<path class="st3" d="M541.8,134c-32.7,17.5-47,56.4-67.1,90.6c-1.6,14.8,9.1,28.2,23.9,29.9c0.8,0.1,1.7,0.1,2.5,0.2l39.2,0.9
	l-4.9-24.2l-13.1-7.5l15.5-37.5L541.8,134z"/>
<path class="st1" d="M590.3,171.9l31.3,38l-12.9,20.5c0,0-31.5-49.2-32.2-50.9c-6.3-1.5-10.3-7.8-8.8-14.2
	c1.5-6.3,7.8-10.3,14.2-8.8c6.3,1.5,10.3,7.8,8.8,14.2C590.5,171,590.4,171.4,590.3,171.9L590.3,171.9z"/>
<path class="st3" d="M637.4,135c9.4-5.2,37,75.3,8,121.1c-13.1,7.1-29.5,2.2-36.7-10.9c-0.4-0.7-0.8-1.5-1.1-2.3l-15-36.7l24-7.7
	l11.5,13.2l-1.6-26.2l13.7-37.3L637.4,135z"/>
<circle class="st5" cx="324.4" cy="53" r="45"/>
<path class="st6" d="M344.5,24.4h-40.2c-3.5,0-6.4,2.8-6.4,6.4v40.2c0,3.5,2.8,6.4,6.4,6.4h40.2c3.5,0,6.4-2.8,6.4-6.4V30.7
	C350.9,27.2,348,24.4,344.5,24.4z M324.4,64.9c-7.8,0-14.1-6.3-14.1-14.1s6.3-14.1,14.1-14.1c7.8,0,14.1,6.3,14.1,14.1
	S332.2,64.9,324.4,64.9L324.4,64.9z M340.3,36.7c-1.9,0-3.5-1.6-3.5-3.5s1.6-3.5,3.5-3.5s3.5,1.6,3.5,3.5v0
	C343.8,35.1,342.2,36.7,340.3,36.7z"/>
<circle class="st5" cx="338.5" cy="307.5" r="45"/>
<path class="st6" d="M332,334.2c-5.9,0-11.7-1.9-16.7-5.5l-2.5-1.8l3,0.4c0.8,0.1,1.6,0.2,2.5,0.2c4,0,7.9-1.3,11.2-3.7
	c-4.1-1-7.3-4.2-8.6-8.6l-0.4-1.3l1.2,0.3c0.5,0.1,1.1,0.2,1.6,0.2c-3.8-2.2-6.2-6.5-6.2-11.2v-1.3l1.1,0.5c0.6,0.4,1.3,0.7,2,0.9
	c-3.3-4.1-3.9-10.2-1.4-15l0.5-1l0.6,0.9c4.7,6.4,11.4,10.7,18.8,11.8c0.4,0.1,0.8-0.1,1.1-0.4c0.3-0.3,0.5-0.8,0.5-1.2
	c0-6.9,5-12.6,11.3-12.7c3.1,0,6,1.3,8.1,3.7c2.2-0.5,4.3-1.4,6.2-2.7l1.6-1.1l-0.6,2c-0.5,1.8-1.5,3.5-2.7,4.9
	c1.1-0.3,2.1-0.7,3.2-1.2l2.2-1.1l-1.3,2.2c-1.4,2.3-3.2,4.4-5.2,6.1v1.1C363.2,316.7,351.6,334.2,332,334.2L332,334.2z"/>
<ellipse transform="matrix(0.1602 -0.9871 0.9871 0.1602 19.5798 380.4944)" class="st5" cx="233.4" cy="178.7" rx="45" ry="45"/>
<path class="st6" d="M253.5,152.3h-40.2c-3.5,0-6.4,2.8-6.4,6.4v40.2c0,3.5,2.8,6.4,6.4,6.4h40.2c3.5,0,6.4-2.8,6.4-6.4v-40.2
	C259.9,155.1,257,152.3,253.5,152.3z M246,165.9h-4.6c-3.1,0-3.8,1.5-3.8,3.7v4.7h7.5l-1,7.3h-6.5v19.1c-2.8,0.5-5.7,0.5-8.5,0
	v-19.1h-6v-7.3h6.1v-5.4c0-6.5,4.5-10,10.3-10c2.8,0,5.8,0.2,6.4,0.3L246,165.9z"/>
</svg>
